<svg class="main-svg" xmlns="http://www.w3.org/2000/svg" xmlns:xlink="http://www.w3.org/1999/xlink" width="700" height="500" style="" viewBox="0 0 700 500"><rect x="0" y="0" width="700" height="500" style="fill: rgb(255, 255, 255); fill-opacity: 1;"/><defs id="defs-5f9753"><g class="clips"><clipPath id="clip5f9753xyplot" class="plotclip"><rect width="451.20000000000005" height="390"/></clipPath><clipPath id="clip5f9753xy2plot" class="plotclip"><rect width="451.20000000000005" height="390"/></clipPath><clipPath id="clip5f9753xy3plot" class="plotclip"><rect width="451.20000000000005" height="390"/></clipPath><clipPath id="clip5f9753xy4plot" class="plotclip"><rect width="451.20000000000005" height="390"/></clipPath><clipPath class="axesclip" id="clip5f9753x"><rect x="50" y="0" width="451.20000000000005" height="500"/></clipPath><clipPath class="axesclip" id="clip5f9753y"><rect x="0" y="60" width="700" height="390"/></clipPath><clipPath class="axesclip" id="clip5f9753xy"><rect x="50" y="60" width="451.20000000000005" height="390"/></clipPath><clipPath class="axesclip" id="clip5f9753y2"><rect x="0" y="60" width="700" height="390"/></clipPath><clipPath class="axesclip" id="clip5f9753xy2"><rect x="50" y="60" width="451.20000000000005" height="390"/></clipPath><clipPath class="axesclip" id="clip5f9753y3"><rect x="0" y="60" width="700" height="390"/></clipPath><clipPath class="axesclip" id="clip5f9753xy3"><rect x="50" y="60" width="451.20000000000005" height="390"/></clipPath><clipPath class="axesclip" id="clip5f9753y4"><rect x="0" y="60" width="700" height="390"/></clipPath><clipPath class="axesclip" id="clip5f9753xy4"><rect x="50" y="60" width="451.20000000000005" height="390"/></clipPath></g><g class="gradients"/></defs><g class="bglayer"/><g class="layer-below"><g class="imagelayer"/><g class="shapelayer"/></g><g class="cartesianlayer"><g class="subplot xy"><g class="layer-subplot"><g class="shapelayer"/><g class="imagelayer"/></g><g class="gridlayer"><g class="x"><path class="xgrid crisp" transform="translate(140.24,0)" d="M0,60v390" style="stroke: rgb(238, 238, 238); stroke-opacity: 1; stroke-width: 1px;"/><path class="xgrid crisp" transform="translate(230.48,0)" d="M0,60v390" style="stroke: rgb(238, 238, 238); stroke-opacity: 1; stroke-width: 1px;"/><path class="xgrid crisp" transform="translate(320.72,0)" d="M0,60v390" style="stroke: rgb(238, 238, 238); stroke-opacity: 1; stroke-width: 1px;"/><path class="xgrid crisp" transform="translate(410.96,0)" d="M0,60v390" style="stroke: rgb(238, 238, 238); stroke-opacity: 1; stroke-width: 1px;"/></g><g class="y"><path class="ygrid crisp" transform="translate(0,432.27)" d="M50,0h451.20000000000005" style="stroke: rgb(238, 238, 238); stroke-opacity: 1; stroke-width: 1px;"/><path class="ygrid crisp" transform="translate(0,373.18)" d="M50,0h451.20000000000005" style="stroke: rgb(238, 238, 238); stroke-opacity: 1; stroke-width: 1px;"/><path class="ygrid crisp" transform="translate(0,314.09000000000003)" d="M50,0h451.20000000000005" style="stroke: rgb(238, 238, 238); stroke-opacity: 1; stroke-width: 1px;"/><path class="ygrid crisp" transform="translate(0,195.91)" d="M50,0h451.20000000000005" style="stroke: rgb(238, 238, 238); stroke-opacity: 1; stroke-width: 1px;"/><path class="ygrid crisp" transform="translate(0,136.82)" d="M50,0h451.20000000000005" style="stroke: rgb(238, 238, 238); stroke-opacity: 1; stroke-width: 1px;"/><path class="ygrid crisp" transform="translate(0,77.73)" d="M50,0h451.20000000000005" style="stroke: rgb(238, 238, 238); stroke-opacity: 1; stroke-width: 1px;"/></g><g class="y2"><path class="y2grid crisp" transform="translate(0,421.12)" d="M50,0h451.20000000000005" style="stroke: rgb(238, 238, 238); stroke-opacity: 1; stroke-width: 1px;"/><path class="y2grid crisp" transform="translate(0,379.59)" d="M50,0h451.20000000000005" style="stroke: rgb(238, 238, 238); stroke-opacity: 1; stroke-width: 1px;"/><path class="y2grid crisp" transform="translate(0,338.06)" d="M50,0h451.20000000000005" style="stroke: rgb(238, 238, 238); stroke-opacity: 1; stroke-width: 1px;"/><path class="y2grid crisp" transform="translate(0,296.53)" d="M50,0h451.20000000000005" style="stroke: rgb(238, 238, 238); stroke-opacity: 1; stroke-width: 1px;"/><path class="y2grid crisp" transform="translate(0,213.47)" d="M50,0h451.20000000000005" style="stroke: rgb(238, 238, 238); stroke-opacity: 1; stroke-width: 1px;"/><path class="y2grid crisp" transform="translate(0,171.94)" d="M50,0h451.20000000000005" style="stroke: rgb(238, 238, 238); stroke-opacity: 1; stroke-width: 1px;"/><path class="y2grid crisp" transform="translate(0,130.41)" d="M50,0h451.20000000000005" style="stroke: rgb(238, 238, 238); stroke-opacity: 1; stroke-width: 1px;"/><path class="y2grid crisp" transform="translate(0,88.88)" d="M50,0h451.20000000000005" style="stroke: rgb(238, 238, 238); stroke-opacity: 1; stroke-width: 1px;"/></g><g class="y3"><path class="y3grid crisp" transform="translate(0,442.02)" d="M50,0h451.20000000000005" style="stroke: rgb(238, 238, 238); stroke-opacity: 1; stroke-width: 1px;"/><path class="y3grid crisp" transform="translate(0,379.68)" d="M50,0h451.20000000000005" style="stroke: rgb(238, 238, 238); stroke-opacity: 1; stroke-width: 1px;"/><path class="y3grid crisp" transform="translate(0,317.34)" d="M50,0h451.20000000000005" style="stroke: rgb(238, 238, 238); stroke-opacity: 1; stroke-width: 1px;"/><path class="y3grid crisp" transform="translate(0,192.66)" d="M50,0h451.20000000000005" style="stroke: rgb(238, 238, 238); stroke-opacity: 1; stroke-width: 1px;"/><path class="y3grid crisp" transform="translate(0,130.32)" d="M50,0h451.20000000000005" style="stroke: rgb(238, 238, 238); stroke-opacity: 1; stroke-width: 1px;"/><path class="y3grid crisp" transform="translate(0,67.98)" d="M50,0h451.20000000000005" style="stroke: rgb(238, 238, 238); stroke-opacity: 1; stroke-width: 1px;"/></g><g class="y4"><path class="y4grid crisp" transform="translate(0,442.06)" d="M50,0h451.20000000000005" style="stroke: rgb(238, 238, 238); stroke-opacity: 1; stroke-width: 1px;"/><path class="y4grid crisp" transform="translate(0,395.3)" d="M50,0h451.20000000000005" style="stroke: rgb(238, 238, 238); stroke-opacity: 1; stroke-width: 1px;"/><path class="y4grid crisp" transform="translate(0,348.53)" d="M50,0h451.20000000000005" style="stroke: rgb(238, 238, 238); stroke-opacity: 1; stroke-width: 1px;"/><path class="y4grid crisp" transform="translate(0,301.77)" d="M50,0h451.20000000000005" style="stroke: rgb(238, 238, 238); stroke-opacity: 1; stroke-width: 1px;"/><path class="y4grid crisp" transform="translate(0,208.23)" d="M50,0h451.20000000000005" style="stroke: rgb(238, 238, 238); stroke-opacity: 1; stroke-width: 1px;"/><path class="y4grid crisp" transform="translate(0,161.47)" d="M50,0h451.20000000000005" style="stroke: rgb(238, 238, 238); stroke-opacity: 1; stroke-width: 1px;"/><path class="y4grid crisp" transform="translate(0,114.7)" d="M50,0h451.20000000000005" style="stroke: rgb(238, 238, 238); stroke-opacity: 1; stroke-width: 1px;"/><path class="y4grid crisp" transform="translate(0,67.94)" d="M50,0h451.20000000000005" style="stroke: rgb(238, 238, 238); stroke-opacity: 1; stroke-width: 1px;"/></g></g><g class="zerolinelayer"><path class="xzl zl crisp" transform="translate(50,0)" d="M0,60v390" style="stroke: rgb(68, 68, 68); stroke-opacity: 1; stroke-width: 1px;"/><path class="yzl zl crisp" transform="translate(0,255)" d="M50,0h451.20000000000005" style="stroke: rgb(68, 68, 68); stroke-opacity: 1; stroke-width: 1px;"/><path class="y2zl zl crisp" transform="translate(0,255)" d="M50,0h451.20000000000005" style="stroke: rgb(68, 68, 68); stroke-opacity: 1; stroke-width: 1px;"/><path class="y3zl zl crisp" transform="translate(0,255)" d="M50,0h451.20000000000005" style="stroke: rgb(68, 68, 68); stroke-opacity: 1; stroke-width: 1px;"/><path class="y4zl zl crisp" transform="translate(0,255)" d="M50,0h451.20000000000005" style="stroke: rgb(68, 68, 68); stroke-opacity: 1; stroke-width: 1px;"/></g><path class="xlines-below"/><path class="ylines-below"/><g class="overlines-below"><path class="xy2-x"/><path class="xy2-y"/><path class="xy3-x"/><path class="xy3-y"/><path class="xy4-x"/><path class="xy4-y"/></g><g class="xaxislayer-below"/><g class="yaxislayer-below"/><g class="overaxes-below"><g class="xy2-x"/><g class="xy2-y"/><g class="xy3-x"/><g class="xy3-y"/><g class="xy4-x"/><g class="xy4-y"/></g><g class="plot" transform="translate(50, 60)" clip-path="url('#clip5f9753xyplot')"><g class="scatterlayer mlayer"><g class="trace scatter trace7db856" style="stroke-miterlimit: 2; opacity: 1;"><g class="fills"/><g class="errorbars"/><g class="lines"><path class="js-line" d="M0,169.15H0.75V169.15H0.75V117.44H1.5V117.44H1.5V65.74H2.26V65.74H2.26V17.73H3.01V17.73H3.01V17.73H3.76V17.73H3.76V17.73H4.51V17.73H4.51V17.73H5.26V17.73H5.26V17.73H6.02V17.73H6.02V17.73H6.77V17.73H6.77V17.73H7.52V17.73H7.52V17.73H8.27V17.73H8.27V17.73H9.02V17.73H9.02V17.73H9.78V17.73H9.78V17.73H10.53V17.73H10.53V17.73H11.28V17.73H11.28V17.73H12.03V17.73H12.03V17.73H12.78V17.73H12.78V17.73H13.54V17.73H13.54V17.73H14.29V17.73H14.29V17.73H15.04V17.73H15.04V17.73H15.79V17.73H15.79V17.73H16.54V17.73H16.54V17.73H17.3V17.73H17.3V17.73H18.05V17.73H18.05V17.73H18.8V17.73H18.8V17.73H19.55V17.73H19.55V17.73H20.3V17.73H20.3V17.73H21.06V17.73H21.06V17.73H21.81V17.73H21.81V17.73H22.56V17.73H22.56V17.73H23.31V17.73H23.31V17.73H24.06V17.73H24.06V17.73H24.82V17.73H24.82V17.73H25.57V17.73H25.57V17.73H26.32V17.73H26.32V17.73H27.07V17.73H27.07V17.73H27.82V17.73H27.82V17.73H28.58V17.73H28.58V17.73H29.33V17.73H29.33V17.73H30.08V17.73H30.08V17.73H30.83V17.73H30.83V17.73H31.58V17.73H31.58V17.73H32.34V17.73H32.34V17.73H33.09V17.73H33.09V17.73H33.84V17.73H33.84V17.74H34.59V17.74H34.59V17.75H35.34V17.75H35.34V17.81H36.1V17.81H36.1V17.95H36.85V17.95H36.85V18.2H37.6V18.2H37.6V18.5H38.35V18.5H38.35V18.82H39.1V18.82H39.1V19.15H39.86V19.15H39.86V19.49H40.61V19.49H40.61V19.83H41.36V19.83H41.36V20.18H42.11V20.18H42.11V20.54H42.86V20.54H42.86V20.9H43.62V20.9H43.62V21.27H44.37V21.27H44.37V21.64H45.12V21.64H45.12V22.02H45.87V22.02H45.87V22.41H46.62V22.41H46.62V22.81H47.38V22.81H47.38V23.21H48.13V23.21H48.13V23.62H48.88V23.62H48.88V24.03H49.63V24.03H49.63V24.45H50.38V24.45H50.38V24.88H51.14V24.88H51.14V25.31H51.89V25.31H51.89V25.75H52.64V25.75H52.64V26.19H53.39V26.19H53.39V26.64H54.14V26.64H54.14V27.1H54.9V27.1H54.9V27.57H55.65V27.57H55.65V28.04H56.4V28.04H56.4V28.51H57.15V28.51H57.15V29H57.9V29H57.9V29.48H58.66V29.48H58.66V29.98H59.41V29.98H59.41V30.48H60.16V30.48H60.16V30.99H60.91V30.99H60.91V31.5H61.66V31.5H61.66V32.02H62.42V32.02H62.42V32.54H63.17V32.54H63.17V33.08H63.92V33.08H63.92V33.61H64.67V33.61H64.67V34.16H65.42V34.16H65.42V34.71H66.18V34.71H66.18V35.26H66.93V35.26H66.93V35.82H67.68V35.82H67.68V36.39H68.43V36.39H68.43V36.96H69.18V36.96H69.18V37.54H69.94V37.54H69.94V38.12H70.69V38.12H70.69V38.71H71.44V38.71H71.44V39.31H72.19V39.31H72.19V39.91H72.94V39.91H72.94V40.52H73.7V40.52H73.7V41.13H74.45V41.13H74.45V41.75H75.2V41.75H75.2V42.38H75.95V42.38H75.95V43.01H76.7V43.01H76.7V43.64H77.46V43.64H77.46V44.28H78.21V44.28H78.21V44.93H78.96V44.93H78.96V45.58H79.71V45.58H79.71V46.24H80.46V46.24H80.46V46.91H81.22V46.91H81.22V47.58H81.97V47.58H81.97V48.25H82.72V48.25H82.72V48.93H83.47V48.93H83.47V49.62H84.22V49.62H84.22V50.31H84.98V50.31H84.98V51H85.73V51H85.73V51.7H86.48V51.7H86.48V52.41H87.23V52.41H87.23V53.12H87.98V53.12H87.98V53.84H88.74V53.84H88.74V54.56H89.49V54.56H89.49V55.29H90.24V55.29H90.24V56.02H90.99V56.02H90.99V56.76H91.74V56.76H91.74V57.51H92.5V57.51H92.5V58.25H93.25V58.25H93.25V59.01H94V59.01H94V59.77H94.75V59.77H94.75V60.53H95.5V60.53H95.5V61.3H96.26V61.3H96.26V62.07H97.01V62.07H97.01V62.85H97.76V62.85H97.76V63.63H98.51V63.63H98.51V64.42H99.26V64.42H99.26V65.21H100.02V65.21H100.02V66.01H100.77V66.01H100.77V66.82H101.52V66.82H101.52V67.62H102.27V67.62H102.27V68.43H103.02V68.43H103.02V69.25H103.78V69.25H103.78V70.07H104.53V70.07H104.53V70.9H105.28V70.9H105.28V71.73H106.03V71.73H106.03V72.56H106.78V72.56H106.78V73.4H107.54V73.4H107.54V74.25H108.29V74.25H108.29V75.1H109.04V75.1H109.04V75.95H109.79V75.95H109.79V76.81H110.54V76.81H110.54V77.67H111.3V77.67H111.3V78.54H112.05V78.54H112.05V79.41H112.8V79.41H112.8V80.28H113.55V80.28H113.55V81.16H114.3V81.16H114.3V82.04H115.06V82.04H115.06V82.93H115.81V82.93H115.81V83.82H116.56V83.82H116.56V84.72H117.31V84.72H117.31V85.62H118.06V85.62H118.06V86.52H118.82V86.52H118.82V87.43H119.57V87.43H119.57V88.34H120.32V88.34H120.32V89.26H121.07V89.26H121.07V90.18H121.82V90.18H121.82V91.1H122.58V91.1H122.58V92.03H123.33V92.03H123.33V92.96H124.08V92.96H124.08V93.89H124.83V93.89H124.83V94.83H125.58V94.83H125.58V95.78H126.34V95.78H126.34V96.72H127.09V96.72H127.09V97.67H127.84V97.67H127.84V98.62H128.59V98.62H128.59V99.58H129.34V99.58H129.34V100.54H130.1V100.54H130.1V101.51H130.85V101.51H130.85V102.47H131.6V102.47H131.6V103.44H132.35V103.44H132.35V104.42H133.1V104.42H133.1V105.4H133.86V105.4H133.86V106.38H134.61V106.38H134.61V107.36H135.36V107.36H135.36V108.35H136.11V108.35H136.11V109.34H136.86V109.34H136.86V110.33H137.62V110.33H137.62V111.33H138.37V111.33H138.37V112.33H139.12V112.33H139.12V113.33H139.87V113.33H139.87V114.34H140.62V114.34H140.62V115.35H141.38V115.35H141.38V116.36H142.13V116.36H142.13V117.38H142.88V117.38H142.88V118.39H143.63V118.39H143.63V119.42H144.38V119.42H144.38V120.44H145.14V120.44H145.14V121.47H145.89V121.47H145.89V122.49H146.64V122.49H146.64V123.53H147.39V123.53H147.39V124.56H148.14V124.56H148.14V125.6H148.9V125.6H148.9V126.64H149.65V126.64H149.65V127.68H150.4V127.68H150.4V128.72H151.15V128.72H151.15V129.77H151.9V129.77H151.9V130.82H152.66V130.82H152.66V131.87H153.41V131.87H153.41V132.93H154.16V132.93H154.16V133.98H154.91V133.98H154.91V135.04H155.66V135.04H155.66V136.1H156.42V136.1H156.42V137.17H157.17V137.17H157.17V138.23H157.92V138.23H157.92V139.3H158.67V139.3H158.67V140.37H159.42V140.37H159.42V141.44H160.18V141.44H160.18V142.51H160.93V142.51H160.93V143.59H161.68V143.59H161.68V144.67H162.43V144.67H162.43V145.74H163.18V145.74H163.18V146.83H163.94V146.83H163.94V147.91H164.69V147.91H164.69V148.99H165.44V148.99H165.44V150.08H166.19V150.08H166.19V151.17H166.94V151.17H166.94V152.26H167.7V152.26H167.7V153.35H168.45V153.35H168.45V154.44H169.2V154.44H169.2V155.53H169.95V155.53H169.95V156.63H170.7V156.63H170.7V157.73H171.46V157.73H171.46V158.83H172.21V158.83H172.21V159.92H172.96V159.92H172.96V161.03H173.71V161.03H173.71V162.13H174.46V162.13H174.46V163.23H175.22V163.23H175.22V164.34H175.97V164.34H175.97V165.44H176.72V165.44H176.72V166.55H177.47V166.55H177.47V167.66H178.22V167.66H178.22V168.77H178.98V168.77H178.98V169.88H179.73V169.88H179.73V170.99H180.48V170.99H180.48V172.1H181.23V172.1H181.23V173.21H181.98V173.21H181.98V174.32H182.74V174.32H182.74V175.44H183.49V175.44H183.49V176.55H184.24V176.55H184.24V177.67H184.99V177.67H184.99V178.79H185.74V178.79H185.74V179.9H186.5V179.9H186.5V181.02H187.25V181.02H187.25V182.14H188V182.14H188V183.26H188.75V183.26H188.75V184.37H189.5V184.37H189.5V185.49H190.26V185.49H190.26V186.61H191.01V186.61H191.01V187.73H191.76V187.73H191.76V188.85H192.51V188.85H192.51V189.97H193.26V189.97H193.26V191.09H194.02V191.09H194.02V192.22H194.77V192.22H194.77V193.34H195.52V193.34H195.52V194.46H196.27V194.46H196.27V195.58H197.02V195.58H197.02V196.7H197.78V196.7H197.78V197.82H198.53V197.82H198.53V198.94H199.28V198.94H199.28V200.06H200.03V200.06H200.03V201.18H200.78V201.18H200.78V202.3H201.54V202.3H201.54V203.42H202.29V203.42H202.29V204.54H203.04V204.54H203.04V205.66H203.79V205.66H203.79V206.78H204.54V206.78H204.54V207.9H205.3V207.9H205.3V209.02H206.05V209.02H206.05V210.13H206.8V210.13H206.8V211.25H207.55V211.25H207.55V212.37H208.3V212.37H208.3V213.48H209.06V213.48H209.06V214.6H209.81V214.6H209.81V215.71H210.56V215.71H210.56V216.82H211.31V216.82H211.31V217.94H212.06V217.94H212.06V219.05H212.82V219.05H212.82V220.16H213.57V220.16H213.57V221.27H214.32V221.27H214.32V222.38H215.07V222.38H215.07V223.49H215.82V223.49H215.82V224.59H216.58V224.59H216.58V225.7H217.33V225.7H217.33V226.8H218.08V226.8H218.08V227.91H218.83V227.91H218.83V229.01H219.58V229.01H219.58V230.11H220.34V230.11H220.34V231.21H221.09V231.21H221.09V232.31H221.84V232.31H221.84V233.4H222.59V233.4H222.59V234.5H223.34V234.5H223.34V235.59H224.1V235.59H224.1V236.69H224.85V236.69H224.85V237.78H225.6V237.78H225.6V238.87H226.35V238.87H226.35V239.95H227.1V239.95H227.1V241.04H227.86V241.04H227.86V242.13H228.61V242.13H228.61V243.21H229.36V243.21H229.36V244.29H230.11V244.29H230.11V245.37H230.86V245.37H230.86V246.45H231.62V246.45H231.62V247.52H232.37V247.52H232.37V248.59H233.12V248.59H233.12V249.67H233.87V249.67H233.87V250.74H234.62V250.74H234.62V251.8H235.38V251.8H235.38V252.87H236.13V252.87H236.13V253.93H236.88V253.93H236.88V254.99H237.63V254.99H237.63V256.05H238.38V256.05H238.38V257.11H239.14V257.11H239.14V258.16H239.89V258.16H239.89V259.21H240.64V259.21H240.64V260.26H241.39V260.26H241.39V261.31H242.14V261.31H242.14V262.35H242.9V262.35H242.9V263.4H243.65V263.4H243.65V264.43H244.4V264.43H244.4V265.47H245.15V265.47H245.15V266.51H245.9V266.51H245.9V267.54H246.66V267.54H246.66V268.57H247.41V268.57H247.41V269.59H248.16V269.59H248.16V270.62H248.91V270.62H248.91V271.64H249.66V271.64H249.66V272.65H250.42V272.65H250.42V273.67H251.17V273.67H251.17V274.68H251.92V274.68H251.92V275.69H252.67V275.69H252.67V276.7H253.42V276.7H253.42V277.7H254.18V277.7H254.18V278.7H254.93V278.7H254.93V279.7H255.68V279.7H255.68V280.69H256.43V280.69H256.43V281.68H257.18V281.68H257.18V282.67H257.94V282.67H257.94V283.65H258.69V283.65H258.69V284.63H259.44V284.63H259.44V285.61H260.19V285.61H260.19V286.59H260.94V286.59H260.94V287.56H261.7V287.56H261.7V246.7H262.45V246.7H262.45V195H263.2V195H263.2V195H263.95V195H263.95V195H264.7V195H264.7V195H265.46V195H265.46V195H266.21V195H266.21V195H266.96V195H266.96V195H267.71V195H267.71V195H268.46V195H268.46V195H269.22V195H269.22V195H269.97V195H269.97V195H270.72V195H270.72V195H271.47V195H271.47V195H272.22V195H272.22V195H272.98V195H272.98V195H273.73V195H273.73V195H274.48V195H274.48V195H275.23V195H275.23V195H275.98V195H275.98V195H276.74V195H276.74V195H277.49V195H277.49V195H278.24V195H278.24V195H278.99V195H278.99V195H279.74V195H279.74V195H280.5V195H280.5V195H281.25V195H281.25V195H282V195H282V195H282.75V195H282.75V195H283.5V195H283.5V195H284.26V195H284.26V195H285.01V195H285.01V195H285.76V195H285.76V195H286.51V195H286.51V195H287.26V195H287.26V195H288.02V195H288.02V195H288.77V195H288.77V195H289.52V195H289.52V195H290.27V195H290.27V195H291.02V195H291.02V195H291.78V195H291.78V195H292.53V195H292.53V195H293.28V195H293.28V195H294.03V195H294.03V195H294.78V195H294.78V195H295.54V195H295.54V195H296.29V195H296.29V195H297.04V195H297.04V195H297.79V195H297.79V195H298.54V195H298.54V195H299.3V195H299.3V195H300.05V195H300.05V195H300.8V195H300.8V195H301.55V195H301.55V195H302.3V195H302.3V195H303.06V195H303.06V195H303.81V195H303.81V195H304.56V195H304.56V195H305.31V195H305.31V195H306.06V195H306.06V195H306.82V195H306.82V195H307.57V195H307.57V195H308.32V195H308.32V195H309.07V195H309.07V195H309.82V195H309.82V195H310.58V195H310.58V195H311.33V195H311.33V195H312.08V195H312.08V195H312.83V195H312.83V195H313.58V195H313.58V195H314.34V195H314.34V195H315.09V195H315.09V195H315.84V195H315.84V195H316.59V195H316.59V195H317.34V195H317.34V195H318.1V195H318.1V195H318.85V195H318.85V195H319.6V195H319.6V195H320.35V195H320.35V195H321.1V195H321.1V195H321.86V195H321.86V195H322.61V195H322.61V195H323.36V195H323.36V195H324.11V195H324.11V195H324.86V195H324.86V195H325.62V195H325.62V195H326.37V195H326.37V195H327.12V195H327.12V195H327.87V195H327.87V195H328.62V195H328.62V195H329.38V195H329.38V195H330.13V195H330.13V195H330.88V195H330.88V195H331.63V195H331.63V195H332.38V195H332.38V195H333.14V195H333.14V195H333.89V195H333.89V195H334.64V195H334.64V195H335.39V195H335.39V195H336.14V195H336.14V195H336.9V195H336.9V195H337.65V195H337.65V195H338.4V195H338.4V246.7H339.15V246.7H339.15V298.41H339.9V298.41H339.9V350.11H340.66V350.11H340.66V372.27H341.41V372.27H341.41V372.27H342.16V372.27H342.16V372.27H342.91V372.27H342.91V372.27H343.66V372.27H343.66V372.27H344.42V372.27H344.42V372.27H345.17V372.27H345.17V372.27H345.92V372.27H345.92V372.27H346.67V372.27H346.67V372.27H347.42V372.27H347.42V372.27H348.18V372.27H348.18V372.27H348.93V372.27H348.93V372.27H349.68V372.27H349.68V372.27H350.43V372.27H350.43V372.27H351.18V372.27H351.18V372.27H351.94V372.27H351.94V372.27H352.69V372.27H352.69V372.27H353.44V372.27H353.44V372.27H354.19V372.27H354.19V372.27H354.94V372.27H354.94V372.27H355.7V372.27H355.7V372.27H356.45V372.27H356.45V372.27H357.2V372.27H357.2V372.27H357.95V372.27H357.95V372.27H358.7V372.27H358.7V372.27H359.46V372.27H359.46V372.27H360.21V372.27H360.21V372.27H360.96V372.27H360.96V372.27H361.71V372.27H361.71V372.27H362.46V372.27H362.46V372.27H363.22V372.27H363.22V372.27H363.97V372.27H363.97V372.27H364.72V372.27H364.72V372.27H365.47V372.27H365.47V372.27H366.22V372.27H366.22V372.27H366.98V372.27H366.98V372.27H367.73V372.27H367.73V372.27H368.48V372.27H368.48V372.27H369.23V372.27H369.23V372.27H369.98V372.27H369.98V372.27H370.74V372.27H370.74V372.27H371.49V372.27H371.49V372.27H372.24V372.27H372.24V372.27H372.99V372.27H372.99V372.27H373.74V372.27H373.74V372.27H374.5V372.27H374.5V372.27H375.25V372.27H375.25V372.27H376V372.27H376V372.27H376.75V372.27H376.75V372.27H377.5V372.27H377.5V372.27H378.26V372.27H378.26V372.27H379.01V372.27H379.01V372.27H379.76V372.27H379.76V372.27H380.51V372.27H380.51V372.27H381.26V372.27H381.26V372.27H382.02V372.27H382.02V372.27H382.77V372.27H382.77V372.27H383.52V372.27H383.52V372.27H384.27V372.27H384.27V372.27H385.02V372.27H385.02V372.27H385.78V372.27H385.78V372.27H386.53V372.27H386.53V372.27H387.28V372.27H387.28V372.27H388.03V372.27H388.03V372.27H388.78V372.27H388.78V372.27H389.54V372.27H389.54V372.27H390.29V372.27H390.29V372.27H391.04V372.27H391.04V372.27H391.79V372.27H391.79V372.27H392.54V372.27H392.54V372.27H393.3V372.27H393.3V372.27H394.05V372.27H394.05V372.27H394.8V372.27H394.8V372.27H395.55V372.27H395.55V372.27H396.3V372.27H396.3V372.27H397.06V372.27H397.06V372.27H397.81V372.27H397.81V372.27H398.56V372.27H398.56V372.27H399.31V372.27H399.31V372.27H400.06V372.27H400.06V372.27H400.82V372.27H400.82V372.27H401.57V372.27H401.57V372.27H402.32V372.27H402.32V372.27H403.07V372.27H403.07V372.27H403.82V372.27H403.82V372.27H404.58V372.27H404.58V372.27H405.33V372.27H405.33V372.27H406.08V372.27H406.08V372.27H406.83V372.27H406.83V372.27H407.58V372.27H407.58V372.27H408.34V372.27H408.34V372.27H409.09V372.27H409.09V372.27H409.84V372.27H409.84V372.27H410.59V372.27H410.59V372.27H411.34V372.27H411.34V372.27H412.1V372.27H412.1V372.27H412.85V372.27H412.85V372.27H413.6V372.27H413.6V372.27H414.35V372.27H414.35V372.27H415.1V372.27H415.1V372.27H415.86V372.27H415.86V372.27H416.61V372.27H416.61V372.27H417.36V372.27H417.36V372.27H418.11V372.27H418.11V372.27H418.86V372.27H418.86V372.27H419.62V372.27H419.62V372.27H420.37V372.27H420.37V372.27H421.12V372.27H421.12V372.27H421.87V372.27H421.87V372.27H422.62V372.27H422.62V372.27H423.38V372.27H423.38V372.27H424.13V372.27H424.13V372.27H424.88V372.27H424.88V372.27H425.63V372.27H425.63V372.27H426.38V372.27H426.38V372.27H427.14V372.27H427.14V372.27H427.89V372.27H427.89V372.27H428.64V372.27H428.64V372.27H429.39V372.27H429.39V372.27H430.14V372.27H430.14V372.27H430.9V372.27H430.9V372.27H431.65V372.27H431.65V372.27H432.4V372.27H432.4V372.27H433.15V372.27H433.15V372.27H433.9V372.27H433.9V372.27H434.66V372.27H434.66V372.27H435.41V372.27H435.41V372.27H436.16V372.27H436.16V372.27H436.91V372.27H436.91V372.27H437.66V372.27H437.66V372.27H438.42V372.27H438.42V372.27H439.17V372.27H439.17V372.27H439.92V372.27H439.92V372.27H440.67V372.27H440.67V372.27H441.42V372.27H441.42V372.27H442.18V372.27H442.18V372.27H442.93V372.27H442.93V372.27H443.68V372.27H443.68V372.27H444.43V372.27H444.43V372.27H445.18V372.27H445.18V372.27H445.94V372.27H445.94V372.27H446.69V372.27H446.69V372.27H447.44V372.27H447.44V372.27H448.19V372.27H448.19V372.27H448.94V372.27H448.94V324.26H449.7V324.26H449.7V272.56H450.45V272.56H450.45V220.85H451.2V220.85" style="vector-effect: non-scaling-stroke; fill: none; stroke: rgb(31, 119, 180); stroke-opacity: 1; stroke-width: 2px; opacity: 1;"/></g><g class="points"/><g class="text"/></g></g></g><g class="overplot"><g class="xy2" transform="translate(50, 60)" clip-path="url('#clip5f9753xy2plot')"><g class="scatterlayer mlayer"><g class="trace scatter trace03faec" style="stroke-miterlimit: 2; opacity: 1;"><g class="fills"/><g class="errorbars"/><g class="lines"><path class="js-line" d="M0,195L1.5,194.39L1.5,194.39L2.26,193.64L57.9,117.71L57.9,117.71L58.66,116.74L78.21,92.65L78.21,92.65L78.96,91.77L97.01,71.9L97.01,71.9L97.76,71.13L113.55,55.97L113.55,55.97L114.3,55.31L130.1,42.54L130.1,42.54L130.85,41.99L144.38,33.12L144.38,33.12L145.14,32.68L157.92,26.19L157.92,26.19L158.67,25.87L170.7,21.5L170.7,21.5L171.46,21.29L181.98,18.91L181.98,18.91L182.74,18.79L193.26,17.78L193.26,17.78L194.02,17.76L205.3,18.2L205.3,18.2L206.05,18.28L217.33,20.3L217.33,20.3L218.08,20.48L230.86,24.63L230.86,24.63L231.62,24.93L244.4,31.01L244.4,31.01L245.15,31.42L257.94,39.35L257.94,39.35L258.69,39.87L263.2,42.31L263.2,42.31L263.95,42.31L339.15,42.61L339.15,42.61L339.9,43.22L346.67,52.43L346.67,52.43L347.42,53.47L450.45,194.85L450.45,194.85L451.2,195" style="vector-effect: non-scaling-stroke; fill: none; stroke: rgb(255, 127, 14); stroke-opacity: 1; stroke-width: 2px; opacity: 1; stroke-dasharray: 9px, 9px;"/></g><g class="points"/><g class="text"/></g></g></g><g class="xy3" transform="translate(50, 60)" clip-path="url('#clip5f9753xy3plot')"><g class="scatterlayer mlayer"><g class="trace scatter trace889b49" style="stroke-miterlimit: 2; opacity: 1;"><g class="fills"/><g class="errorbars"/><g class="lines"><path class="js-line" d="M0,195L18.05,194.26L18.05,194.26L18.8,194.19L35.34,192.14L35.34,192.14L36.1,192.01L54.14,188.37L54.14,188.37L54.9,188.19L77.46,182.03L77.46,182.03L78.21,181.8L113.55,170.2L113.55,170.2L114.3,169.94L149.65,159.04L149.65,159.04L150.4,158.84L170.7,154.44L170.7,154.44L171.46,154.32L185.74,152.59L185.74,152.59L186.5,152.54L200.78,152.27L200.78,152.27L201.54,152.29L215.82,153.73L215.82,153.73L216.58,153.86L229.36,156.78L229.36,156.78L230.11,157L242.14,161.3L242.14,161.3L242.9,161.62L254.93,167.53L254.93,167.53L255.68,167.95L263.2,171.81L263.2,171.81L263.95,171.81L339.15,172.15L339.15,172.15L339.9,172.84L345.92,182.16L345.92,182.16L346.67,183.36L372.99,226.86L372.99,226.86L373.74,228.15L394.8,265.32L394.8,265.32L395.55,266.68L423.38,319.01L423.38,319.01L424.13,320.48L450.45,372.05L450.45,372.05L451.2,372.27" style="vector-effect: non-scaling-stroke; fill: none; stroke: rgb(44, 160, 44); stroke-opacity: 1; stroke-width: 2px; opacity: 1; stroke-dasharray: 9px, 9px;"/></g><g class="points"/><g class="text"/></g></g></g><g class="xy4" transform="translate(50, 60)" clip-path="url('#clip5f9753xy4plot')"><g class="scatterlayer mlayer"><g class="trace scatter trace04eb3e" style="stroke-miterlimit: 2; opacity: 1;"><g class="fills"/><g class="errorbars"/><g class="lines"><path class="js-line" d="M0,195L60.91,194.26L60.91,194.26L61.66,194.23L103.02,191.88L103.02,191.88L103.78,191.82L188.75,185.36L188.75,185.36L189.5,185.34L212.82,185.77L212.82,185.77L213.57,185.82L230.86,187.72L230.86,187.72L231.62,187.84L246.66,190.94L246.66,190.94L247.41,191.14L264.7,195.75L264.7,195.75L265.46,195.75L339.15,196.01L339.15,196.01L339.9,196.52L346.67,204.53L346.67,204.53L347.42,205.45L364.72,227.79L364.72,227.79L365.47,228.81L383.52,254.59L383.52,254.59L384.27,255.72L403.07,285.39L403.07,285.39L403.82,286.64L420.37,315.25L420.37,315.25L421.12,316.6L440.67,353.57L440.67,353.57L441.42,355.06L450.45,372.05L450.45,372.05L451.2,372.27" style="vector-effect: non-scaling-stroke; fill: none; stroke: rgb(214, 39, 40); stroke-opacity: 1; stroke-width: 2px; opacity: 1; stroke-dasharray: 9px, 9px;"/></g><g class="points"/><g class="text"/></g></g></g></g><path class="xlines-above crisp" d="M0,0" style="fill: none;"/><path class="ylines-above crisp" d="M0,0" style="fill: none;"/><g class="overlines-above"><path class="xy2-x crisp" d="M0,0" style="fill: none;"/><path class="xy2-y crisp" d="M0,0" style="fill: none;"/><path class="xy3-x crisp" d="M0,0" style="fill: none;"/><path class="xy3-y crisp" d="M0,0" style="fill: none;"/><path class="xy4-x crisp" d="M0,0" style="fill: none;"/><path class="xy4-y crisp" d="M0,0" style="fill: none;"/></g><g class="xaxislayer-above"><g class="xtick"><text text-anchor="middle" x="0" y="463" transform="translate(50,0)" style="font-family: 'Open Sans', verdana, arial, sans-serif; font-size: 12px; fill: rgb(68, 68, 68); fill-opacity: 1; white-space: pre;">0</text></g><g class="xtick"><text text-anchor="middle" x="0" y="463" transform="translate(140.24,0)" style="font-family: 'Open Sans', verdana, arial, sans-serif; font-size: 12px; fill: rgb(68, 68, 68); fill-opacity: 1; white-space: pre;">20</text></g><g class="xtick"><text text-anchor="middle" x="0" y="463" transform="translate(230.48,0)" style="font-family: 'Open Sans', verdana, arial, sans-serif; font-size: 12px; fill: rgb(68, 68, 68); fill-opacity: 1; white-space: pre;">40</text></g><g class="xtick"><text text-anchor="middle" x="0" y="463" transform="translate(320.72,0)" style="font-family: 'Open Sans', verdana, arial, sans-serif; font-size: 12px; fill: rgb(68, 68, 68); fill-opacity: 1; white-space: pre;">60</text></g><g class="xtick"><text text-anchor="middle" x="0" y="463" transform="translate(410.96,0)" style="font-family: 'Open Sans', verdana, arial, sans-serif; font-size: 12px; fill: rgb(68, 68, 68); fill-opacity: 1; white-space: pre;">80</text></g><g class="xtick"><text text-anchor="middle" x="0" y="463" transform="translate(501.2,0)" style="font-family: 'Open Sans', verdana, arial, sans-serif; font-size: 12px; fill: rgb(68, 68, 68); fill-opacity: 1; white-space: pre;">100</text></g></g><g class="yaxislayer-above"><g class="ytick"><text text-anchor="end" x="49" y="4.199999999999999" transform="translate(0,432.27)" style="font-family: 'Open Sans', verdana, arial, sans-serif; font-size: 12px; fill: rgb(31, 119, 180); fill-opacity: 1; white-space: pre;">−30</text></g><g class="ytick"><text text-anchor="end" x="49" y="4.199999999999999" transform="translate(0,373.18)" style="font-family: 'Open Sans', verdana, arial, sans-serif; font-size: 12px; fill: rgb(31, 119, 180); fill-opacity: 1; white-space: pre;">−20</text></g><g class="ytick"><text text-anchor="end" x="49" y="4.199999999999999" transform="translate(0,314.09000000000003)" style="font-family: 'Open Sans', verdana, arial, sans-serif; font-size: 12px; fill: rgb(31, 119, 180); fill-opacity: 1; white-space: pre;">−10</text></g><g class="ytick"><text text-anchor="end" x="49" y="4.199999999999999" transform="translate(0,255)" style="font-family: 'Open Sans', verdana, arial, sans-serif; font-size: 12px; fill: rgb(31, 119, 180); fill-opacity: 1; white-space: pre;">0</text></g><g class="ytick"><text text-anchor="end" x="49" y="4.199999999999999" transform="translate(0,195.91)" style="font-family: 'Open Sans', verdana, arial, sans-serif; font-size: 12px; fill: rgb(31, 119, 180); fill-opacity: 1; white-space: pre;">10</text></g><g class="ytick"><text text-anchor="end" x="49" y="4.199999999999999" transform="translate(0,136.82)" style="font-family: 'Open Sans', verdana, arial, sans-serif; font-size: 12px; fill: rgb(31, 119, 180); fill-opacity: 1; white-space: pre;">20</text></g><g class="ytick"><text text-anchor="end" x="49" y="4.199999999999999" transform="translate(0,77.73)" style="font-family: 'Open Sans', verdana, arial, sans-serif; font-size: 12px; fill: rgb(31, 119, 180); fill-opacity: 1; white-space: pre;">30</text></g></g><g class="overaxes-above"><g class="xy2-x"/><g class="xy2-y"><g class="y2tick"><text text-anchor="start" x="502.20000000000005" y="4.199999999999999" transform="translate(0,421.12)" style="font-family: 'Open Sans', verdana, arial, sans-serif; font-size: 12px; fill: rgb(255, 127, 14); fill-opacity: 1; white-space: pre;">−800</text></g><g class="y2tick"><text text-anchor="start" x="502.20000000000005" y="4.199999999999999" transform="translate(0,379.59)" style="font-family: 'Open Sans', verdana, arial, sans-serif; font-size: 12px; fill: rgb(255, 127, 14); fill-opacity: 1; white-space: pre;">−600</text></g><g class="y2tick"><text text-anchor="start" x="502.20000000000005" y="4.199999999999999" transform="translate(0,338.06)" style="font-family: 'Open Sans', verdana, arial, sans-serif; font-size: 12px; fill: rgb(255, 127, 14); fill-opacity: 1; white-space: pre;">−400</text></g><g class="y2tick"><text text-anchor="start" x="502.20000000000005" y="4.199999999999999" transform="translate(0,296.53)" style="font-family: 'Open Sans', verdana, arial, sans-serif; font-size: 12px; fill: rgb(255, 127, 14); fill-opacity: 1; white-space: pre;">−200</text></g><g class="y2tick"><text text-anchor="start" x="502.20000000000005" y="4.199999999999999" transform="translate(0,255)" style="font-family: 'Open Sans', verdana, arial, sans-serif; font-size: 12px; fill: rgb(255, 127, 14); fill-opacity: 1; white-space: pre;">0</text></g><g class="y2tick"><text text-anchor="start" x="502.20000000000005" y="4.199999999999999" transform="translate(0,213.47)" style="font-family: 'Open Sans', verdana, arial, sans-serif; font-size: 12px; fill: rgb(255, 127, 14); fill-opacity: 1; white-space: pre;">200</text></g><g class="y2tick"><text text-anchor="start" x="502.20000000000005" y="4.199999999999999" transform="translate(0,171.94)" style="font-family: 'Open Sans', verdana, arial, sans-serif; font-size: 12px; fill: rgb(255, 127, 14); fill-opacity: 1; white-space: pre;">400</text></g><g class="y2tick"><text text-anchor="start" x="502.20000000000005" y="4.199999999999999" transform="translate(0,130.41)" style="font-family: 'Open Sans', verdana, arial, sans-serif; font-size: 12px; fill: rgb(255, 127, 14); fill-opacity: 1; white-space: pre;">600</text></g><g class="y2tick"><text text-anchor="start" x="502.20000000000005" y="4.199999999999999" transform="translate(0,88.88)" style="font-family: 'Open Sans', verdana, arial, sans-serif; font-size: 12px; fill: rgb(255, 127, 14); fill-opacity: 1; white-space: pre;">800</text></g></g><g class="xy3-x"/><g class="xy3-y"><g class="y3tick"><text text-anchor="start" x="539.8" y="4.199999999999999" transform="translate(0,442.02)" style="font-family: 'Open Sans', verdana, arial, sans-serif; font-size: 12px; fill: rgb(44, 160, 44); fill-opacity: 1; white-space: pre;">−30k</text></g><g class="y3tick"><text text-anchor="start" x="539.8" y="4.199999999999999" transform="translate(0,379.68)" style="font-family: 'Open Sans', verdana, arial, sans-serif; font-size: 12px; fill: rgb(44, 160, 44); fill-opacity: 1; white-space: pre;">−20k</text></g><g class="y3tick"><text text-anchor="start" x="539.8" y="4.199999999999999" transform="translate(0,317.34)" style="font-family: 'Open Sans', verdana, arial, sans-serif; font-size: 12px; fill: rgb(44, 160, 44); fill-opacity: 1; white-space: pre;">−10k</text></g><g class="y3tick"><text text-anchor="start" x="539.8" y="4.199999999999999" transform="translate(0,255)" style="font-family: 'Open Sans', verdana, arial, sans-serif; font-size: 12px; fill: rgb(44, 160, 44); fill-opacity: 1; white-space: pre;">0</text></g><g class="y3tick"><text text-anchor="start" x="539.8" y="4.199999999999999" transform="translate(0,192.66)" style="font-family: 'Open Sans', verdana, arial, sans-serif; font-size: 12px; fill: rgb(44, 160, 44); fill-opacity: 1; white-space: pre;">10k</text></g><g class="y3tick"><text text-anchor="start" x="539.8" y="4.199999999999999" transform="translate(0,130.32)" style="font-family: 'Open Sans', verdana, arial, sans-serif; font-size: 12px; fill: rgb(44, 160, 44); fill-opacity: 1; white-space: pre;">20k</text></g><g class="y3tick"><text text-anchor="start" x="539.8" y="4.199999999999999" transform="translate(0,67.98)" style="font-family: 'Open Sans', verdana, arial, sans-serif; font-size: 12px; fill: rgb(44, 160, 44); fill-opacity: 1; white-space: pre;">30k</text></g></g><g class="xy4-x"/><g class="xy4-y"><g class="y4tick"><text text-anchor="start" x="577.4" y="4.199999999999999" transform="translate(0,442.06)" style="font-family: 'Open Sans', verdana, arial, sans-serif; font-size: 12px; fill: rgb(214, 39, 40); fill-opacity: 1; white-space: pre;">−2M</text></g><g class="y4tick"><text text-anchor="start" x="577.4" y="4.199999999999999" transform="translate(0,395.3)" style="font-family: 'Open Sans', verdana, arial, sans-serif; font-size: 12px; fill: rgb(214, 39, 40); fill-opacity: 1; white-space: pre;">−1.5M</text></g><g class="y4tick"><text text-anchor="start" x="577.4" y="4.199999999999999" transform="translate(0,348.53)" style="font-family: 'Open Sans', verdana, arial, sans-serif; font-size: 12px; fill: rgb(214, 39, 40); fill-opacity: 1; white-space: pre;">−1M</text></g><g class="y4tick"><text text-anchor="start" x="577.4" y="4.199999999999999" transform="translate(0,301.77)" style="font-family: 'Open Sans', verdana, arial, sans-serif; font-size: 12px; fill: rgb(214, 39, 40); fill-opacity: 1; white-space: pre;">−0.5M</text></g><g class="y4tick"><text text-anchor="start" x="577.4" y="4.199999999999999" transform="translate(0,255)" style="font-family: 'Open Sans', verdana, arial, sans-serif; font-size: 12px; fill: rgb(214, 39, 40); fill-opacity: 1; white-space: pre;">0</text></g><g class="y4tick"><text text-anchor="start" x="577.4" y="4.199999999999999" transform="translate(0,208.23)" style="font-family: 'Open Sans', verdana, arial, sans-serif; font-size: 12px; fill: rgb(214, 39, 40); fill-opacity: 1; white-space: pre;">0.5M</text></g><g class="y4tick"><text text-anchor="start" x="577.4" y="4.199999999999999" transform="translate(0,161.47)" style="font-family: 'Open Sans', verdana, arial, sans-serif; font-size: 12px; fill: rgb(214, 39, 40); fill-opacity: 1; white-space: pre;">1M</text></g><g class="y4tick"><text text-anchor="start" x="577.4" y="4.199999999999999" transform="translate(0,114.7)" style="font-family: 'Open Sans', verdana, arial, sans-serif; font-size: 12px; fill: rgb(214, 39, 40); fill-opacity: 1; white-space: pre;">1.5M</text></g><g class="y4tick"><text text-anchor="start" x="577.4" y="4.199999999999999" transform="translate(0,67.94)" style="font-family: 'Open Sans', verdana, arial, sans-serif; font-size: 12px; fill: rgb(214, 39, 40); fill-opacity: 1; white-space: pre;">2M</text></g></g></g></g><g class="subplot xy2"/><g class="subplot xy3"/><g class="subplot xy4"/></g><g class="polarlayer"/><g class="ternarylayer"/><g class="geolayer"/><g class="funnelarealayer"/><g class="pielayer"/><g class="treemaplayer"/><g class="sunburstlayer"/><g class="glimages"/><defs id="topdefs-5f9753"><g class="clips"/><clipPath id="legend5f9753"><rect width="63" height="86" x="0" y="0"/></clipPath></defs><g class="layer-above"><g class="imagelayer"/><g class="shapelayer"/></g><g class="infolayer"><g class="legend" pointer-events="all" transform="translate(625.28, 60)"><rect class="bg" shape-rendering="crispEdges" style="stroke: rgb(68, 68, 68); stroke-opacity: 1; fill: rgb(255, 255, 255); fill-opacity: 1; stroke-width: 0px;" width="63" height="86" x="0" y="0"/><g class="scrollbox" transform="translate(0, 0)" clip-path="url('#legend5f9753')"><g class="groups"><g class="traces" transform="translate(0, 14.5)" style="opacity: 1;"><text class="legendtext user-select-none" text-anchor="start" x="40" y="4.680000000000001" style="font-family: 'Open Sans', verdana, arial, sans-serif; font-size: 12px; fill: rgb(68, 68, 68); fill-opacity: 1; white-space: pre;">Gx</text><g class="layers" style="opacity: 1;"><g class="legendfill"/><g class="legendlines"><path class="js-line" d="M5,0h30" style="fill: none; stroke: rgb(31, 119, 180); stroke-opacity: 1; stroke-width: 2px;"/></g><g class="legendsymbols"><g class="legendpoints"/></g></g><rect class="legendtoggle" pointer-events="all" x="0" y="-9.5" width="57.75" height="19" style="cursor: pointer; fill: rgb(0, 0, 0); fill-opacity: 0;"/></g><g class="traces" transform="translate(0, 33.5)" style="opacity: 1;"><text class="legendtext user-select-none" text-anchor="start" x="40" y="4.680000000000001" style="font-family: 'Open Sans', verdana, arial, sans-serif; font-size: 12px; fill: rgb(68, 68, 68); fill-opacity: 1; white-space: pre;">M0</text><g class="layers" style="opacity: 1;"><g class="legendfill"/><g class="legendlines"><path class="js-line" d="M5,0h30" style="fill: none; stroke: rgb(255, 127, 14); stroke-opacity: 1; stroke-dasharray: 9px, 9px; stroke-width: 2px;"/></g><g class="legendsymbols"><g class="legendpoints"/></g></g><rect class="legendtoggle" pointer-events="all" x="0" y="-9.5" width="57.75" height="19" style="cursor: pointer; fill: rgb(0, 0, 0); fill-opacity: 0;"/></g><g class="traces" transform="translate(0, 52.5)" style="opacity: 1;"><text class="legendtext user-select-none" text-anchor="start" x="40" y="4.680000000000001" style="font-family: 'Open Sans', verdana, arial, sans-serif; font-size: 12px; fill: rgb(68, 68, 68); fill-opacity: 1; white-space: pre;">M1</text><g class="layers" style="opacity: 1;"><g class="legendfill"/><g class="legendlines"><path class="js-line" d="M5,0h30" style="fill: none; stroke: rgb(44, 160, 44); stroke-opacity: 1; stroke-dasharray: 9px, 9px; stroke-width: 2px;"/></g><g class="legendsymbols"><g class="legendpoints"/></g></g><rect class="legendtoggle" pointer-events="all" x="0" y="-9.5" width="57.75" height="19" style="cursor: pointer; fill: rgb(0, 0, 0); fill-opacity: 0;"/></g><g class="traces" transform="translate(0, 71.5)" style="opacity: 1;"><text class="legendtext user-select-none" text-anchor="start" x="40" y="4.680000000000001" style="font-family: 'Open Sans', verdana, arial, sans-serif; font-size: 12px; fill: rgb(68, 68, 68); fill-opacity: 1; white-space: pre;">M2</text><g class="layers" style="opacity: 1;"><g class="legendfill"/><g class="legendlines"><path class="js-line" d="M5,0h30" style="fill: none; stroke: rgb(214, 39, 40); stroke-opacity: 1; stroke-dasharray: 9px, 9px; stroke-width: 2px;"/></g><g class="legendsymbols"><g class="legendpoints"/></g></g><rect class="legendtoggle" pointer-events="all" x="0" y="-9.5" width="57.75" height="19" style="cursor: pointer; fill: rgb(0, 0, 0); fill-opacity: 0;"/></g></g></g><rect class="scrollbar" rx="20" ry="3" width="0" height="0" style="fill: rgb(128, 139, 164); fill-opacity: 1;" x="0" y="0"/></g><g class="g-gtitle"><text class="gtitle" x="350" y="30" text-anchor="middle" dy="0em" style="font-family: 'Open Sans', verdana, arial, sans-serif; font-size: 17px; fill: rgb(68, 68, 68); opacity: 1; font-weight: normal; white-space: pre;">Maxwell,M0-compensated, b=2783.5 s/mm2</text></g><g class="g-xtitle" transform="translate(0,-5)"><text class="xtitle" x="275.6" y="502" text-anchor="middle" style="font-family: 'Open Sans', verdana, arial, sans-serif; font-size: 14px; fill: rgb(68, 68, 68); opacity: 1; font-weight: normal; white-space: pre;">t [ms]</text></g><g class="g-ytitle" transform="translate(2,0)"><text class="ytitle" transform="rotate(-90,12,255)" x="12" y="255" text-anchor="middle" style="font-family: 'Open Sans', verdana, arial, sans-serif; font-size: 14px; fill: rgb(31, 119, 180); opacity: 1; font-weight: normal; white-space: pre;">[mT/m]</text></g><g class="g-y2title" transform="translate(4.7216796875,0)"><text class="y2title" transform="rotate(-90,546.2,255)" x="546.2" y="255" text-anchor="middle" style="font-family: 'Open Sans', verdana, arial, sans-serif; font-size: 14px; fill: rgb(255, 127, 14); opacity: 1; font-weight: normal; white-space: pre;">[mT/m⋅ms]</text></g><g class="g-y3title"><text class="y3title" transform="rotate(-90,583.8,255)" x="583.8" y="255" text-anchor="middle" style="font-family: 'Open Sans', verdana, arial, sans-serif; font-size: 14px; fill: rgb(44, 160, 44); opacity: 1; font-weight: normal; white-space: pre;">[mT/m⋅ms²]</text></g><g class="g-y4title" transform="translate(11.568359375,0)"><text class="y4title" transform="rotate(-90,621.4,255)" x="621.4" y="255" text-anchor="middle" style="font-family: 'Open Sans', verdana, arial, sans-serif; font-size: 14px; fill: rgb(214, 39, 40); opacity: 1; font-weight: normal; white-space: pre;">[mT/m⋅ms³]</text></g></g></svg>