<?xml version="1.0" encoding="utf-8"?>
<!-- Generator: Adobe Illustrator 22.1.0, SVG Export Plug-In . SVG Version: 6.00 Build 0)  -->
<svg version="1.1" id="Ebene_1" xmlns="http://www.w3.org/2000/svg" xmlns:xlink="http://www.w3.org/1999/xlink" x="0px" y="0px"
	 viewBox="0 0 770.1 770" style="enable-background:new 0 0 770.1 770;" xml:space="preserve">
<style type="text/css">
	.st0{clip-path:url(#SVGID_2_);fill:#3A97D3;}
	.st1{clip-path:url(#SVGID_2_);fill:#37536C;}
	.st2{clip-path:url(#SVGID_2_);fill:#3895D2;}
</style>
<g>
	<defs>
		<rect id="SVGID_1_" width="770.1" height="770"/>
	</defs>
	<clipPath id="SVGID_2_">
		<use xlink:href="#SVGID_1_"  style="overflow:visible;"/>
	</clipPath>
	<path class="st0" d="M411.3,295.8c7.1,2,15.9,6.1,23.6,10.8c4.7,3,10.1,6.7,15.2,11.8c20.6,21.3,27.7,44.2,27.7,66.5
		c0,8.8-1.7,17.2-4,26.3c-2,7.1-5.7,16.2-10.8,23.6c-2.7,3.4-5.1,7.4-8.1,11.1c-4.3,4.8-8.8,8.9-13.4,12.5l17.2,21.7l11,14.2
		c1.5-1.1,3-2.3,4.4-3.5c26-22.3,38.5-47.9,44.5-70.9c2-7.8,4.7-26,4.7-35.1c0-55-35.1-118.8-110-135.6c-6.4-1.3-12.8-1.7-19.6-2.4
		h-17.9c-10.1,0.7-19.6,2.4-29.3,5.1c-18.2,5.4-37.1,14.5-54.3,30.4c-22.9,20.6-33.1,41.8-39.8,63.1c-3,9.4-4.7,20.2-5.4,29.7v19.6
		c0,0.7,1,12.8,2.4,18.9c0.7,3.4,2,6.7,2.7,9.8c4,16.5,13.2,34.1,26.6,50.3c6.1,7.5,13.2,14,20.2,19.5l10-13l18.1-22.8
		c-14-11-25.5-26.7-31.5-47.1c-0.3-1.3-1-3-1.3-4.4c-1-5.4-2-15.5-2-16.2v-9.4c0.3-4.7,1-9.8,1.7-14.5c12.8-51.6,54-73.6,91.1-73.6
		C393.8,292.1,402.2,293.5,411.3,295.8"/>
	<path class="st1" d="M423.7,715c58.6-5.9,140.4-37.2,196.4-95c61.5-64.2,86.5-129.6,94.6-194.1l-45.1-5.5
		c-7.1,55.7-28.3,112.6-81.9,167.6c-27.7,28-56,45.5-84,58c-28,12.7-57.2,20.6-85.6,23.8L423.7,715z M55.2,425.6
		c6.1,57.6,38.3,139.9,95.1,194.4c63.9,61.3,128.9,86.3,193.1,94.6l5.5-45.2c-55.7-7.3-111.1-28.3-166.2-81.4
		c-49.6-47.9-76.9-117.1-82-166l-0.2-1.9L55.2,425.6z M343.5,55c-63.4,8.1-139,38.8-192.9,94.7c-62.8,64.9-87.4,130.9-95.3,196.1
		l45.2,5.5c6.8-56.4,27.9-113.8,82.2-169.6c5.1-5.4,11.1-10.8,16.5-15.2c48.9-41.2,99.8-59.7,149.1-66.1l0.8-0.1L343.5,55z
		 M419.4,100.1c55.3,7.1,112.7,27.7,168.3,82c30,29.4,48.2,60.7,61,90.4c5.1,11.1,9.1,22.9,12.1,34.4c2.7,8.8,4.7,18.6,6.4,28
		c0.2,0.2,1.3,7.8,2.3,16.1l45.2-5.5l0-0.1c-5.4-57-37.4-140.4-94.8-195.3C554.4,87,489,63.1,423.8,55.2l-5.5,44.8L419.4,100.1z"/>
	<path class="st1" d="M559.5,303.6c6.9,15.5,13.1,34.1,16.2,54.9c6.7,46.8-5.5,87.6-21.2,117.6c-3.8,7.2-8.1,13.8-12.6,20.3
		c-1.5,2.2-3.6,5.1-5.8,7.9l35.8,28c2.3-2.9,4.4-5.8,6-7.9c9.5-12.9,17.6-27.2,24.6-42.7c13.8-31,22.9-68.2,20-113.6
		c-2.9-41.5-15.3-74-31.2-101.9c-5.8-10.4-12.4-19.8-19.7-28.8l-35.8,28.1C545.1,277.7,555.8,295.4,559.5,303.6"/>
	<path class="st1" d="M530.7,196.8c-14.4-11.2-30.2-20.6-47.3-28.5c-6.7-2.9-13.8-6.2-20.7-8.3c-6.7-2.4-13.6-4.1-19.6-5.7
		c-61.3-16.9-132.6-1.4-173.6,22.9c-11,6.6-21.8,13.5-31.8,21.2l28.1,35.9c29.8-23.6,67.6-40.7,119.4-41.6c41-1,83.7,16,106.6,32.2
		c1.6,1.1,6.1,4.4,10.8,7.9L530.7,196.8z"/>
	<path class="st1" d="M197.7,238.9c-4.9,6.4-9.7,13-11,14.9c-4.3,6.7-8.6,13.8-12.4,21c-3.8,7.2-7.2,14.8-10.3,22.2
		c-11.9,29.6-19.6,65.8-15.7,108.3c3.3,39.6,15.5,71.3,31,98.8c5.3,9.5,11.3,18,17.7,26.3l35.9-28.1c-5.1-6.8-10-13.8-14.1-20.6
		c-20.5-33.4-34.6-92.3-20.3-143.9c1.9-6.2,3.6-12.6,5.5-17.9c2.6-6.4,5.2-13.4,8.3-19.8c3.6-6.9,7.4-13.6,11.4-20
		c1.3-1.8,5.7-7.6,9.8-13L197.7,238.9z"/>
	<path class="st2" d="M530.7,572.6c-14.4,11.2-30.2,20.6-47.3,28.5c-6.7,2.9-13.8,6.2-20.7,8.4c-6.7,2.4-13.6,4.1-19.6,5.7
		c-61.3,16.9-132.6,1.4-173.6-22.9c-11-6.6-21.8-13.5-31.8-21.2l28.1-35.9c29.8,23.6,67.6,40.7,119.4,41.6c41,1,83.7-16,106.6-32.2
		c1.6-1.1,6.1-4.4,10.8-7.9L530.7,572.6z"/>
</g>
</svg>
