<?xml version="1.0" encoding="UTF-8" standalone="no"?>
<svg
   xmlns:dc="http://purl.org/dc/elements/1.1/"
   xmlns:cc="http://creativecommons.org/ns#"
   xmlns:rdf="http://www.w3.org/1999/02/22-rdf-syntax-ns#"
   xmlns:svg="http://www.w3.org/2000/svg"
   xmlns="http://www.w3.org/2000/svg"
   xmlns:sodipodi="http://sodipodi.sourceforge.net/DTD/sodipodi-0.dtd"
   xmlns:inkscape="http://www.inkscape.org/namespaces/inkscape"
   version="1.1"
   id="svg2"
   xml:space="preserve"
   width="510.75763"
   height="195.95557"
   viewBox="0 0 510.75763 195.95556"
   sodipodi:docname="Logo.svg"
   inkscape:version="1.0.1 (3bc2e813f5, 2020-09-07)"><metadata
     id="metadata23"><rdf:RDF><cc:Work
         rdf:about=""><dc:format>image/svg+xml</dc:format><dc:type
           rdf:resource="http://purl.org/dc/dcmitype/StillImage" /></cc:Work></rdf:RDF></metadata><defs
     id="defs6"><clipPath
       clipPathUnits="userSpaceOnUse"
       id="clipPath224130"><rect
         style="fill:#ff0000;stroke-width:5.66931;stroke-linecap:round;stroke-linejoin:round;paint-order:stroke fill markers"
         id="rect224132"
         width="145.04514"
         height="153.82352"
         x="-196.94046"
         y="-660.78693"
         rx="60"
         ry="60" /></clipPath><clipPath
       clipPathUnits="userSpaceOnUse"
       id="clipPath2667"><rect
         style="opacity:1;fill:#ff0000;stroke-width:7.55906;stroke-linecap:round;stroke-linejoin:round;paint-order:stroke fill markers"
         id="rect2669"
         width="408.03406"
         height="674.78699"
         x="260.37881"
         y="-186.63046" /></clipPath></defs><sodipodi:namedview
     id="namedview4"
     pagecolor="#ffffff"
     bordercolor="#666666"
     borderopacity="1.0"
     inkscape:pageshadow="2"
     inkscape:pageopacity="0.0"
     inkscape:pagecheckerboard="0"
     showgrid="false"
     inkscape:zoom="1.2152804"
     inkscape:cx="148.93682"
     inkscape:cy="60.891297"
     inkscape:window-width="1920"
     inkscape:window-height="1001"
     inkscape:window-x="-9"
     inkscape:window-y="-9"
     inkscape:window-maximized="1"
     inkscape:current-layer="g10"
     showguides="true"
     inkscape:guide-bbox="true"
     inkscape:document-rotation="0"><sodipodi:guide
       position="20.337812,1238.2453"
       orientation="0,-1"
       id="guide223520" /><sodipodi:guide
       position="20.337812,1238.2453"
       orientation="1,0"
       id="guide223522" /></sodipodi:namedview><g
     id="g8"
     inkscape:groupmode="layer"
     inkscape:label="LogoKoma4"
     transform="matrix(1.3333333,0,0,1.3333333,7.5627534,4.4587325)"><g
       id="g10"><g
         aria-label="Koma"
         id="text146786"
         style="font-size:149.149px;line-height:1.25;font-family:'Croog Pro';-inkscape-font-specification:'Croog Pro';fill:#4b4b4b;stroke-width:0.75"><path
           d="M 1.4649476,95.70021 V 11.439763 q -2.9858931,0 -5.0978663,-1.9663201 -2.0391465,-2.0391465 -2.0391465,-4.8793863 0,-2.9130664 2.0391465,-4.95221293 2.1119732,-2.11197317 5.0978663,-2.11197317 h 7.1370128 q 2.8402396,0 5.0250396,2.11197317 2.1848,2.03914653 2.1848,4.95221293 V 45.595467 L 59.65345,-1.5233829 q 1.820666,-1.8206665 4.58808,-1.8206665 2.913066,0 4.952212,2.0391465 2.111974,2.03914649 2.111974,4.9522129 0,2.8402398 -1.96632,4.8065597 L 31.178225,47.998747 68.465476,88.126237 h 2.40328 q 2.985893,0 5.025039,2.039147 2.111973,1.966319 2.111973,4.806559 0,2.913067 -2.111973,4.952213 -2.039146,2.039144 -5.025039,2.039144 h -5.389173 q -3.422853,0 -5.826133,-2.694584 L 15.8118,51.130293 V 95.70021 q 0,2.985893 -2.111973,5.09787 -2.111974,2.03914 -5.0978666,2.03914 -2.9858931,0 -5.0978663,-2.03914 -2.0391465,-2.111977 -2.0391465,-5.09787 z"
           id="path8032" /><path
           d="m 151.99765,37.438881 q 11.14248,10.923999 11.14248,27.237171 0,16.313172 -11.14248,27.237171 -11.06965,10.923997 -27.16434,10.923997 -10.55987,0 -19.37189,-4.879384 -8.739203,-4.952213 -13.909896,-13.691412 -5.097866,-8.812026 -5.097866,-19.590372 0,-10.778346 5.097866,-19.517545 5.170693,-8.812026 13.909896,-13.691412 8.81202,-4.952213 19.37189,-4.952213 16.09469,0 27.16434,10.923999 z m -9.46746,46.24493 q 7.06418,-7.6468 7.06418,-19.007759 0,-11.360959 -7.06418,-18.934932 -6.99136,-7.646799 -17.69688,-7.646799 -10.70552,0 -17.76971,7.646799 -6.99136,7.573973 -6.99136,18.934932 0,11.360959 6.99136,19.007759 7.06419,7.573972 17.76971,7.573972 10.70552,0 17.69688,-7.573972 z"
           id="path8034" /><path
           d="m 244.26903,54.553146 v 41.43837 q 0,2.913067 -1.96632,4.879384 -1.96632,1.96632 -4.73373,1.96632 -2.84024,0 -5.02504,-1.96632 -2.1848,-2.039144 -2.1848,-4.879384 V 55.572719 q 0,-8.666372 -3.78699,-12.744665 -3.71416,-4.078293 -10.05007,-4.078293 -2.69459,0 -5.38918,0.87392 -2.69458,0.801093 -4.58808,2.039146 -1.89349,1.238053 -3.42285,2.476107 -1.45653,1.238053 -2.25763,2.039146 l -0.72826,0.87392 v 48.939516 q 0,2.913067 -1.96632,4.879384 -1.96632,1.96632 -4.80656,1.96632 -2.84024,0 -5.09787,-1.96632 -2.1848,-2.039144 -2.1848,-4.879384 V 39.332374 h -0.58261 q -2.47611,0 -4.22395,-1.74784 -1.74784,-1.74784 -1.74784,-4.223946 0,-2.476107 1.74784,-4.223947 1.74784,-1.747839 4.22395,-1.747839 h 7.86528 q 2.54893,0 4.44242,2.039146 1.96632,1.96632 1.96632,4.80656 0.29131,-0.291307 0.87392,-0.801094 0.65544,-0.582613 2.62176,-1.893493 1.96632,-1.31088 4.0783,-2.330453 2.1848,-1.019573 5.462,-1.820666 3.2772,-0.87392 6.55439,-0.87392 5.462,0 10.85118,2.403279 5.38917,2.40328 8.52072,6.5544 0.36413,-0.364133 1.01957,-0.946747 0.65544,-0.65544 2.91307,-2.184799 2.33045,-1.52936 4.73373,-2.694587 2.47611,-1.165227 6.19027,-2.111973 3.78698,-1.019573 7.6468,-1.019573 4.73373,0 9.24898,1.74784 4.51525,1.675013 8.37507,4.952212 3.85981,3.2772 6.19026,8.812026 2.33046,5.534827 2.33046,12.526186 V 90.01973 h 0.58261 q 2.47611,0 4.22395,1.74784 1.74784,1.74784 1.74784,4.223946 0,2.476107 -1.74784,4.223944 -1.74784,1.74784 -4.22395,1.74784 h -8.08376 q -2.47611,0 -4.44243,-1.74784 -1.96632,-1.820664 -1.96632,-4.223944 V 55.572719 q 0,-8.447892 -4.07829,-12.599012 -4.00547,-4.223946 -9.61312,-4.223946 -4.73373,0 -9.0305,2.476106 -4.22395,2.40328 -7.06419,5.534826 v 0.21848 q 0.0728,0.21848 0.0728,0.728267 0.0728,0.43696 0.14565,1.0924 0.0728,0.582613 0.14565,1.31088 0.0728,0.728266 0.0728,1.52936 0.0728,0.728266 0.0728,1.52936 0.0728,0.728266 0.0728,1.383706 z"
           id="path8036" /><path
           d="M 358.02427,79.168558 V 64.821705 q -6.5544,0.509787 -12.23488,1.52936 -5.68048,0.946747 -11.28813,2.767413 -5.53483,1.820667 -8.81203,4.879387 -3.2772,3.058719 -3.2772,7.064186 0,4.660906 3.64134,7.428319 3.71416,2.767413 8.88485,2.767413 7.28267,0 14.27402,-4.005466 7.06419,-4.078293 8.81203,-8.083759 z M 341.20131,26.514882 q 4.80656,0 8.95768,0.87392 4.22395,0.87392 8.08376,2.985893 3.85981,2.039146 6.5544,5.243519 2.76741,3.131547 4.3696,8.010933 1.67501,4.879386 1.67501,11.069653 v 35.32093 h 0.65544 q 2.47611,0 4.15112,1.74784 1.74784,1.74784 1.74784,4.223946 0,2.476107 -1.89349,4.223944 -1.89349,1.74784 -4.80656,1.74784 h -4.15112 q -3.2772,0 -5.31635,-1.67501 -2.03914,-1.675014 -2.4761,-4.296774 l -0.72827,-4.296773 q -3.64133,4.442427 -10.26856,7.792453 -6.5544,3.350024 -13.90989,3.350024 -11.50661,0 -18.27949,-6.26309 -6.77288,-6.33592 -6.77288,-14.929466 0,-4.442426 1.82066,-8.229413 1.82067,-3.786986 4.73374,-6.408746 2.91306,-2.694586 7.13701,-4.806559 4.29677,-2.111974 8.52072,-3.422853 4.29677,-1.31088 9.39464,-2.257627 5.17069,-0.946747 9.17616,-1.383707 4.00546,-0.436959 8.44789,-0.728266 v -3.568507 q 0,-6.481572 -5.31635,-9.831599 -5.24351,-3.350026 -13.32727,-3.350026 -3.56851,0 -6.62723,0.582613 -3.05872,0.582613 -4.3696,1.165227 -1.31088,0.509786 -3.56851,1.52936 v 3.277199 q 0,2.476107 -1.82066,4.223947 -1.82067,1.74784 -4.29678,1.74784 -2.4761,0 -4.29677,-1.74784 -1.82067,-1.74784 -1.82067,-4.223947 v -6.554399 q 0,-3.641333 2.9859,-5.462 3.64133,-2.257626 10.924,-3.932639 7.35549,-1.74784 14.71098,-1.74784 z"
           id="path8038" /></g><g
         id="g238832"
         transform="matrix(0.26277212,0,0,0.26277212,158.76855,197.61443)"
         style="stroke-width:3.80558"><path
           style="fill:#929292;stroke-width:3.80557"
           d="m -145.11491,-205.8289 c -58.73652,-3.62359 -102.16196,-24.40982 -109.17417,-52.25785 -0.77202,-3.06595 -0.68423,-3.80115 0.82659,-6.92209 2.90499,-6.00089 12.44044,-11.00738 25.01735,-13.13508 7.67846,-1.29901 22.81692,-0.50281 29.21845,1.53673 9.08676,2.89507 15.48678,8.07474 15.48678,12.53378 0,2.69741 3.85536,9.21149 7.18805,12.14504 6.80639,5.99123 19.05178,10.92557 33.19498,13.37606 9.94365,1.72287 30.94527,1.70366 40.61697,-0.0371 29.227665,-5.26069 47.476505,-18.62892 45.464875,-33.30538 -1.90006,-13.86244 -20.10429,-25.49622 -49.087185,-31.37018 -9.75336,-1.97671 -11.87292,-2.82791 -12.57868,-5.05155 -1.22356,-3.85511 5.84073,-6.18467 16.40358,-5.40934 22.858155,1.67782 44.298965,7.07901 60.147095,15.15177 20.24924,10.31459 30.52978,23.77208 29.47046,38.57754 -1.22805,17.16364 -21.02735,34.18371 -51.31188,44.10922 -23.81079,7.8038 -54.854095,11.66429 -80.883265,10.05848 z"
           id="path223542-7" /><path
           style="fill:#4b4b4b;stroke-width:3.80557;fill-opacity:1"
           d="m -225.19924,-308.63996 c -3.20887,-24.23422 -5.82324,-45.07472 -5.80969,-46.31222 0.0326,-2.97869 2.42268,-6.7781 5.1516,-8.18928 1.2094,-0.6254 4.82087,-1.57444 8.02549,-2.10898 l 5.82659,-0.97187 14.88279,-40.48993 c 8.18553,-22.26947 20.09028,-54.66494 26.45499,-71.98994 6.36471,-17.325 15.10587,-41.11875 19.42477,-52.875 4.31891,-11.75625 11.63117,-31.66875 16.24946,-44.25 4.6183,-12.58125 10.69413,-29.11875 13.50184,-36.75 2.80771,-7.63125 8.20207,-22.3125 11.98746,-32.625 3.78539,-10.3125 10.103865,-27.525 14.041065,-38.25 3.9372,-10.725 7.49561,-19.92187 7.90758,-20.4375 1.57857,-1.97575 11.88842,-0.72086 23.44038,2.85309 16.05432,4.96691 34.125,14.7056 34.125,18.39074 0,0.56426 -1.88753,6.01367 -4.19451,12.1098 -5.04107,13.3209 -38.88495,102.26463 -51.30549,134.83387 -4.87662,12.7875 -17.533435,46.03125 -28.126265,73.875 -10.59284,27.84375 -24.79785,65.16889 -31.56671,82.94475 -6.76887,17.77586 -12.30702,32.57407 -12.30702,32.88491 0,0.31084 1.39546,2.1357 3.10104,4.05525 3.36256,3.78443 5.85632,8.51215 5.88249,11.15214 0.0399,4.02841 -3.19114,7.27323 -36.05249,36.20606 -18.50182,16.28995 -33.90211,29.70546 -34.22286,29.81222 -0.32075,0.10676 -3.20863,-19.63388 -6.41751,-43.86811 z"
           id="path223742-1" /><ellipse
           style="fill:#2a7fb8;fill-opacity:1;stroke-width:21.575;stroke-linecap:round;stroke-linejoin:round;paint-order:stroke fill markers"
           id="path230132-3"
           cx="-128.42206"
           cy="-506.47913"
           rx="149.95312"
           ry="149.95314" /><path
           style="fill:#4b4b4b;fill-opacity:1;stroke-width:3.80557"
           d="m -68.019205,-630.33486 c -14.80005,-3.74759 -31.92138,-11.9359 -37.490275,-17.92978 l -1.8511,-1.99239 1.37569,-3.9025 c 5.37867,-15.25806 18.022495,-49.07389 18.635305,-49.84001 0.92467,-1.15602 6.65456,-1.21301 11.9668,-0.11901 18.71998,3.85515 45.59942,16.47057 45.59942,21.40132 0,1.46299 -19.31583,52.02958 -20.35124,53.27717 -1.30204,1.56888 -9.84251,1.14158 -17.8846,-0.8948 z"
           id="path224154-1"
           sodipodi:nodetypes="sscssssss" /></g></g></g></svg>
