<?xml version="1.0" encoding="UTF-8" standalone="no"?>
<!-- Created with Inkscape (http://www.inkscape.org/) -->

<svg
   xmlns:dc="http://purl.org/dc/elements/1.1/"
   xmlns:cc="http://creativecommons.org/ns#"
   xmlns:rdf="http://www.w3.org/1999/02/22-rdf-syntax-ns#"
   xmlns:svg="http://www.w3.org/2000/svg"
   xmlns="http://www.w3.org/2000/svg"
   xmlns:sodipodi="http://sodipodi.sourceforge.net/DTD/sodipodi-0.dtd"
   xmlns:inkscape="http://www.inkscape.org/namespaces/inkscape"
   width="133.9841mm"
   height="84.065598mm"
   viewBox="0 0 133.9841 84.065598"
   version="1.1"
   id="svg8"
   inkscape:version="0.92.3 (2405546, 2018-03-11)"
   sodipodi:docname="Logo_SpinLab.svg"
   inkscape:export-filename="/home/ccp/bitmap.png"
   inkscape:export-xdpi="100"
   inkscape:export-ydpi="100">
  <defs
     id="defs2">
    <marker
       inkscape:isstock="true"
       style="overflow:visible"
       id="marker4020"
       refX="0"
       refY="0"
       orient="auto"
       inkscape:stockid="TriangleOutS">
      <path
         transform="scale(0.2)"
         style="fill:#c93c32;fill-opacity:1;fill-rule:evenodd;stroke:#c93c32;stroke-width:1.00000003pt;stroke-opacity:1"
         d="M 5.77,0 -2.88,5 V -5 Z"
         id="path4018"
         inkscape:connector-curvature="0" />
    </marker>
    <marker
       inkscape:isstock="true"
       style="overflow:visible"
       id="marker3944"
       refX="0"
       refY="0"
       orient="auto"
       inkscape:stockid="TriangleOutS">
      <path
         transform="scale(0.2)"
         style="fill:#9158a2;fill-opacity:1;fill-rule:evenodd;stroke:#9158a2;stroke-width:1.00000003pt;stroke-opacity:1"
         d="M 5.77,0 -2.88,5 V -5 Z"
         id="path3942"
         inkscape:connector-curvature="0" />
    </marker>
    <marker
       inkscape:stockid="Arrow1Send"
       orient="auto"
       refY="0"
       refX="0"
       id="marker3788"
       style="overflow:visible"
       inkscape:isstock="true">
      <path
         id="path3786"
         d="M 0,0 5,-5 -12.5,0 5,5 Z"
         style="fill:#9158a2;fill-opacity:1;fill-rule:evenodd;stroke:#9158a2;stroke-width:1.00000003pt;stroke-opacity:1"
         transform="matrix(-0.2,0,0,-0.2,-1.2,0)"
         inkscape:connector-curvature="0" />
    </marker>
    <marker
       inkscape:stockid="Arrow1Send"
       orient="auto"
       refY="0"
       refX="0"
       id="marker3718"
       style="overflow:visible"
       inkscape:isstock="true">
      <path
         id="path3716"
         d="M 0,0 5,-5 -12.5,0 5,5 Z"
         style="fill:#399646;fill-opacity:1;fill-rule:evenodd;stroke:#399646;stroke-width:1.00000003pt;stroke-opacity:1"
         transform="matrix(-0.2,0,0,-0.2,-1.2,0)"
         inkscape:connector-curvature="0" />
    </marker>
    <marker
       inkscape:isstock="true"
       style="overflow:visible"
       id="marker3340"
       refX="0"
       refY="0"
       orient="auto"
       inkscape:stockid="Arrow1Send">
      <path
         transform="matrix(-0.2,0,0,-0.2,-1.2,0)"
         style="fill:#c93c32;fill-opacity:1;fill-rule:evenodd;stroke:#c93c32;stroke-width:1.00000003pt;stroke-opacity:1"
         d="M 0,0 5,-5 -12.5,0 5,5 Z"
         id="path3338"
         inkscape:connector-curvature="0" />
    </marker>
    <marker
       inkscape:isstock="true"
       style="overflow:visible"
       id="marker3218"
       refX="0"
       refY="0"
       orient="auto"
       inkscape:stockid="Arrow1Send">
      <path
         transform="matrix(-0.2,0,0,-0.2,-1.2,0)"
         style="fill:#9158a2;fill-opacity:1;fill-rule:evenodd;stroke:#9158a2;stroke-width:1.00000003pt;stroke-opacity:1"
         d="M 0,0 5,-5 -12.5,0 5,5 Z"
         id="path3216"
         inkscape:connector-curvature="0" />
    </marker>
    <marker
       inkscape:isstock="true"
       style="overflow:visible"
       id="marker3172"
       refX="0"
       refY="0"
       orient="auto"
       inkscape:stockid="Arrow1Send">
      <path
         transform="matrix(-0.2,0,0,-0.2,-1.2,0)"
         style="fill:#c93c32;fill-opacity:1;fill-rule:evenodd;stroke:#c93c32;stroke-width:1.00000003pt;stroke-opacity:1"
         d="M 0,0 5,-5 -12.5,0 5,5 Z"
         id="path3170"
         inkscape:connector-curvature="0" />
    </marker>
    <marker
       inkscape:stockid="Arrow1Send"
       orient="auto"
       refY="0"
       refX="0"
       id="Arrow1Send"
       style="overflow:visible"
       inkscape:isstock="true">
      <path
         id="path914"
         d="M 0,0 5,-5 -12.5,0 5,5 Z"
         style="fill:#9158a2;fill-opacity:1;fill-rule:evenodd;stroke:#9158a2;stroke-width:1.00000003pt;stroke-opacity:1"
         transform="matrix(-0.2,0,0,-0.2,-1.2,0)"
         inkscape:connector-curvature="0" />
    </marker>
    <marker
       inkscape:stockid="Arrow2Lend"
       orient="auto"
       refY="0"
       refX="0"
       id="Arrow2Lend"
       style="overflow:visible"
       inkscape:isstock="true">
      <path
         id="path920"
         style="fill:#9158a2;fill-opacity:1;fill-rule:evenodd;stroke:#9158a2;stroke-width:0.625;stroke-linejoin:round;stroke-opacity:1"
         d="M 8.7185878,4.0337352 -2.2072895,0.01601326 8.7185884,-4.0017078 c -1.7454984,2.3720609 -1.7354408,5.6174519 -6e-7,8.035443 z"
         transform="matrix(-1.1,0,0,-1.1,-1.1,0)"
         inkscape:connector-curvature="0" />
    </marker>
    <marker
       inkscape:stockid="Arrow1Send"
       orient="auto"
       refY="0"
       refX="0"
       id="Arrow1Send-3"
       style="overflow:visible"
       inkscape:isstock="true">
      <path
         inkscape:connector-curvature="0"
         id="path914-6"
         d="M 0,0 5,-5 -12.5,0 5,5 Z"
         style="fill:#399646;fill-opacity:1;fill-rule:evenodd;stroke:#399646;stroke-width:1.00000003pt;stroke-opacity:1"
         transform="matrix(-0.2,0,0,-0.2,-1.2,0)" />
    </marker>
    <marker
       inkscape:stockid="Arrow1Send"
       orient="auto"
       refY="0"
       refX="0"
       id="Arrow1Send-5"
       style="overflow:visible"
       inkscape:isstock="true">
      <path
         inkscape:connector-curvature="0"
         id="path914-3"
         d="M 0,0 5,-5 -12.5,0 5,5 Z"
         style="fill:#c93c32;fill-opacity:1;fill-rule:evenodd;stroke:#c93c32;stroke-width:1.00000003pt;stroke-opacity:1"
         transform="matrix(-0.2,0,0,-0.2,-1.2,0)" />
    </marker>
  </defs>
  <sodipodi:namedview
     id="base"
     pagecolor="#ffffff"
     bordercolor="#666666"
     borderopacity="1.0"
     inkscape:pageopacity="0.0"
     inkscape:pageshadow="2"
     inkscape:zoom="1"
     inkscape:cx="257.20447"
     inkscape:cy="68.421286"
     inkscape:document-units="mm"
     inkscape:current-layer="g4608"
     showgrid="false"
     showguides="true"
     inkscape:window-width="1440"
     inkscape:window-height="860"
     inkscape:window-x="2880"
     inkscape:window-y="0"
     inkscape:window-maximized="1"
     inkscape:guide-bbox="true"
     fit-margin-top="0"
     fit-margin-left="0"
     fit-margin-right="0"
     fit-margin-bottom="0">
    <sodipodi:guide
       position="-22.687628,193.53223"
       orientation="0,1"
       id="guide873"
       inkscape:locked="false" />
    <sodipodi:guide
       position="95.335431,44.269435"
       orientation="0,1"
       id="guide8498"
       inkscape:locked="false" />
  </sodipodi:namedview>
  <metadata
     id="metadata5">
    <rdf:RDF>
      <cc:Work
         rdf:about="">
        <dc:format>image/svg+xml</dc:format>
        <dc:type
           rdf:resource="http://purl.org/dc/dcmitype/StillImage" />
        <dc:title />
      </cc:Work>
    </rdf:RDF>
  </metadata>
  <g
     inkscape:label="Layer 1"
     inkscape:groupmode="layer"
     id="layer1"
     transform="translate(201.83023,0.23574384)">
    <g
       id="g875"
       transform="translate(-20.251366,-58.120891)">
      <g
         transform="matrix(0.35277777,0,0,0.35277777,-124.38663,-3.7870792)"
         inkscape:label="sinc"
         id="g4594">
        <g
           id="g4596">
          <g
             id="g4608">
            <path
               d="m -153.11971,303.99409 h 33.215 l 0.113,-0.367 0.114,-0.43 0.23,-0.859 0.457,-1.719 0.91,-3.437 0.11,-0.403 0.105,-0.402 0.211,-0.801 0.426,-1.605 0.855,-3.207 1.703,-6.418 3.407,-12.832 7.386,-27.817 0.114,-0.429 0.34,-1.278 3.171,-11.949 0.227,-0.852 0.227002,-0.855 3.171,-11.949 0.106,-0.399 0.105,-0.394 0.215,-0.797 0.422,-1.594 0.844,-3.183 0.422,-1.594 0.425,-1.59 0.633,-2.391 0.106,-0.394 0.105,-0.176 h 146.098 l 0.105,0.172 0.106,0.398 0.105,0.395 0.422,1.594 0.211,0.793 0.422,1.589 0.844,3.184 0.105,0.395 0.317,1.195 0.421,1.59 0.848,3.179 1.688,6.364 0.113,0.429 0.117,0.43 0.227,0.863 0.461,1.727 0.914,3.449 5.496,20.695 6.84,25.758 6.703,25.254 7.277,24.899 6.789,25.566 7.358998,27.715 0.106,0.402 0.109,0.406 0.215,0.809 0.426,1.617 0.859,3.235 0.11,0.402 0.105,0.406 1.504,5.66 0.109,0.407 0.106,0.402 0.644,2.426 0.106,0.406 0.109,0.402 0.645,2.426 0.105,0.406 0.11,0.403 0.215,0.812 0.105,0.403 0.109,0.406 0.106,0.402 0.109,0.371 h 59.742 l 0.106,-0.16 0.422,-1.578 0.418,-1.582 0.211,-0.789 0.211,-0.793 0.418,-1.582 0.839,-3.16 1.68,-6.325 0.227,-0.859 0.226,-0.855 0.457,-1.719 0.91,-3.43 1.825,-6.859 3.644,-13.727 6.797,-25.609 0.121,-0.449 0.117,-0.446 0.239,-0.894 0.472,-1.785 2.848,-10.723 0.117,-0.445 0.121,-0.446 0.238,-0.894 0.473,-1.789 0.949,-3.571 0.118,-0.449 0.121,-0.445 0.234,-0.895 0.477,-1.785 0.117,-0.449 0.121,-0.445 0.234,-0.895 0.121,-0.445 0.117,-0.445 0.118,-0.45 0.121,-0.445"
               style="fill:none;stroke:#e1cf24;stroke-width:18;stroke-linecap:square;stroke-linejoin:miter;stroke-miterlimit:3.25;stroke-dasharray:none;stroke-opacity:1"
               id="path4600"
               inkscape:connector-curvature="0"
               inkscape:export-filename="/home/ccp/path4598.png"
               inkscape:export-xdpi="100"
               inkscape:export-ydpi="100" />
            <path
               d="m -153.11971,303.99409 h 53.094 l 0.113002,-0.047 0.114,-0.144 0.113,-0.141 0.34,-0.434 0.113,-0.14 0.113,-0.145 0.227,-0.293 0.566,-0.722 0.113,-0.149 0.227,-0.289 0.453,-0.582 0.906,-1.156 0.211,-0.266 0.215,-0.265 0.422,-0.528 0.844,-1.031 0.422,-0.5 0.425,-0.488 0.844,-0.938 0.211,-0.226 0.211,-0.223 0.426,-0.43 0.844,-0.804 0.211,-0.188 0.211,-0.183 0.421,-0.352 0.11,-0.086 0.316,-0.246 0.422,-0.305 0.113,-0.078 0.118,-0.074 0.226,-0.148 0.117,-0.075 0.114,-0.066 0.23,-0.133 0.227,-0.125 0.23,-0.117 0.457,-0.211 0.117,-0.047 0.114,-0.043 0.23,-0.086 0.113,-0.035 0.114,-0.039 0.23,-0.066 0.113,-0.028 0.118,-0.027 0.113,-0.027 0.113,-0.024 0.117,-0.019 0.114,-0.02 0.113,-0.016 0.117,-0.011 0.227,-0.024 0.117,-0.008 0.113,-0.003 h 0.344 l 0.113,0.007 0.117,0.004 0.227,0.024 0.117,0.015 0.113,0.016 0.114,0.019 0.117,0.02 0.113,0.023 0.117,0.028 0.227,0.062 0.117,0.032 0.113,0.035 0.114,0.039 0.23,0.086 0.113,0.047 0.117,0.046 0.227,0.106 0.117,0.055 0.113,0.058 0.231,0.125 0.105,0.059 0.106,0.062 0.215,0.133 0.429,0.293 0.211,0.156 0.215,0.168 0.43,0.356 0.105,0.093 0.11,0.098 0.211,0.199 0.429,0.422 0.856,0.942 0.105,0.125 0.11,0.129 0.215,0.261 0.425,0.547 0.856,1.176 1.711,2.66 0.211,0.352 0.211,0.355 0.418,0.727 0.839,1.507 1.68,3.18 0.106,0.203 0.101,0.203 0.211,0.411 0.418,0.828 0.84,1.664 1.68,3.32 0.226,0.445 0.227,0.442 0.457,0.879 0.91,1.707 0.113,0.211 0.113,0.207 0.231,0.41 0.453,0.805 0.91,1.539 0.227,0.367 0.23,0.359 0.453,0.696 0.227,0.335 0.23,0.325 0.453,0.625 0.114,0.148 0.117,0.149 0.227,0.285 0.453,0.543 0.113,0.129 0.117,0.125 0.227,0.246 0.453,0.449 0.109,0.098 0.106,0.097 0.211,0.184 0.211,0.172 0.214,0.16 0.106,0.078 0.105,0.074 0.215,0.137 0.106,0.066 0.316,0.176 0.109,0.051 0.106,0.051 0.105,0.047 0.106,0.042 0.105,0.04 0.106,0.035 0.109,0.035 0.106,0.031 0.105,0.027 0.106,0.024 0.105,0.019 0.109,0.02 0.211,0.023 0.106,0.008 0.105,0.004 h 0.106 l 0.109,-0.004 0.211,-0.015 0.105,-0.012 0.106,-0.02 0.109,-0.019 0.106,-0.024 0.105,-0.027 0.106,-0.031 0.105,-0.035 0.106,-0.039 0.109,-0.043 0.106,-0.043 0.21,-0.102 0.106,-0.059 0.109,-0.058 0.211,-0.133 0.106,-0.07 0.105,-0.074 0.215,-0.165 0.106,-0.085 0.105,-0.09 0.211,-0.192 0.426,-0.429 0.117,-0.129 0.113,-0.129 0.231,-0.278 0.461,-0.609 0.113,-0.164 0.117,-0.168 0.23,-0.348 0.461,-0.754 0.227,-0.406 0.23,-0.426 0.461,-0.902 0.922,-2.023 0.114,-0.274 0.117,-0.277 0.23,-0.57 0.461,-1.192 0.918,-2.601 0.117,-0.344 0.114,-0.348 0.23,-0.711 0.461,-1.472 0.922,-3.141 0.113,-0.402 0.113,-0.407 0.227,-0.828 0.449,-1.691 0.906,-3.559 1.809,-7.73 3.613,-17.356 0.211,-1.062 0.211,-1.071 0.422,-2.148 0.844,-4.324 1.687,-8.695 0.102,-0.543 0.105,-0.54 0.211,-1.082 0.422,-2.156 0.844,-4.273 1.687,-8.309 0.227,-1.094 0.23,-1.086 0.458,-2.136 0.914,-4.153 0.113,-0.507 0.113,-0.5 0.231,-0.997 0.457,-1.953 0.914,-3.734 0.113,-0.449 0.117,-0.446 0.227,-0.878 0.457,-1.711 0.914,-3.215 0.117,-0.379 0.113,-0.379 0.227,-0.738 0.457,-1.422 0.914,-2.61 0.109,-0.281 0.106,-0.277 0.215,-0.543 0.425,-1.031 0.106,-0.246 0.109,-0.239 0.211,-0.469 0.426,-0.878 0.109,-0.207 0.106,-0.204 0.215,-0.386 0.105,-0.188 0.106,-0.183 0.214,-0.352 0.106,-0.168 0.105,-0.16 0.215,-0.309 0.426,-0.558 0.109,-0.125 0.106,-0.121 0.215,-0.231 0.105,-0.105 0.106,-0.098 0.214,-0.187 0.106,-0.086 0.105,-0.078 0.11,-0.075 0.105,-0.07 0.106,-0.063 0.109,-0.058 0.106,-0.055 0.105,-0.047 0.109,-0.043 0.106,-0.039 0.105,-0.031 0.11,-0.027 0.211,-0.039 0.105,-0.008 0.109,-0.008 h 0.106 l 0.105,0.004 0.11,0.012 0.105,0.015 0.106,0.02 0.109,0.027 0.106,0.031 0.105,0.036 0.117,0.046 0.114,0.051 0.117,0.059 0.117,0.066 0.113,0.07 0.117,0.075 0.231,0.172 0.117,0.097 0.113,0.102 0.231,0.219 0.117,0.121 0.117,0.125 0.231,0.269 0.113,0.145 0.117,0.148 0.231,0.32 0.117,0.168 0.113,0.172 0.234,0.367 0.114,0.192 0.117,0.199 0.23,0.41 0.461,0.895 0.117,0.238 0.114,0.246 0.234,0.504 0.461,1.074 0.117,0.285 0.114,0.286 0.23,0.593 0.465,1.25 0.113,0.325 0.117,0.332 0.231,0.675 0.461,1.414 0.925,3.059 0.227,0.797 0.227,0.816 0.457,1.676 0.906,3.551 1.8160003,7.781 0.114,0.512 0.113,0.516 0.226,1.039 0.454,2.113 0.91,4.336 1.816,9.023 0.422,2.156 0.426,2.165 0.844,4.359 1.695,8.73 0.211,1.086 0.21100001,1.082 0.425,2.157 0.848,4.269 1.69199999,8.285 0.117,0.543 0.113,0.547 0.23,1.078 0.458,2.133 0.921,4.137 0.114,0.504 0.113,0.5 0.23,0.996 0.461,1.949 0.918,3.742 0.114,0.449 0.117,0.45 0.226,0.886 0.461,1.731 0.918,3.269 0.114,0.391 0.117,0.391 0.226,0.761 0.461,1.473 0.918,2.746 0.11,0.305 0.105,0.297 0.215,0.586 0.4299997,1.125 0.105,0.273 0.109,0.266 0.211,0.527 0.43,1 0.109,0.238 0.106,0.239 0.215,0.46 0.429,0.872 0.106,0.21 0.109,0.204 0.211,0.398 0.43,0.746 0.109,0.176 0.106,0.172 0.215,0.332 0.429,0.621 0.106,0.144 0.109,0.141 0.211,0.27 0.43,0.492 0.109,0.113 0.106,0.109 0.214,0.208 0.106,0.097 0.109,0.094 0.215,0.176 0.106,0.082 0.109,0.078 0.211,0.144 0.109,0.067 0.106,0.062 0.215,0.114 0.105,0.05 0.211,0.094 0.105,0.039 0.211,0.07 0.102,0.028 0.105,0.027 0.106,0.024 0.105,0.019 0.106,0.016 0.105,0.011 0.106,0.008 0.211,0.008 h 0.105 l 0.102,-0.008 0.211,-0.015 0.105,-0.016 0.211,-0.039 0.106,-0.023 0.105,-0.028 0.106,-0.031 0.105,-0.035 0.102,-0.035 0.316,-0.129 0.211,-0.102 0.105,-0.058 0.106,-0.055 0.211,-0.129 0.101,-0.066 0.106,-0.071 0.211,-0.148 0.211,-0.156 0.211,-0.172 0.418,-0.375 0.105,-0.098 0.105,-0.102 0.211,-0.214 0.418,-0.453 0.844,-1.02 0.113,-0.152 0.114,-0.149 0.226,-0.312 0.457,-0.649 0.914,-1.402 1.821,-3.149 0.117,-0.207 0.34,-0.632 0.457,-0.86 0.91,-1.761 1.824,-3.606 0.11,-0.211 0.105,-0.211 0.211,-0.426 0.426,-0.839 0.851,-1.668 1.703,-3.219 0.106,-0.195 0.105,-0.192 0.215,-0.387 0.426,-0.75 0.848,-1.449 0.109,-0.176 0.105,-0.175 0.211,-0.344 0.426,-0.668 0.852,-1.266 0.117,-0.164 0.113,-0.16 0.231,-0.32 0.461,-0.61 0.117,-0.148 0.113,-0.145 0.231,-0.281 0.46,-0.543 0.118,-0.129 0.113,-0.129 0.23,-0.25 0.461,-0.468 0.118,-0.114 0.113,-0.109 0.234,-0.211 0.461,-0.394 0.113,-0.09 0.118,-0.094 0.23,-0.172 0.113,-0.082 0.118,-0.082 0.23,-0.152 0.113,-0.075 0.117,-0.07 0.231,-0.133 0.113,-0.062 0.117,-0.063 0.231,-0.113 0.113,-0.055 0.117,-0.05 0.231,-0.094 0.113,-0.043 0.117,-0.043 0.231,-0.074 0.113,-0.032 0.117,-0.031 0.114,-0.031 0.117,-0.024 0.113,-0.027 0.234,-0.039 0.227,-0.031 0.113,-0.012 0.227,-0.016 0.113,-0.003 h 0.34 l 0.113,0.007 0.113,0.004 0.34,0.035 0.114,0.016 0.226,0.039 0.227,0.047 0.113,0.027 0.113,0.032 0.11,0.031 0.113,0.031 0.226,0.074 0.114,0.039 0.113,0.043 0.227,0.09 0.453,0.207 0.113,0.055 0.113,0.058 0.227,0.122 0.453,0.269 0.113,0.07 0.114,0.075 0.226,0.152 0.453,0.324 0.227,0.172 0.226,0.18 0.453,0.379 0.903,0.828 0.105,0.101 0.106,0.106 0.215,0.207 0.421,0.437 0.844,0.914 1.688,1.985 0.211,0.258 0.211,0.261 0.421,0.528 0.848,1.07 0.106,0.137 0.105,0.133 0.211,0.273 0.422,0.539 0.844,1.086 0.113,0.144 0.117,0.149 0.227,0.293 0.117,0.144 0.113,0.145 0.231,0.289 0.113,0.145 0.113,0.101 H 192.48229"
               style="fill:none;stroke:#599eff;stroke-width:18;stroke-linecap:square;stroke-linejoin:miter;stroke-miterlimit:3.25;stroke-dasharray:none;stroke-opacity:1"
               id="path4598"
               inkscape:connector-curvature="0"
               inkscape:export-filename="/home/ccp/path4598.png"
               inkscape:export-xdpi="100"
               inkscape:export-ydpi="100" />
          </g>
        </g>
      </g>
      <flowRoot
         xml:space="preserve"
         id="flowRoot4555"
         style="font-style:normal;font-variant:normal;font-weight:normal;font-stretch:normal;font-size:48px;line-height:50;font-family:'TeX Gyre Adventor';-inkscape-font-specification:'TeX Gyre Adventor';letter-spacing:0px;word-spacing:0px;fill:#000000;fill-opacity:1;stroke:none"
         transform="matrix(0.26458333,0,0,0.26458333,20.251366,58.120891)"><flowRegion
           id="flowRegion4557"><rect
             id="rect4559"
             width="502"
             height="254"
             x="-424"
             y="-9.4803152" /></flowRegion><flowPara
           id="flowPara4561">ttrtrtrtrtrtr</flowPara></flowRoot>      <flowRoot
         xml:space="preserve"
         id="flowRoot4563"
         style="font-style:normal;font-variant:normal;font-weight:normal;font-stretch:normal;font-size:48px;line-height:50;font-family:'TeX Gyre Adventor';-inkscape-font-specification:'TeX Gyre Adventor';letter-spacing:0px;word-spacing:0px;fill:#000000;fill-opacity:1;stroke:none"
         transform="matrix(0.26458333,0,0,0.26458333,20.251366,58.120891)"><flowRegion
           id="flowRegion4565"><rect
             id="rect4567"
             width="448"
             height="254"
             x="-490"
             y="30.519686" /></flowRegion><flowPara
           id="flowPara4569">trtrtrtrtrtr</flowPara></flowRoot>    </g>
  </g>
</svg>
