<?xml version="1.0" encoding="UTF-8" standalone="no"?>
<!-- Created with Inkscape (http://www.inkscape.org/) -->

<svg
   version="1.1"
   id="svg2"
   xml:space="preserve"
   width="510.75763"
   height="195.95557"
   viewBox="0 0 510.75763 195.95556"
   sodipodi:docname="Logo_light.svg"
   inkscape:version="1.1.1 (3bf5ae0d25, 2021-09-20)"
   xmlns:inkscape="http://www.inkscape.org/namespaces/inkscape"
   xmlns:sodipodi="http://sodipodi.sourceforge.net/DTD/sodipodi-0.dtd"
   xmlns="http://www.w3.org/2000/svg"
   xmlns:svg="http://www.w3.org/2000/svg"><defs
     id="defs6"><clipPath
       clipPathUnits="userSpaceOnUse"
       id="clipPath224130"><rect
         style="fill:#ff0000;stroke-width:5.66931;stroke-linecap:round;stroke-linejoin:round;paint-order:stroke fill markers"
         id="rect224132"
         width="145.04514"
         height="153.82352"
         x="-196.94046"
         y="-660.78693"
         rx="60"
         ry="60" /></clipPath><clipPath
       clipPathUnits="userSpaceOnUse"
       id="clipPath2667"><rect
         style="opacity:1;fill:#ff0000;stroke-width:7.55906;stroke-linecap:round;stroke-linejoin:round;paint-order:stroke fill markers"
         id="rect2669"
         width="408.03406"
         height="674.78699"
         x="260.37881"
         y="-186.63046" /></clipPath></defs><sodipodi:namedview
     id="namedview4"
     pagecolor="#ffffff"
     bordercolor="#666666"
     borderopacity="1.0"
     inkscape:pageshadow="2"
     inkscape:pageopacity="0.0"
     inkscape:pagecheckerboard="0"
     showgrid="false"
     inkscape:zoom="1.2152804"
     inkscape:cx="148.93682"
     inkscape:cy="60.47987"
     inkscape:window-width="1920"
     inkscape:window-height="1040"
     inkscape:window-x="1920"
     inkscape:window-y="0"
     inkscape:window-maximized="1"
     inkscape:current-layer="g238832"
     showguides="true"
     inkscape:guide-bbox="true"><sodipodi:guide
       position="20.337812,1238.2453"
       orientation="0,-1"
       id="guide223520" /><sodipodi:guide
       position="20.337812,1238.2453"
       orientation="1,0"
       id="guide223522" /></sodipodi:namedview><g
     id="g8"
     inkscape:groupmode="layer"
     inkscape:label="LogoKoma4"
     transform="matrix(1.3333333,0,0,1.3333333,7.5627534,4.4587325)"><g
       id="g10"><text
         xml:space="preserve"
         style="font-style:normal;font-variant:normal;font-weight:normal;font-stretch:normal;font-size:149.149px;line-height:1.25;font-family:'Croog Pro';-inkscape-font-specification:'Croog Pro';stroke-width:0.75;fill:#4b4b4b;fill-opacity:1"
         x="-14.629745"
         y="101.9633"
         id="text146786"><tspan
           sodipodi:role="line"
           id="tspan146784"
           style="font-style:normal;font-variant:normal;font-weight:normal;font-stretch:normal;font-family:'Croog Pro';-inkscape-font-specification:'Croog Pro';fill:#4b4b4b;stroke-width:0.75;fill-opacity:1"
           x="-14.629745"
           y="101.9633">Koma</tspan></text><g
         id="g238838"
         transform="matrix(0.26277212,0,0,0.26277212,70.81357,43.364866)"
         style="stroke-width:3.80558"><path
           style="fill:#929292;stroke-width:3.80557"
           d="m 226.7063,-216.31306 c -58.73652,-3.62359 -102.16196,-24.40982 -109.17417,-52.25785 -0.77202,-3.06595 -0.68423,-3.80115 0.82659,-6.92209 2.90499,-6.00089 12.44044,-11.00738 25.01735,-13.13508 7.67846,-1.29901 22.81692,-0.50281 29.21845,1.53673 9.08676,2.89507 15.48678,8.07474 15.48678,12.53378 0,2.69741 3.85536,9.21149 7.18805,12.14504 6.80639,5.99123 19.05178,10.92557 33.19498,13.37606 9.94365,1.72287 30.94527,1.70366 40.61697,-0.0371 29.22767,-5.26069 47.47651,-18.62892 45.46488,-33.30538 -1.90006,-13.86244 -20.10429,-25.49622 -49.08719,-31.37018 -9.75336,-1.97671 -11.87292,-2.82791 -12.57868,-5.05155 -1.22356,-3.85511 5.84073,-6.18467 16.40358,-5.40934 22.85816,1.67782 44.29897,7.07901 60.1471,15.15177 20.24924,10.31459 30.52978,23.77208 29.47046,38.57754 -1.22805,17.16364 -21.02735,34.18371 -51.31188,44.10922 -23.81079,7.8038 -54.8541,11.66429 -80.88327,10.05848 z"
           id="path223542" /><path
           style="fill:#4b4b4b;stroke-width:3.80557"
           d="m 146.62197,-319.12412 c -3.20887,-24.23422 -5.82324,-45.07472 -5.80969,-46.31222 0.0326,-2.97869 2.42268,-6.7781 5.1516,-8.18928 1.2094,-0.6254 4.82087,-1.57444 8.02549,-2.10898 l 5.82659,-0.97187 14.88279,-40.48993 c 8.18553,-22.26947 20.09028,-54.66494 26.45499,-71.98994 6.36471,-17.325 15.10587,-41.11875 19.42477,-52.875 4.31891,-11.75625 11.63117,-31.66875 16.24946,-44.25 4.6183,-12.58125 10.69413,-29.11875 13.50184,-36.75 2.80771,-7.63125 8.20207,-22.3125 11.98746,-32.625 3.78539,-10.3125 10.10387,-27.525 14.04107,-38.25 3.9372,-10.725 7.49561,-19.92187 7.90758,-20.4375 1.57857,-1.97575 11.88842,-0.72086 23.44038,2.85309 16.05432,4.96691 34.125,14.7056 34.125,18.39074 0,0.56426 -1.88753,6.01367 -4.19451,12.1098 -5.04107,13.3209 -38.88495,102.26463 -51.30549,134.83387 -4.87662,12.7875 -17.53344,46.03125 -28.12627,73.875 -10.59284,27.84375 -24.79785,65.16889 -31.56671,82.94475 -6.76887,17.77586 -12.30702,32.57407 -12.30702,32.88491 0,0.31084 1.39546,2.1357 3.10104,4.05525 3.36256,3.78443 5.85632,8.51215 5.88249,11.15214 0.0399,4.02841 -3.19114,7.27323 -36.05249,36.20606 -18.50182,16.28995 -33.90211,29.70546 -34.22286,29.81222 -0.32075,0.10676 -3.20863,-19.63388 -6.41751,-43.86811 z"
           id="path223742" /><ellipse
           style="fill:#007afd;fill-opacity:1;stroke-width:21.575;stroke-linecap:round;stroke-linejoin:round;paint-order:stroke fill markers"
           id="path230132"
           cx="243.39917"
           cy="-516.96326"
           rx="149.95312"
           ry="149.95314" /><path
           style="fill:#4b4b4b;fill-opacity:1;stroke-width:3.80557"
           d="m 303.80201,-640.81902 c -14.80005,-3.74759 -31.92138,-11.9359 -37.49028,-17.92978 l -1.8511,-1.99239 1.37569,-3.9025 c 5.37867,-15.25806 18.0225,-49.07389 18.63531,-49.84001 0.92467,-1.15602 6.65456,-1.21301 11.9668,-0.11901 18.71998,3.85515 45.59942,16.47057 45.59942,21.40132 0,1.46299 -19.31583,52.02958 -20.35124,53.27717 -1.30204,1.56888 -9.84251,1.14158 -17.8846,-0.8948 z"
           id="path224154"
           sodipodi:nodetypes="sscssssss" /></g><g
         id="g238832"
         transform="matrix(0.26277212,0,0,0.26277212,158.76855,197.61443)"
         style="stroke-width:3.80558"><path
           style="fill:#929292;stroke-width:3.80557"
           d="m -145.11491,-205.8289 c -58.73652,-3.62359 -102.16196,-24.40982 -109.17417,-52.25785 -0.77202,-3.06595 -0.68423,-3.80115 0.82659,-6.92209 2.90499,-6.00089 12.44044,-11.00738 25.01735,-13.13508 7.67846,-1.29901 22.81692,-0.50281 29.21845,1.53673 9.08676,2.89507 15.48678,8.07474 15.48678,12.53378 0,2.69741 3.85536,9.21149 7.18805,12.14504 6.80639,5.99123 19.05178,10.92557 33.19498,13.37606 9.94365,1.72287 30.94527,1.70366 40.61697,-0.0371 29.227665,-5.26069 47.476505,-18.62892 45.464875,-33.30538 -1.90006,-13.86244 -20.10429,-25.49622 -49.087185,-31.37018 -9.75336,-1.97671 -11.87292,-2.82791 -12.57868,-5.05155 -1.22356,-3.85511 5.84073,-6.18467 16.40358,-5.40934 22.858155,1.67782 44.298965,7.07901 60.147095,15.15177 20.24924,10.31459 30.52978,23.77208 29.47046,38.57754 -1.22805,17.16364 -21.02735,34.18371 -51.31188,44.10922 -23.81079,7.8038 -54.854095,11.66429 -80.883265,10.05848 z"
           id="path223542-7" /><path
           style="fill:#4b4b4b;stroke-width:3.80557;fill-opacity:1"
           d="m -225.19924,-308.63996 c -3.20887,-24.23422 -5.82324,-45.07472 -5.80969,-46.31222 0.0326,-2.97869 2.42268,-6.7781 5.1516,-8.18928 1.2094,-0.6254 4.82087,-1.57444 8.02549,-2.10898 l 5.82659,-0.97187 14.88279,-40.48993 c 8.18553,-22.26947 20.09028,-54.66494 26.45499,-71.98994 6.36471,-17.325 15.10587,-41.11875 19.42477,-52.875 4.31891,-11.75625 11.63117,-31.66875 16.24946,-44.25 4.6183,-12.58125 10.69413,-29.11875 13.50184,-36.75 2.80771,-7.63125 8.20207,-22.3125 11.98746,-32.625 3.78539,-10.3125 10.103865,-27.525 14.041065,-38.25 3.9372,-10.725 7.49561,-19.92187 7.90758,-20.4375 1.57857,-1.97575 11.88842,-0.72086 23.44038,2.85309 16.05432,4.96691 34.125,14.7056 34.125,18.39074 0,0.56426 -1.88753,6.01367 -4.19451,12.1098 -5.04107,13.3209 -38.88495,102.26463 -51.30549,134.83387 -4.87662,12.7875 -17.533435,46.03125 -28.126265,73.875 -10.59284,27.84375 -24.79785,65.16889 -31.56671,82.94475 -6.76887,17.77586 -12.30702,32.57407 -12.30702,32.88491 0,0.31084 1.39546,2.1357 3.10104,4.05525 3.36256,3.78443 5.85632,8.51215 5.88249,11.15214 0.0399,4.02841 -3.19114,7.27323 -36.05249,36.20606 -18.50182,16.28995 -33.90211,29.70546 -34.22286,29.81222 -0.32075,0.10676 -3.20863,-19.63388 -6.41751,-43.86811 z"
           id="path223742-1" /><ellipse
           style="fill:#007afd;fill-opacity:1;stroke-width:21.575;stroke-linecap:round;stroke-linejoin:round;paint-order:stroke fill markers"
           id="path230132-3"
           cx="-128.42206"
           cy="-506.47913"
           rx="149.95312"
           ry="149.95314" /><path
           style="fill:#4b4b4b;fill-opacity:1;stroke-width:3.80557"
           d="m -68.019205,-630.33486 c -14.80005,-3.74759 -31.92138,-11.9359 -37.490275,-17.92978 l -1.8511,-1.99239 1.37569,-3.9025 c 5.37867,-15.25806 18.022495,-49.07389 18.635305,-49.84001 0.92467,-1.15602 6.65456,-1.21301 11.9668,-0.11901 18.71998,3.85515 45.59942,16.47057 45.59942,21.40132 0,1.46299 -19.31583,52.02958 -20.35124,53.27717 -1.30204,1.56888 -9.84251,1.14158 -17.8846,-0.8948 z"
           id="path224154-1"
           sodipodi:nodetypes="sscssssss" /></g></g></g></svg>
