<svg class="main-svg" xmlns="http://www.w3.org/2000/svg" xmlns:xlink="http://www.w3.org/1999/xlink" width="905.6" height="480" style="" viewBox="0 0 905.6 480"><rect x="0" y="0" width="905.6" height="480" style="fill: rgb(0, 0, 0); fill-opacity: 0;"/><defs id="defs-6a9a57"><g class="clips"><clipPath id="clip6a9a57xyplot" class="plotclip"><rect width="883" height="318"/></clipPath><clipPath class="axesclip" id="clip6a9a57x"><rect x="23" y="0" width="883" height="480"/></clipPath><clipPath class="axesclip" id="clip6a9a57y"><rect x="0" y="29" width="905.6" height="318"/></clipPath><clipPath class="axesclip" id="clip6a9a57xy"><rect x="23" y="29" width="883" height="318"/></clipPath></g><g class="gradients"/><g class="patterns"/></defs><g class="bglayer"><rect class="bg" x="23" y="29" width="883" height="318" style="fill: rgb(229, 236, 246); fill-opacity: 1; stroke-width: 0;"/></g><g class="layer-below"><g class="imagelayer"/><g class="shapelayer"/></g><g class="cartesianlayer"><g class="subplot xy"><g class="layer-subplot"><g class="shapelayer"/><g class="imagelayer"/></g><g class="gridlayer"><g class="x"><path class="xgrid crisp" transform="translate(172.74,0)" d="M0,29v318" style="stroke: rgb(255, 255, 255); stroke-opacity: 1; stroke-width: 1px;"/><path class="xgrid crisp" transform="translate(274.58000000000004,0)" d="M0,29v318" style="stroke: rgb(255, 255, 255); stroke-opacity: 1; stroke-width: 1px;"/><path class="xgrid crisp" transform="translate(376.42,0)" d="M0,29v318" style="stroke: rgb(255, 255, 255); stroke-opacity: 1; stroke-width: 1px;"/><path class="xgrid crisp" transform="translate(478.27,0)" d="M0,29v318" style="stroke: rgb(255, 255, 255); stroke-opacity: 1; stroke-width: 1px;"/><path class="xgrid crisp" transform="translate(580.11,0)" d="M0,29v318" style="stroke: rgb(255, 255, 255); stroke-opacity: 1; stroke-width: 1px;"/><path class="xgrid crisp" transform="translate(681.95,0)" d="M0,29v318" style="stroke: rgb(255, 255, 255); stroke-opacity: 1; stroke-width: 1px;"/><path class="xgrid crisp" transform="translate(783.79,0)" d="M0,29v318" style="stroke: rgb(255, 255, 255); stroke-opacity: 1; stroke-width: 1px;"/><path class="xgrid crisp" transform="translate(885.63,0)" d="M0,29v318" style="stroke: rgb(255, 255, 255); stroke-opacity: 1; stroke-width: 1px;"/></g><g class="y"><path class="ygrid crisp" transform="translate(0,273.86)" d="M23,0h883" style="stroke: rgb(255, 255, 255); stroke-opacity: 1; stroke-width: 1px;"/><path class="ygrid crisp" transform="translate(0,216.62)" d="M23,0h883" style="stroke: rgb(255, 255, 255); stroke-opacity: 1; stroke-width: 1px;"/><path class="ygrid crisp" transform="translate(0,159.38)" d="M23,0h883" style="stroke: rgb(255, 255, 255); stroke-opacity: 1; stroke-width: 1px;"/><path class="ygrid crisp" transform="translate(0,102.14)" d="M23,0h883" style="stroke: rgb(255, 255, 255); stroke-opacity: 1; stroke-width: 1px;"/><path class="ygrid crisp" transform="translate(0,44.9)" d="M23,0h883" style="stroke: rgb(255, 255, 255); stroke-opacity: 1; stroke-width: 1px;"/></g></g><g class="zerolinelayer"><path class="xzl zl crisp" transform="translate(70.9,0)" d="M0,29v318" style="stroke: rgb(255, 255, 255); stroke-opacity: 1; stroke-width: 2px;"/><path class="yzl zl crisp" transform="translate(0,331.1)" d="M23,0h883" style="stroke: rgb(255, 255, 255); stroke-opacity: 1; stroke-width: 2px;"/></g><path class="xlines-below"/><path class="ylines-below"/><g class="overlines-below"/><g class="xaxislayer-below"/><g class="yaxislayer-below"/><g class="overaxes-below"/><g class="plot" transform="translate(23,29)" clip-path="url(#clip6a9a57xyplot)"><g class="scatterlayer mlayer"><g class="trace scatter tracec6b217" style="stroke-miterlimit: 2; opacity: 1;"><g class="fills"/><g class="errorbars"/><g class="lines"/><g class="points"/><g class="text"/></g><g class="trace scatter traceaaab47" style="stroke-miterlimit: 2; opacity: 1;"><g class="fills"/><g class="errorbars"/><g class="lines"/><g class="points"/><g class="text"/></g><g class="trace scatter trace4fe8b1" style="stroke-miterlimit: 2; opacity: 1;"><g class="fills"/><g class="errorbars"/><g class="lines"/><g class="points"/><g class="text"/></g><g class="trace scatter trace818b98" style="stroke-miterlimit: 2; opacity: 1;"><g class="fills"/><g class="errorbars"/><g class="lines"><path class="js-line" d="M68.27,302.1L78.45,302.1L78.45,288.01L88.64,288.01L88.64,278.03L98.82,278.03L98.82,276.62L109,276.62L109,285.37L119.19,285.37L119.19,302.1L129.37,302.1L129.37,282.98L139.56,282.98L139.56,268.78L149.74,268.78L149.74,266L159.93,266L159.93,277.76L170.11,277.76L170.11,302.1L180.29,302.1L180.29,272.35L190.48,272.35L190.48,247.95L200.66,247.95L200.66,240.21L210.85,240.21L210.85,257.48L221.03,257.48L221.03,302.1L231.21,302.1L231.21,235.17L241.4,235.17L241.4,157.7L251.58,157.7L251.58,85.5L261.77,85.5L261.77,34.36L271.95,34.36L271.95,15.9L679.32,15.9L679.32,34.36L689.5,34.36L689.5,85.5L699.69,85.5L699.69,157.7L709.87,157.7L709.87,235.17L720.05,235.17L720.05,302.1L730.24,302.1L730.24,257.48L740.42,257.48L740.42,240.21L750.61,240.21L750.61,247.95L760.79,247.95L760.79,272.35L770.97,272.35L770.97,302.1L781.16,302.1L781.16,277.76L791.34,277.76L791.34,266L801.53,266L801.53,268.78L811.71,268.78L811.71,282.98L821.9,282.98L821.9,302.1L832.08,302.1L832.08,285.37L842.26,285.37L842.26,276.62L852.45,276.62L852.45,278.03L862.63,278.03L862.63,288.01L872.82,288.01L872.82,302.1L883,302.1L883,302.1" style="vector-effect: non-scaling-stroke; fill: none; stroke: rgb(171, 99, 250); stroke-opacity: 1; stroke-width: 2px; opacity: 1;"/></g><g class="points"/><g class="text"/></g><g class="trace scatter trace839e8b" style="stroke-miterlimit: 2; opacity: 1;"><g class="fills"/><g class="errorbars"/><g class="lines"/><g class="points"/><g class="text"/></g></g></g><g class="overplot"/><path class="xlines-above crisp" d="M0,0" style="fill: none;"/><path class="ylines-above crisp" d="M0,0" style="fill: none;"/><g class="overlines-above"/><g class="xaxislayer-above"><g class="xtick"><text text-anchor="middle" x="0" y="360" transform="translate(70.9,0)" style="font-family: 'Open Sans', verdana, arial, sans-serif; font-size: 12px; fill: rgb(128, 128, 128); fill-opacity: 1; white-space: pre; opacity: 1;">0 ms</text></g><g class="xtick"><text text-anchor="middle" x="0" y="360" style="font-family: 'Open Sans', verdana, arial, sans-serif; font-size: 12px; fill: rgb(128, 128, 128); fill-opacity: 1; white-space: pre; opacity: 1;" transform="translate(172.74,0)">0.5 ms</text></g><g class="xtick"><text text-anchor="middle" x="0" y="360" style="font-family: 'Open Sans', verdana, arial, sans-serif; font-size: 12px; fill: rgb(128, 128, 128); fill-opacity: 1; white-space: pre; opacity: 1;" transform="translate(274.58000000000004,0)">1 ms</text></g><g class="xtick"><text text-anchor="middle" x="0" y="360" style="font-family: 'Open Sans', verdana, arial, sans-serif; font-size: 12px; fill: rgb(128, 128, 128); fill-opacity: 1; white-space: pre; opacity: 1;" transform="translate(376.42,0)">1.5 ms</text></g><g class="xtick"><text text-anchor="middle" x="0" y="360" style="font-family: 'Open Sans', verdana, arial, sans-serif; font-size: 12px; fill: rgb(128, 128, 128); fill-opacity: 1; white-space: pre; opacity: 1;" transform="translate(478.27,0)">2 ms</text></g><g class="xtick"><text text-anchor="middle" x="0" y="360" style="font-family: 'Open Sans', verdana, arial, sans-serif; font-size: 12px; fill: rgb(128, 128, 128); fill-opacity: 1; white-space: pre; opacity: 1;" transform="translate(580.11,0)">2.5 ms</text></g><g class="xtick"><text text-anchor="middle" x="0" y="360" style="font-family: 'Open Sans', verdana, arial, sans-serif; font-size: 12px; fill: rgb(128, 128, 128); fill-opacity: 1; white-space: pre; opacity: 1;" transform="translate(681.95,0)">3 ms</text></g><g class="xtick"><text text-anchor="middle" x="0" y="360" style="font-family: 'Open Sans', verdana, arial, sans-serif; font-size: 12px; fill: rgb(128, 128, 128); fill-opacity: 1; white-space: pre; opacity: 1;" transform="translate(783.79,0)">3.5 ms</text></g><g class="xtick"><text text-anchor="middle" x="0" y="360" style="font-family: 'Open Sans', verdana, arial, sans-serif; font-size: 12px; fill: rgb(128, 128, 128); fill-opacity: 1; white-space: pre; opacity: 1;" transform="translate(885.63,0)">4 ms</text></g></g><g class="yaxislayer-above"><g class="ytick"><text text-anchor="end" x="22" y="4.199999999999999" transform="translate(0,331.1)" style="font-family: 'Open Sans', verdana, arial, sans-serif; font-size: 12px; fill: rgb(128, 128, 128); fill-opacity: 1; white-space: pre; opacity: 1;">0</text></g><g class="ytick"><text text-anchor="end" x="22" y="4.199999999999999" style="font-family: 'Open Sans', verdana, arial, sans-serif; font-size: 12px; fill: rgb(128, 128, 128); fill-opacity: 1; white-space: pre; opacity: 1;" transform="translate(0,273.86)">2k</text></g><g class="ytick"><text text-anchor="end" x="22" y="4.199999999999999" style="font-family: 'Open Sans', verdana, arial, sans-serif; font-size: 12px; fill: rgb(128, 128, 128); fill-opacity: 1; white-space: pre; opacity: 1;" transform="translate(0,216.62)">4k</text></g><g class="ytick"><text text-anchor="end" x="22" y="4.199999999999999" style="font-family: 'Open Sans', verdana, arial, sans-serif; font-size: 12px; fill: rgb(128, 128, 128); fill-opacity: 1; white-space: pre; opacity: 1;" transform="translate(0,159.38)">6k</text></g><g class="ytick"><text text-anchor="end" x="22" y="4.199999999999999" style="font-family: 'Open Sans', verdana, arial, sans-serif; font-size: 12px; fill: rgb(128, 128, 128); fill-opacity: 1; white-space: pre; opacity: 1;" transform="translate(0,102.14)">8k</text></g><g class="ytick"><text text-anchor="end" x="22" y="4.199999999999999" style="font-family: 'Open Sans', verdana, arial, sans-serif; font-size: 12px; fill: rgb(128, 128, 128); fill-opacity: 1; white-space: pre; opacity: 1;" transform="translate(0,44.9)">10k</text></g></g><g class="overaxes-above"/></g></g><g class="polarlayer"/><g class="ternarylayer"/><g class="geolayer"/><g class="funnelarealayer"/><g class="pielayer"/><g class="iciclelayer"/><g class="treemaplayer"/><g class="sunburstlayer"/><g class="glimages"/><defs id="topdefs-6a9a57"><g class="clips"/><clipPath id="legend6a9a57"><rect width="428" height="29" x="0" y="0"/></clipPath><clipPath id="rangesliderx-6a9a57"><rect x="0" y="0" width="883" height="72"/></clipPath></defs><g class="layer-above"><g class="imagelayer"/><g class="shapelayer"/></g><g class="infolayer"><g class="legend" pointer-events="all" transform="translate(23,0)"><rect class="bg" shape-rendering="crispEdges" width="428" height="29" x="0" y="0" style="stroke: rgb(68, 68, 68); stroke-opacity: 1; fill: rgb(0, 0, 0); fill-opacity: 0; stroke-width: 0px;"/><g class="scrollbox" transform="" clip-path="url(#legend6a9a57)"><g class="groups"><g class="traces" transform="translate(0,14.5)" style="opacity: 1;"><text class="legendtext" text-anchor="start" x="40" y="4.680000000000001" style="font-family: 'Open Sans', verdana, arial, sans-serif; font-size: 12px; fill: rgb(128, 128, 128); fill-opacity: 1; white-space: pre;">Gx</text><g class="layers" style="opacity: 1;"><g class="legendfill"/><g class="legendlines"><path class="js-line" d="M5,0h30" style="fill: none; stroke: rgb(99, 110, 250); stroke-opacity: 1; stroke-width: 2px;"/></g><g class="legendsymbols"><g class="legendpoints"><path class="scatterpts" transform="translate(20,0)" d="M3,0A3,3 0 1,1 0,-3A3,3 0 0,1 3,0Z" style="opacity: 1; stroke-width: 0px; fill: rgb(99, 110, 250); fill-opacity: 1;"/></g></g></g><rect class="legendtoggle" x="0" y="-9.5" width="59.00468826293945" height="19" style="fill: rgb(0, 0, 0); fill-opacity: 0;"/></g><g class="traces" transform="translate(61.50468826293945,14.5)" style="opacity: 1;"><text class="legendtext" text-anchor="start" x="40" y="4.680000000000001" style="font-family: 'Open Sans', verdana, arial, sans-serif; font-size: 12px; fill: rgb(128, 128, 128); fill-opacity: 1; white-space: pre;">Gy</text><g class="layers" style="opacity: 1;"><g class="legendfill"/><g class="legendlines"><path class="js-line" d="M5,0h30" style="fill: none; stroke: rgb(239, 85, 59); stroke-opacity: 1; stroke-width: 2px;"/></g><g class="legendsymbols"><g class="legendpoints"><path class="scatterpts" transform="translate(20,0)" d="M3,0A3,3 0 1,1 0,-3A3,3 0 0,1 3,0Z" style="opacity: 1; stroke-width: 0px; fill: rgb(239, 85, 59); fill-opacity: 1;"/></g></g></g><rect class="legendtoggle" x="0" y="-9.5" width="59.00468826293945" height="19" style="fill: rgb(0, 0, 0); fill-opacity: 0;"/></g><g class="traces" transform="translate(123.0093765258789,14.5)" style="opacity: 1;"><text class="legendtext" text-anchor="start" x="40" y="4.680000000000001" style="font-family: 'Open Sans', verdana, arial, sans-serif; font-size: 12px; fill: rgb(128, 128, 128); fill-opacity: 1; white-space: pre;">Gz</text><g class="layers" style="opacity: 1;"><g class="legendfill"/><g class="legendlines"><path class="js-line" d="M5,0h30" style="fill: none; stroke: rgb(0, 204, 150); stroke-opacity: 1; stroke-width: 2px;"/></g><g class="legendsymbols"><g class="legendpoints"><path class="scatterpts" transform="translate(20,0)" d="M3,0A3,3 0 1,1 0,-3A3,3 0 0,1 3,0Z" style="opacity: 1; stroke-width: 0px; fill: rgb(0, 204, 150); fill-opacity: 1;"/></g></g></g><rect class="legendtoggle" x="0" y="-9.5" width="58.20468807220459" height="19" style="fill: rgb(0, 0, 0); fill-opacity: 0;"/></g><g class="traces" transform="translate(183.7140645980835,14.5)" style="opacity: 1;"><text class="legendtext" text-anchor="start" x="40" y="4.680000000000001" style="font-family: 'Open Sans', verdana, arial, sans-serif; font-size: 12px; fill: rgb(128, 128, 128); fill-opacity: 1; white-space: pre;">|RF_1|</text><g class="layers" style="opacity: 1;"><g class="legendfill"/><g class="legendlines"><path class="js-line" d="M5,0h30" style="fill: none; stroke: rgb(171, 99, 250); stroke-opacity: 1; stroke-width: 2px;"/></g><g class="legendsymbols"><g class="legendpoints"/></g></g><rect class="legendtoggle" x="0" y="-9.5" width="83.9000015258789" height="19" style="fill: rgb(0, 0, 0); fill-opacity: 0;"/></g><g class="traces" transform="translate(270.1140661239624,14.5)" style="opacity: 0.5;"><text class="legendtext" text-anchor="start" x="40" y="4.680000000000001" style="font-family: 'Open Sans', verdana, arial, sans-serif; font-size: 12px; fill: rgb(128, 128, 128); fill-opacity: 1; white-space: pre;">&#60;RF_1</text><g class="layers" style="opacity: 1;"><g class="legendfill"/><g class="legendlines"><path class="js-line" d="M5,0h30" style="fill: none; stroke: rgb(255, 161, 90); stroke-opacity: 1; stroke-width: 2px;"/></g><g class="legendsymbols"><g class="legendpoints"/></g></g><rect class="legendtoggle" x="0" y="-9.5" width="82.82500076293945" height="19" style="fill: rgb(0, 0, 0); fill-opacity: 0;"/></g><g class="traces" transform="translate(355.43906688690186,14.5)" style="opacity: 1;"><text class="legendtext" text-anchor="start" x="40" y="4.680000000000001" style="font-family: 'Open Sans', verdana, arial, sans-serif; font-size: 12px; fill: rgb(128, 128, 128); fill-opacity: 1; white-space: pre;">ADC</text><g class="layers" style="opacity: 1;"><g class="legendfill"/><g class="legendlines"><path class="js-line" d="M5,0h30" style="fill: none; stroke: rgb(25, 211, 243); stroke-opacity: 1; stroke-width: 2px;"/></g><g class="legendsymbols"><g class="legendpoints"><path class="scatterpts" transform="translate(20,0)" d="M3,0A3,3 0 1,1 0,-3A3,3 0 0,1 3,0Z" style="opacity: 1; stroke-width: 0px; fill: rgb(25, 211, 243); fill-opacity: 1;"/></g></g></g><rect class="legendtoggle" x="0" y="-9.5" width="69.54921913146973" height="19" style="fill: rgb(0, 0, 0); fill-opacity: 0;"/></g></g></g><rect class="scrollbar" rx="20" ry="3" width="0" height="0" x="0" y="0" style="fill: rgb(128, 139, 164); fill-opacity: 1;"/></g><g class="g-gtitle"/><g class="rangeslider-container" pointer-events="all" transform="translate(23,377)"><rect class="rangeslider-bg" x="0" y="0" shape-rendering="crispEdges" width="883" height="72" transform="" fill="rgb(229,236,246)" stroke="#444" stroke-width="0"/><g class="rangeslider-rangeplot xy" clip-path="url(#rangesliderx-6a9a57)"><g class="layer-subplot"><g class="shapelayer"/><g class="imagelayer"/></g><g class="gridlayer"><g class="x"/><g class="y"/></g><g class="zerolinelayer"/><path class="xlines-below"/><path class="ylines-below"/><g class="overlines-below"/><g class="xaxislayer-below"/><g class="yaxislayer-below"/><g class="overaxes-below"/><g class="plot"><g class="scatterlayer mlayer rangeplot"><g class="trace scatter tracec6b217" style="stroke-miterlimit: 2; opacity: 1;"><g class="fills"/><g class="errorbars"/><g class="lines"/><g class="points"/><g class="text"/></g><g class="trace scatter traceaaab47" style="stroke-miterlimit: 2; opacity: 1;"><g class="fills"/><g class="errorbars"/><g class="lines"/><g class="points"/><g class="text"/></g><g class="trace scatter trace4fe8b1" style="stroke-miterlimit: 2; opacity: 1;"><g class="fills"/><g class="errorbars"/><g class="lines"/><g class="points"/><g class="text"/></g><g class="trace scatter trace818b98" style="stroke-miterlimit: 2; opacity: 1;"><g class="fills"/><g class="errorbars"/><g class="lines"><path class="js-line" d="M68.27,68.4L78.45,68.4L78.45,65.21L88.64,65.21L88.64,62.95L109,62.63L109,64.61L119.19,64.61L119.19,68.4L129.37,68.4L129.37,64.07L139.56,64.07L139.56,60.86L159.93,60.23L159.93,62.89L170.11,62.89L170.11,68.4L180.29,68.4L180.29,61.66L190.48,61.66L190.48,56.14L200.66,56.14L200.66,54.39L210.85,54.39L210.85,58.3L221.03,58.3L221.03,68.4L231.21,68.4L231.21,53.25L241.4,53.25L241.4,35.71L251.58,35.71L251.58,19.36L261.77,19.36L261.77,7.78L271.95,7.78L271.95,3.6L679.32,3.6L679.32,7.78L689.5,7.78L689.5,19.36L699.69,19.36L699.69,35.71L709.87,35.71L709.87,53.25L720.05,53.25L720.05,68.4L730.24,68.4L730.24,58.3L740.42,58.3L740.42,54.39L750.61,54.39L750.61,56.14L760.79,56.14L760.79,61.66L770.97,61.66L770.97,68.4L781.16,68.4L781.16,62.89L791.34,62.89L791.34,60.23L811.71,60.86L811.71,64.07L821.9,64.07L821.9,68.4L832.08,68.4L832.08,64.61L842.26,64.61L842.26,62.63L862.63,62.95L862.63,65.21L872.82,65.21L872.82,68.4L883,68.4L883,68.4" style="vector-effect: non-scaling-stroke; fill: none; stroke: rgb(171, 99, 250); stroke-opacity: 1; stroke-width: 2px; opacity: 1;"/></g><g class="points"/><g class="text"/></g><g class="trace scatter trace839e8b" style="stroke-miterlimit: 2; opacity: 1;"><g class="fills"/><g class="errorbars"/><g class="lines"/><g class="points"/><g class="text"/></g></g></g><g class="overplot"/><path class="xlines-above crisp" style="fill: none;"/><path class="ylines-above crisp" style="fill: none;"/><g class="overlines-above"/><g class="xaxislayer-above"/><g class="yaxislayer-above"/><g class="overaxes-above"/></g><rect class="rangeslider-mask-min" x="0" y="0" shape-rendering="crispEdges" height="72" width="0" style="fill: rgb(0, 0, 0); fill-opacity: 0.4;"/><rect class="rangeslider-mask-max" y="0" shape-rendering="crispEdges" height="72" x="883" width="0" style="fill: rgb(0, 0, 0); fill-opacity: 0.4;"/><g class="rangeslider-grabber-min" transform="translate(-2.5,0.5)"><rect class="rangeslider-handle-min" x="0" width="4" rx="1" fill="#fff" stroke="#444" stroke-width="1" shape-rendering="crispEdges" y="18" height="36"/><rect class="rangeslider-grabarea-min" width="10" x="0" y="0" fill="transparent" height="72"/></g><g class="rangeslider-grabber-max" transform="translate(881.5,0.5)"><rect class="rangeslider-handle-max" x="0" width="4" rx="1" fill="#fff" stroke="#444" stroke-width="1" shape-rendering="crispEdges" y="18" height="36"/><rect class="rangeslider-grabarea-max" width="10" x="0" y="0" fill="transparent" height="72"/></g></g><g class="g-ytitle"/><g class="g-xtitle"/></g></svg>