<?xml version="1.0" encoding="UTF-8" standalone="no"?>
<!-- Created with Inkscape (http://www.inkscape.org/) -->

<svg
   version="1.1"
   id="svg1"
   width="440"
   height="200"
   viewBox="0 0 440 200"
   sodipodi:docname="ph_spinspan_types_dark.svg"
   inkscape:version="1.3.2 (091e20e, 2023-11-25)"
   xmlns:inkscape="http://www.inkscape.org/namespaces/inkscape"
   xmlns:sodipodi="http://sodipodi.sourceforge.net/DTD/sodipodi-0.dtd"
   xmlns="http://www.w3.org/2000/svg"
   xmlns:svg="http://www.w3.org/2000/svg">
  <defs
     id="defs1" />
  <sodipodi:namedview
     id="namedview1"
     pagecolor="#ffffff"
     bordercolor="#000000"
     borderopacity="0.25"
     inkscape:showpageshadow="2"
     inkscape:pageopacity="0.0"
     inkscape:pagecheckerboard="0"
     inkscape:deskcolor="#d1d1d1"
     inkscape:zoom="1.5246212"
     inkscape:cx="137.08323"
     inkscape:cy="122.32547"
     inkscape:window-width="1458"
     inkscape:window-height="1011"
     inkscape:window-x="1102"
     inkscape:window-y="32"
     inkscape:window-maximized="0"
     inkscape:current-layer="g1">
    <inkscape:page
       x="0"
       y="0"
       inkscape:label="1"
       id="page1"
       width="440"
       height="200"
       margin="0"
       bleed="0" />
  </sodipodi:namedview>
  <g
     id="g1"
     inkscape:groupmode="layer"
     inkscape:label="1">
    <g
       id="g51"
       aria-label="SpinSpantypes&#10;SpinRange&#10;..."
       transform="matrix(1.3333333,0,0,1.3333333,113.38533,412.744)"
       style="fill:#ffffff;fill-opacity:1">
      <path
         id="path53"
         d="m -74.999713,-297.9629 -1.453125,-0.30468 c -0.398437,-0.0937 -0.949218,-0.4336 -0.949218,-1.04297 0,-0.42188 0.28125,-1.04297 1.277343,-1.04297 0.796875,0 1.804688,0.33984 2.027344,1.69922 0.03516,0.23437 0.03516,0.25781 0.246094,0.25781 0.246094,0 0.246094,-0.0586 0.246094,-0.28125 v -1.82813 c 0,-0.1875 0,-0.26953 -0.1875,-0.26953 -0.07031,0 -0.08203,0 -0.199219,0.10547 l -0.445313,0.4336 c -0.574218,-0.45704 -1.21875,-0.53907 -1.699218,-0.53907 -1.511719,0 -2.238282,0.94922 -2.238282,1.99219 0,0.65625 0.328125,1.11328 0.539063,1.32422 0.492187,0.49219 0.832031,0.5625 1.921875,0.79687 0.867187,0.19922 1.042969,0.22266 1.253906,0.4336 0.152344,0.15234 0.398438,0.41015 0.398438,0.86719 0,0.48046 -0.257813,1.16015 -1.289063,1.16015 -0.761719,0 -2.273437,-0.19922 -2.355469,-1.67578 0,-0.1875 0,-0.23437 -0.222656,-0.23437 -0.246094,0 -0.246094,0.0586 -0.246094,0.29296 v 1.81641 c 0,0.1875 0,0.26953 0.1875,0.26953 0.08203,0 0.105469,-0.0117 0.1875,-0.082 l 0.457032,-0.45703 c 0.65625,0.48047 1.582031,0.53906 1.992187,0.53906 1.640625,0 2.261719,-1.125 2.261719,-2.13281 0,-1.10156 -0.808594,-1.91015 -1.710938,-2.09765 z m 4.546875,0.84375 c 0,-0.1875 0.01172,-0.19922 0.152344,-0.33984 0.398438,-0.39844 0.914063,-0.46875 1.136719,-0.46875 0.667969,0 1.21875,0.60937 1.21875,1.86328 0,1.40625 -0.691406,1.92188 -1.347656,1.92188 -0.128907,0 -0.597657,0 -1.054688,-0.52735 -0.105469,-0.1289 -0.105469,-0.14062 -0.105469,-0.32812 z m 0,2.89453 c 0.433594,0.35157 0.867188,0.44532 1.277344,0.44532 1.488282,0 2.507813,-0.89063 2.507813,-2.28516 0,-1.32422 -0.902344,-2.26172 -2.34375,-2.26172 -0.738282,0 -1.277344,0.31641 -1.5,0.49219 v -0.49219 l -1.769532,0.082 v 0.46875 c 0.621094,0 0.691407,0 0.691407,0.38672 v 5.01563 h -0.691407 v 0.46875 c 0.28125,-0.0117 0.878907,-0.0352 1.265625,-0.0352 0.386719,0 0.972657,0.0234 1.253907,0.0352 v -0.46875 h -0.691407 z m 6.401368,-4.10156 -1.722656,0.082 v 0.46875 c 0.585937,0 0.65625,0 0.65625,0.38672 v 3.08203 h -0.691407 v 0.46875 c 0.304688,-0.0117 0.796875,-0.0352 1.21875,-0.0352 0.292969,0 0.808594,0.0234 1.160157,0.0352 v -0.46875 h -0.621094 z m 0.105469,-1.65234 c 0,-0.44531 -0.363282,-0.78516 -0.773438,-0.78516 -0.433594,0 -0.785156,0.35156 -0.785156,0.78516 0,0.42187 0.351562,0.77344 0.785156,0.77344 0.410156,0 0.773438,-0.33985 0.773438,-0.77344 z m 1.986328,2.58984 v 3.08203 h -0.691407 v 0.46875 c 0.28125,-0.0117 0.878907,-0.0352 1.253907,-0.0352 0.398437,0 0.984375,0.0234 1.253906,0.0352 v -0.46875 h -0.679688 v -2.08593 c 0,-1.07813 0.855469,-1.57032 1.476563,-1.57032 0.339844,0 0.550781,0.21094 0.550781,0.97266 v 2.68359 h -0.679687 v 0.46875 c 0.269531,-0.0117 0.867187,-0.0352 1.253906,-0.0352 0.386719,0 0.972656,0.0234 1.253906,0.0352 v -0.46875 h -0.691406 v -2.57812 c 0,-1.04297 -0.539063,-1.44141 -1.535156,-1.44141 -0.949219,0 -1.476563,0.57422 -1.746094,1.07813 v -1.07813 l -1.710938,0.082 v 0.46875 c 0.621094,0 0.691407,0 0.691407,0.38672 z m 8.053711,-0.0469 v -2.76562 h 1.171875 c 1.605468,0 1.617187,0.77343 1.617187,1.38281 0,0.5625 0,1.38281 -1.640625,1.38281 z m 2.660156,0.21094 c 1.148437,-0.30469 1.652344,-0.94922 1.652344,-1.60547 0,-1.00781 -1.089844,-1.83984 -2.964844,-1.83984 h -3.785156 v 0.46875 h 1.078125 v 5.89453 h -1.078125 v 0.46875 c 0.363281,-0.0352 1.335937,-0.0352 1.757812,-0.0352 0.410156,0 1.394531,0 1.746094,0.0352 v -0.46875 h -1.066406 v -2.76563 h 1.160156 c 0.140625,0 0.574219,0 0.890625,0.33985 0.316406,0.33984 0.316406,0.53906 0.316406,1.26562 0,0.65625 0,1.13672 0.691406,1.47656 0.445313,0.22266 1.054688,0.25782 1.464844,0.25782 1.066406,0 1.195313,-0.89063 1.195313,-1.05469 0,-0.21094 -0.140625,-0.21094 -0.234375,-0.21094 -0.210938,0 -0.222657,0.0937 -0.234375,0.22266 -0.04687,0.46875 -0.339844,0.6914 -0.632813,0.6914 -0.597656,0 -0.691406,-0.71484 -0.738281,-1.125 -0.02344,-0.11719 -0.09375,-0.79688 -0.105469,-0.85547 -0.140625,-0.69141 -0.691406,-0.99609 -1.113281,-1.16016 z m 6.834961,2.625 c 0,0.30469 0,0.76172 1.03125,0.76172 h 0.480469 c 0.199218,0 0.316406,0 0.316406,-0.23438 0,-0.23437 -0.128906,-0.23437 -0.257813,-0.23437 -0.609375,-0.0117 -0.609375,-0.14063 -0.609375,-0.36328 v -2.14453 c 0,-0.89063 -0.703125,-1.53516 -2.191406,-1.53516 -0.5625,0 -1.78125,0.0352 -1.78125,0.91406 0,0.44531 0.351563,0.63281 0.621094,0.63281 0.304687,0 0.621094,-0.21093 0.621094,-0.63281 0,-0.29297 -0.1875,-0.46875 -0.210938,-0.49219 0.28125,-0.0586 0.597656,-0.0586 0.714844,-0.0586 0.75,0 1.089844,0.41016 1.089844,1.17188 v 0.33983 c -0.703125,0.0234 -3.234375,0.11719 -3.234375,1.5586 0,0.96094 1.242187,1.13672 1.921875,1.13672 0.796875,0 1.265625,-0.41016 1.488281,-0.82032 z m -0.175781,-1.57031 v 0.94922 c 0,0.94921 -0.914063,1.07812 -1.160157,1.07812 -0.503906,0 -0.902343,-0.33984 -0.902343,-0.78516 0,-1.0664 1.570312,-1.20703 2.0625,-1.24218 z m 3.155273,-1.21875 v 3.08203 h -0.691406 v 0.46875 c 0.28125,-0.0117 0.878906,-0.0352 1.253906,-0.0352 0.398437,0 0.984375,0.0234 1.253906,0.0352 v -0.46875 h -0.679687 v -2.08594 c 0,-1.07812 0.855468,-1.57031 1.476562,-1.57031 0.339844,0 0.550781,0.21094 0.550781,0.97265 v 2.6836 h -0.679687 v 0.46875 c 0.269531,-0.0117 0.867187,-0.0352 1.253906,-0.0352 0.386719,0 0.972656,0.0234 1.253906,0.0352 v -0.46875 h -0.691406 v -2.57813 c 0,-1.04297 -0.539062,-1.4414 -1.535156,-1.4414 -0.949219,0 -1.476563,0.57422 -1.746094,1.07812 v -1.07812 l -1.710937,0.082 v 0.46875 c 0.621093,0 0.691406,0 0.691406,0.38672 z m 7.769531,1.65234 c -0.878906,0 -0.878906,-0.65625 -0.878906,-1.11328 0,-0.44531 0,-1.11328 0.878906,-1.11328 0.878906,0 0.878906,0.66797 0.878906,1.11328 0,0.45703 0,1.11328 -0.878906,1.11328 z m -1.21875,0.10547 c 0.457031,0.23437 0.972656,0.25781 1.21875,0.25781 1.429688,0 1.980469,-0.77344 1.980469,-1.47656 0,-0.46875 -0.246094,-0.79688 -0.398438,-0.94922 0.292969,-0.16406 0.503907,-0.1875 0.621094,-0.1875 -0.02344,0.0469 -0.04687,0.12891 -0.04687,0.19922 0,0.24609 0.175781,0.42187 0.433594,0.42187 0.257812,0 0.421875,-0.1875 0.421875,-0.42187 0,-0.23438 -0.164063,-0.58594 -0.621094,-0.58594 -0.152344,0 -0.621094,0.0352 -1.054687,0.38672 -0.1875,-0.12891 -0.597657,-0.33984 -1.335938,-0.33984 -1.441406,0 -1.980469,0.78515 -1.980469,1.47656 0,0.41016 0.199219,0.82031 0.515625,1.05469 -0.28125,0.33984 -0.339843,0.66797 -0.339843,0.8789 0,0.15235 0.03516,0.64453 0.433593,0.96094 -0.128906,0.0234 -0.855468,0.23438 -0.855468,0.86719 0,0.5039 0.550781,1.2539 2.542968,1.2539 1.757813,0 2.542969,-0.58593 2.542969,-1.28906 0,-0.29297 -0.08203,-0.92578 -0.75,-1.26562 -0.5625,-0.28125 -1.160156,-0.28125 -2.109375,-0.28125 -0.257812,0 -0.714844,0 -0.773437,0 -0.433594,-0.0703 -0.539063,-0.45703 -0.539063,-0.63282 0,-0.0937 0.03516,-0.24609 0.09375,-0.32812 z m 0.621094,1.92187 h 1.160156 c 0.316406,0 1.441406,0 1.441406,0.6211 0,0.35156 -0.398437,0.89062 -1.6875,0.89062 -1.195312,0 -1.6875,-0.45703 -1.6875,-0.91406 0,-0.59766 0.632813,-0.59766 0.773438,-0.59766 z m 8.390625,-2.29687 c 0.210937,0 0.316406,0 0.316406,-0.26953 0,-0.31641 -0.05859,-1.04297 -0.5625,-1.53516 -0.363281,-0.36328 -0.890625,-0.53906 -1.582031,-0.53906 -1.59375,0 -2.460938,1.01953 -2.460938,2.27344 0,1.33593 0.996094,2.29687 2.601563,2.29687 1.570312,0 2.003906,-1.05469 2.003906,-1.21875 0,-0.1875 -0.1875,-0.1875 -0.234375,-0.1875 -0.175781,0 -0.199219,0.0469 -0.257812,0.21094 -0.210938,0.48047 -0.773438,0.79687 -1.417969,0.79687 -1.40625,0 -1.417969,-1.32421 -1.417969,-1.82812 z m -3.011719,-0.32813 c 0.02344,-0.39843 0.03516,-0.80859 0.234375,-1.13671 0.269531,-0.39844 0.667969,-0.51563 0.949219,-0.51563 1.171875,0 1.183594,1.30078 1.195312,1.65234 z m 0,0"
         style="fill:#ffffff;fill-opacity:1;fill-rule:nonzero;stroke:none" />
      <path
         id="path54"
         d="m -54.852251,-276.07227 c 0,-0.36328 -0.292969,-0.6211 -0.609375,-0.6211 -0.386719,0 -0.632813,0.30469 -0.632813,0.60938 0,0.375 0.304688,0.63281 0.621094,0.63281 0.375,0 0.621094,-0.30469 0.621094,-0.62109 z m 5.229492,0 c 0,-0.36328 -0.292969,-0.6211 -0.609375,-0.6211 -0.386719,0 -0.632813,0.30469 -0.632813,0.60938 0,0.375 0.304688,0.63281 0.621094,0.63281 0.375,0 0.621094,-0.30469 0.621094,-0.62109 z m 5.232422,0 c 0,-0.36328 -0.292969,-0.6211 -0.609375,-0.6211 -0.386719,0 -0.632813,0.30469 -0.632813,0.60938 0,0.375 0.304688,0.63281 0.621094,0.63281 0.375,0 0.621094,-0.30469 0.621094,-0.62109 z m 0,0"
         style="fill:#ffffff;fill-opacity:1;fill-rule:nonzero;stroke:none" />
    </g>
    <path
       id="path55"
       d="M 39.42325,58.578523 V 50.259857"
       style="fill:none;stroke:#ffffff;stroke-width:0.697333;stroke-linecap:butt;stroke-linejoin:miter;stroke-miterlimit:10;stroke-dasharray:none;stroke-opacity:1" />
    <path
       id="path56"
       d="m 39.07392,58.229193 h 3.836"
       style="fill:none;stroke:#ffffff;stroke-width:0.697333;stroke-linecap:butt;stroke-linejoin:miter;stroke-miterlimit:10;stroke-dasharray:none;stroke-opacity:1" />
    <path
       id="path57"
       d="m 42.90992,58.229193 h 6.973334"
       style="fill:none;stroke:#ffffff;stroke-width:0.697333;stroke-linecap:butt;stroke-linejoin:miter;stroke-miterlimit:10;stroke-dasharray:none;stroke-opacity:1" />
    <path
       id="path58"
       d="m 49.88325,58.229193 h 6.973334"
       style="fill:none;stroke:#ffffff;stroke-width:0.697333;stroke-linecap:butt;stroke-linejoin:miter;stroke-miterlimit:10;stroke-dasharray:none;stroke-opacity:1" />
    <path
       id="path59"
       d="m 67.784157,58.026558 c -0.296876,-0.04687 -0.5625,-0.09375 -0.890625,-0.15625 -0.390625,-0.04687 -1.296875,-0.21875 -1.296875,-0.734375 0,-0.34375 0.421875,-0.75 1.6875,-0.75 1.109374,0 1.28125,0.390625 1.328124,0.734375 0.01563,0.234375 0.04687,0.453125 0.453126,0.453125 0.46875,0 0.46875,-0.28125 0.46875,-0.546875 v -0.90625 c 0,-0.21875 0,-0.546875 -0.40625,-0.546875 -0.3125,0 -0.375,0.1875 -0.390626,0.28125 -0.59375,-0.28125 -1.171874,-0.28125 -1.421874,-0.28125 -2.21875,0 -2.53125,1.09375 -2.53125,1.5625 0,1.21875 1.390625,1.453125 2.625,1.640625 0.640624,0.109375 1.703124,0.28125 1.703124,0.984375 0,0.484375 -0.484374,0.921875 -1.6875,0.921875 -0.624999,0 -1.374999,-0.140625 -1.703124,-1.171875 -0.07813,-0.25 -0.125,-0.390625 -0.46875,-0.390625 -0.46875,0 -0.46875,0.28125 -0.46875,0.546875 v 1.28125 c 0,0.21875 0,0.546875 0.40625,0.546875 0.109374,0 0.328125,-0.01563 0.484375,-0.5 0.65625,0.46875 1.359375,0.5 1.734375,0.5 2.09375,0 2.515624,-1.09375 2.515624,-1.734375 0,-1.390625 -1.703124,-1.671875 -2.140624,-1.734375 z m 5.222656,-0.109375 c 0,-0.796875 0.765625,-1.5 1.609375,-1.5 0.984375,0 1.75,0.96875 1.75,2.125 0,1.28125 -0.921875,2.140625 -1.859375,2.140625 -1.03125,0 -1.5,-1.171875 -1.5,-1.796875 z m 0,2.90625 c 0.546875,0.546875 1.125,0.671875 1.546875,0.671875 1.4375,0 2.734374,-1.265625 2.734374,-2.953125 0,-1.625 -1.187499,-2.921875 -2.593749,-2.921875 -0.640625,0 -1.234375,0.234375 -1.6875,0.640625 0,-0.375 -0.03125,-0.5625 -0.53125,-0.5625 h -0.96875 c -0.21875,0 -0.546875,0 -0.546875,0.40625 0,0.390625 0.34375,0.390625 0.53125,0.390625 h 0.59375 v 7.0625 h -0.578125 c -0.21875,0 -0.546875,0 -0.546875,0.40625 0,0.40625 0.34375,0.40625 0.53125,0.40625 h 2.109375 c 0.1875,0 0.53125,0 0.53125,-0.40625 0,-0.40625 -0.328125,-0.40625 -0.53125,-0.40625 h -0.59375 z m 8.882812,-4.59375 c 0,-0.40625 -0.07812,-0.53125 -0.53125,-0.53125 H 79.46775 c -0.203125,0 -0.546875,0 -0.546875,0.390625 0,0.40625 0.34375,0.40625 0.546875,0.40625 h 1.5 v 4.109375 h -1.609375 c -0.203125,0 -0.546874,0 -0.546874,0.40625 0,0.40625 0.343749,0.40625 0.546874,0.40625 h 3.921875 c 0.203125,0 0.546875,0 0.546875,-0.40625 0,-0.40625 -0.34375,-0.40625 -0.546875,-0.40625 h -1.390625 z m 0,-2.28125 c 0,-0.375 -0.296875,-0.65625 -0.671875,-0.65625 -0.375,0 -0.656249,0.28125 -0.656249,0.65625 0,0.375 0.281249,0.671875 0.656249,0.671875 0.375,0 0.671875,-0.296875 0.671875,-0.671875 z m 5.066406,2.375 c 0,-0.4375 0,-0.625 -0.531251,-0.625 h -0.968749 c -0.21875,0 -0.546874,0 -0.546874,0.40625 0,0.390625 0.343749,0.390625 0.531249,0.390625 h 0.59375 v 4.109375 h -0.578125 c -0.21875,0 -0.546874,0 -0.546874,0.40625 0,0.40625 0.343749,0.40625 0.531249,0.40625 h 2.109374 c 0.1875,0 0.531251,0 0.531251,-0.40625 0,-0.40625 -0.328125,-0.40625 -0.531251,-0.40625 h -0.593749 v -2.34375 c 0,-1.328125 0.984375,-1.84375 1.656249,-1.84375 0.703126,0 0.890626,0.375 0.890626,1.171875 v 3.015625 H 88.98728 c -0.203124,0 -0.546874,0 -0.546874,0.40625 0,0.40625 0.359374,0.40625 0.546874,0.40625 h 2.031251 c 0.1875,0 0.531249,0 0.531249,-0.40625 0,-0.40625 -0.328124,-0.40625 -0.546874,-0.40625 H 90.42478 v -3.078125 c 0,-1.34375 -0.671874,-1.90625 -1.734374,-1.90625 -0.875,0 -1.484375,0.4375 -1.734375,0.703125 z m 8.722656,1.703125 c -0.296875,-0.04687 -0.5625,-0.09375 -0.890625,-0.15625 -0.390624,-0.04687 -1.296875,-0.21875 -1.296875,-0.734375 0,-0.34375 0.421875,-0.75 1.6875,-0.75 1.109375,0 1.281251,0.390625 1.328125,0.734375 0.01563,0.234375 0.04688,0.453125 0.453126,0.453125 0.468749,0 0.468749,-0.28125 0.468749,-0.546875 v -0.90625 c 0,-0.21875 0,-0.546875 -0.406249,-0.546875 -0.3125,0 -0.375,0.1875 -0.390626,0.28125 -0.59375,-0.28125 -1.171874,-0.28125 -1.421874,-0.28125 -2.218751,0 -2.531251,1.09375 -2.531251,1.5625 0,1.21875 1.390625,1.453125 2.625,1.640625 0.640625,0.109375 1.703125,0.28125 1.703125,0.984375 0,0.484375 -0.484374,0.921875 -1.6875,0.921875 -0.625,0 -1.375,-0.140625 -1.703125,-1.171875 -0.07812,-0.25 -0.125,-0.390625 -0.468749,-0.390625 -0.468751,0 -0.468751,0.28125 -0.468751,0.546875 v 1.28125 c 0,0.21875 0,0.546875 0.406251,0.546875 0.109373,0 0.328124,-0.01563 0.484374,-0.5 0.65625,0.46875 1.359375,0.5 1.734375,0.5 2.093751,0 2.515625,-1.09375 2.515625,-1.734375 0,-1.390625 -1.703125,-1.671875 -2.140625,-1.734375 z m 9.101563,-5.046875 c 0.0937,-0.203125 0.10937,-0.203125 0.10937,-0.3125 0,-0.234375 -0.20312,-0.46875 -0.46875,-0.46875 -0.28125,0 -0.375,0.203125 -0.45312,0.375 l -4.390627,9.15625 c -0.09375,0.21875 -0.109374,0.21875 -0.109374,0.328125 0,0.234375 0.203126,0.46875 0.468751,0.46875 0.29687,0 0.39062,-0.203125 0.46875,-0.375 z m 0,0"
       style="fill:#c25ccc;fill-opacity:1;fill-rule:nonzero;stroke:none;stroke-width:1.33333"
       aria-label="spins/" />
    <path
       id="path60"
       d="M 67.31792,82.139853 V 66.199854"
       style="fill:none;stroke:#ffffff;stroke-width:0.697333;stroke-linecap:butt;stroke-linejoin:miter;stroke-miterlimit:10;stroke-dasharray:none;stroke-opacity:1" />
    <path
       id="path61"
       d="m 66.96992,74.169193 h 3.836"
       style="fill:none;stroke:#ffffff;stroke-width:0.697333;stroke-linecap:butt;stroke-linejoin:miter;stroke-miterlimit:10;stroke-dasharray:none;stroke-opacity:1" />
    <path
       id="path62"
       d="m 70.80458,74.169193 h 6.973334"
       style="fill:none;stroke:#ffffff;stroke-width:0.697333;stroke-linecap:butt;stroke-linejoin:miter;stroke-miterlimit:10;stroke-dasharray:none;stroke-opacity:1" />
    <path
       id="path63"
       d="m 77.77925,74.169193 h 6.973334"
       style="fill:none;stroke:#ffffff;stroke-width:0.697333;stroke-linecap:butt;stroke-linejoin:miter;stroke-miterlimit:10;stroke-dasharray:none;stroke-opacity:1" />
    <path
       id="path64"
       d="m 94.678691,72.436714 h 2.171875 c 0.203125,0 0.53125,0 0.53125,-0.390625 0,-0.40625 -0.3125,-0.40625 -0.53125,-0.40625 h -2.171875 v -1.09375 c 0,-0.25 0,-0.546875 -0.453125,-0.546875 -0.46875,0 -0.46875,0.28125 -0.46875,0.546875 v 1.09375 h -1.15625 c -0.203125,0 -0.546875,0 -0.546875,0.40625 0,0.390625 0.34375,0.390625 0.53125,0.390625 h 1.171875 v 3.25 c 0,1.265625 0.90625,1.75 1.875,1.75 0.984375,0 2.0625,-0.5625 2.0625,-1.75 0,-0.234375 0,-0.515625 -0.46875,-0.515625 -0.4375,0 -0.453125,0.28125 -0.453125,0.5 -0.01563,0.828125 -0.765625,0.953125 -1.078125,0.953125 -1.015625,0 -1.015625,-0.6875 -1.015625,-1.015625 z m 9.738279,0 h 0.39063 c 0.20312,0 0.53125,0 0.53125,-0.390625 0,-0.40625 -0.3125,-0.40625 -0.53125,-0.40625 h -1.54688 c -0.20312,0 -0.53125,0 -0.53125,0.390625 0,0.40625 0.3125,0.40625 0.53125,0.40625 h 0.35938 l -0.95313,2.84375 c -0.17187,0.484375 -0.25,0.71875 -0.34375,1.140625 h -0.0156 c -0.0625,-0.265625 -0.1875,-0.53125 -0.28125,-0.796875 l -1.23438,-3.1875 h 0.34375 c 0.1875,0 0.53125,0 0.53125,-0.390625 0,-0.40625 -0.32812,-0.40625 -0.53125,-0.40625 h -1.562498 c -0.203125,0 -0.53125,0 -0.53125,0.40625 0,0.390625 0.328125,0.390625 0.53125,0.390625 h 0.40625 l 1.890628,4.75 c 0.0625,0.125 0.0625,0.15625 0.0625,0.171875 0,0.03125 -0.34375,1.109375 -0.51563,1.453125 -0.375,0.71875 -0.85937,0.75 -1.0625,0.765625 0,-0.01563 0.0781,-0.125 0.0781,-0.296875 0,-0.328125 -0.25,-0.5625 -0.578127,-0.5625 -0.359375,0 -0.578125,0.234375 -0.578125,0.578125 0,0.5625 0.4375,1.09375 1.093752,1.09375 1.32812,0 1.92187,-1.75 1.98437,-1.90625 z m 3.46094,1.421875 c 0,-0.796875 0.76562,-1.5 1.60937,-1.5 0.98438,0 1.75,0.96875 1.75,2.125 0,1.28125 -0.92187,2.140625 -1.85937,2.140625 -1.03125,0 -1.5,-1.171875 -1.5,-1.796875 z m 0,2.90625 c 0.54687,0.546875 1.125,0.671875 1.54687,0.671875 1.4375,0 2.73438,-1.265625 2.73438,-2.953125 0,-1.625 -1.1875,-2.921875 -2.59375,-2.921875 -0.64063,0 -1.23438,0.234375 -1.6875,0.640625 0,-0.375 -0.0312,-0.5625 -0.53125,-0.5625 h -0.96875 c -0.21875,0 -0.54688,0 -0.54688,0.40625 0,0.390625 0.34375,0.390625 0.53125,0.390625 h 0.59375 v 7.0625 h -0.57812 c -0.21875,0 -0.54688,0 -0.54688,0.40625 0,0.40625 0.34375,0.40625 0.53125,0.40625 h 2.10938 c 0.1875,0 0.53125,0 0.53125,-0.40625 0,-0.40625 -0.32813,-0.40625 -0.53125,-0.40625 h -0.59375 z m 10.39453,-1.9375 c 0.28125,0 0.53125,0 0.53125,-0.5 0,-1.515625 -0.84375,-2.8125 -2.5625,-2.8125 -1.59375,0 -2.85937,1.328125 -2.85937,2.96875 0,1.609375 1.34375,2.953125 3.04687,2.953125 1.75,0 2.375,-1.1875 2.375,-1.53125 0,-0.359375 -0.375,-0.359375 -0.45312,-0.359375 -0.25,0 -0.34375,0.03125 -0.4375,0.28125 -0.29688,0.6875 -1.01563,0.796875 -1.39063,0.796875 -1,0 -1.98437,-0.65625 -2.20312,-1.796875 z m -3.9375,-0.796875 c 0.1875,-0.96875 0.96875,-1.703125 1.90625,-1.703125 0.6875,0 1.5,0.328125 1.625,1.703125 z m 9.59766,-1.5625 c 0,-0.484375 -0.39063,-0.828125 -0.8125,-0.828125 -0.51563,0 -0.84375,0.40625 -0.84375,0.8125 0,0.5 0.40625,0.84375 0.82812,0.84375 0.5,0 0.82813,-0.40625 0.82813,-0.828125 z m 0,4.0625 c 0,-0.484375 -0.39063,-0.828125 -0.8125,-0.828125 -0.51563,0 -0.84375,0.40625 -0.84375,0.8125 0,0.5 0.40625,0.84375 0.82812,0.84375 0.5,0 0.82813,-0.40625 0.82813,-0.828125 z m 6.97656,-4.0625 c 0,-0.484375 -0.39063,-0.828125 -0.8125,-0.828125 -0.51563,0 -0.84375,0.40625 -0.84375,0.8125 0,0.5 0.40625,0.84375 0.82812,0.84375 0.5,0 0.82813,-0.40625 0.82813,-0.828125 z m 0,4.0625 c 0,-0.484375 -0.39063,-0.828125 -0.8125,-0.828125 -0.51563,0 -0.84375,0.40625 -0.84375,0.8125 0,0.5 0.40625,0.84375 0.82812,0.84375 0.5,0 0.82813,-0.40625 0.82813,-0.828125 z m 6.59766,-2.8125 c 0.35937,0.07813 1.46874,0.34375 1.46874,1.5 0,0.6875 -0.57812,1.46875 -1.625,1.46875 -0.375,0 -1.01562,-0.04687 -1.54687,-0.40625 -0.5625,-0.359375 -0.60937,-0.921875 -0.625,-1.15625 -0.0156,-0.21875 -0.0312,-0.46875 -0.45313,-0.46875 -0.46874,0 -0.46874,0.28125 -0.46874,0.546875 v 1.75 c 0,0.21875 0,0.546875 0.40624,0.546875 0.28126,0 0.375,-0.1875 0.48438,-0.609375 0.53125,0.40625 1.34375,0.609375 2.1875,0.609375 1.54688,0 2.5,-1.15625 2.5,-2.34375 0,-0.859375 -0.46875,-1.40625 -0.64062,-1.578125 -0.53126,-0.53125 -0.89063,-0.625 -1.9375,-0.875 l -1.07813,-0.234375 c -0.54687,-0.15625 -1.0625,-0.625 -1.0625,-1.25 0,-0.671875 0.65625,-1.3125 1.59375,-1.3125 1.57812,0 1.78125,1.25 1.85938,1.65625 0.0312,0.296875 0.1875,0.375 0.45312,0.375 0.45312,0 0.45312,-0.28125 0.45312,-0.546875 v -1.75 c 0,-0.203125 0,-0.546875 -0.39062,-0.546875 -0.32812,0 -0.39062,0.234375 -0.5,0.625 -0.54688,-0.46875 -1.25,-0.625 -1.85938,-0.625 -1.46874,0 -2.46874,1.046875 -2.46874,2.1875 0,0.890625 0.60937,1.765625 1.71874,2.078125 0.0469,0.01563 1.34376,0.328125 1.53126,0.359375 z m 5.98828,-1.28125 h 2.17187 c 0.20313,0 0.53125,0 0.53125,-0.390625 0,-0.40625 -0.3125,-0.40625 -0.53125,-0.40625 h -2.17187 v -1.09375 c 0,-0.25 0,-0.546875 -0.45313,-0.546875 -0.46875,0 -0.46875,0.28125 -0.46875,0.546875 v 1.09375 h -1.15625 c -0.20312,0 -0.54687,0 -0.54687,0.40625 0,0.390625 0.34375,0.390625 0.53125,0.390625 h 1.17187 v 3.25 c 0,1.265625 0.90625,1.75 1.875,1.75 0.98438,0 2.0625,-0.5625 2.0625,-1.75 0,-0.234375 0,-0.515625 -0.46875,-0.515625 -0.4375,0 -0.45312,0.28125 -0.45312,0.5 -0.0156,0.828125 -0.76563,0.953125 -1.07813,0.953125 -1.01562,0 -1.01562,-0.6875 -1.01562,-1.015625 z m 6.97265,2.453125 c 0,-1.25 0.78125,-2.53125 2.39063,-2.53125 0.0156,0.328125 0.23437,0.59375 0.5625,0.59375 0.29687,0 0.5625,-0.21875 0.5625,-0.578125 0,-0.265625 -0.15625,-0.8125 -1.26563,-0.8125 -0.67187,0 -1.53125,0.234375 -2.25,1.0625 v -0.453125 c 0,-0.40625 -0.0781,-0.53125 -0.53125,-0.53125 h -1.46875 c -0.20312,0 -0.53125,0 -0.53125,0.390625 0,0.40625 0.32813,0.40625 0.53125,0.40625 h 1.07813 v 4.109375 h -1.07813 c -0.20312,0 -0.53125,0 -0.53125,0.40625 0,0.40625 0.32813,0.40625 0.53125,0.40625 h 3.46875 c 0.20313,0 0.54688,0 0.54688,-0.40625 0,-0.40625 -0.34375,-0.40625 -0.54688,-0.40625 h -1.46875 z m 8.13281,-2.71875 c 0,-0.40625 -0.0781,-0.53125 -0.53125,-0.53125 h -1.89062 c -0.20313,0 -0.54688,0 -0.54688,0.390625 0,0.40625 0.34375,0.40625 0.54688,0.40625 h 1.5 v 4.109375 h -1.60938 c -0.20312,0 -0.54687,0 -0.54687,0.40625 0,0.40625 0.34375,0.40625 0.54687,0.40625 h 3.92188 c 0.20312,0 0.54687,0 0.54687,-0.40625 0,-0.40625 -0.34375,-0.40625 -0.54687,-0.40625 h -1.39063 z m 0,-2.28125 c 0,-0.375 -0.29687,-0.65625 -0.67187,-0.65625 -0.375,0 -0.65625,0.28125 -0.65625,0.65625 0,0.375 0.28125,0.671875 0.65625,0.671875 0.375,0 0.67187,-0.296875 0.67187,-0.671875 z m 5.06641,2.375 c 0,-0.4375 0,-0.625 -0.53125,-0.625 h -0.96875 c -0.21875,0 -0.54687,0 -0.54687,0.40625 0,0.390625 0.34375,0.390625 0.53125,0.390625 h 0.59375 v 4.109375 h -0.57813 c -0.21875,0 -0.54687,0 -0.54687,0.40625 0,0.40625 0.34375,0.40625 0.53125,0.40625 h 2.10937 c 0.1875,0 0.53125,0 0.53125,-0.40625 0,-0.40625 -0.32812,-0.40625 -0.53125,-0.40625 h -0.59375 v -2.34375 c 0,-1.328125 0.98438,-1.84375 1.65625,-1.84375 0.70313,0 0.89063,0.375 0.89063,1.171875 v 3.015625 h -0.51563 c -0.20312,0 -0.54687,0 -0.54687,0.40625 0,0.40625 0.35937,0.40625 0.54687,0.40625 h 2.03125 c 0.1875,0 0.53125,0 0.53125,-0.40625 0,-0.40625 -0.32812,-0.40625 -0.54687,-0.40625 h -0.57813 v -3.078125 c 0,-1.34375 -0.67187,-1.90625 -1.73437,-1.90625 -0.875,0 -1.48438,0.4375 -1.73438,0.703125 z m 7.86328,2.75 c -0.71875,0 -1.28125,-0.625 -1.28125,-1.328125 0,-0.75 0.59375,-1.328125 1.28125,-1.328125 0.71875,0 1.28125,0.609375 1.28125,1.328125 0,0.75 -0.59375,1.328125 -1.28125,1.328125 z m -1.1875,0.46875 c 0.0313,0.03125 0.53125,0.328125 1.1875,0.328125 1.21875,0 2.1875,-0.953125 2.1875,-2.125 0,-0.40625 -0.10937,-0.796875 -0.34375,-1.15625 0.28125,-0.171875 0.59375,-0.21875 0.78125,-0.234375 0.0781,0.359375 0.375,0.453125 0.51563,0.453125 0.21875,0 0.53125,-0.15625 0.53125,-0.546875 0,-0.296875 -0.25,-0.71875 -0.96875,-0.71875 -0.15625,0 -0.79688,0.01563 -1.40625,0.46875 -0.21875,-0.140625 -0.6875,-0.390625 -1.29688,-0.390625 -1.25,0 -2.1875,0.984375 -2.1875,2.125 0,0.5625 0.21875,1 0.42188,1.25 -0.14063,0.21875 -0.26563,0.515625 -0.26563,0.90625 0,0.46875 0.1875,0.796875 0.3125,0.953125 -0.98437,0.609375 -0.98437,1.5 -0.98437,1.65625 0,1.140625 1.39062,1.953125 3.09375,1.953125 1.70312,0 3.09375,-0.828125 3.09375,-1.953125 0,-0.5 -0.25,-1.15625 -0.92188,-1.515625 -0.17187,-0.09375 -0.73437,-0.390625 -1.92187,-0.390625 h -0.9375 c -0.0937,0 -0.26563,0 -0.375,-0.03125 -0.20313,0 -0.28125,0 -0.4375,-0.171875 -0.15625,-0.1875 -0.17188,-0.453125 -0.17188,-0.484375 0,-0.04687 0.0313,-0.234375 0.0937,-0.375 z m 1.57813,4.125 c -1.32813,0 -2.32813,-0.578125 -2.32813,-1.15625 0,-0.25 0.125,-0.671875 0.54688,-0.9375 0.32812,-0.203125 0.45312,-0.203125 1.42187,-0.203125 1.17188,0 2.67188,0 2.67188,1.140625 0,0.578125 -0.98438,1.15625 -2.3125,1.15625 z m 0,0"
       style="fill:#00a650;fill-opacity:1;fill-rule:nonzero;stroke:none;stroke-width:1.33333"
       aria-label="type::String" />
    <path
       id="path65"
       d="m 188.2451,72.749214 c 0.15625,0 0.59375,0 0.59375,-0.46875 0,-0.453125 -0.48438,-0.453125 -0.67188,-0.453125 h -4.59375 c -0.1875,0 -0.6875,0 -0.6875,0.453125 0,0.46875 0.4375,0.46875 0.60938,0.46875 z m -0.0781,2.015625 c 0.1875,0 0.67188,0 0.67188,-0.46875 0,-0.453125 -0.4375,-0.453125 -0.59375,-0.453125 h -4.75 c -0.17188,0 -0.60938,0 -0.60938,0.453125 0,0.46875 0.5,0.46875 0.6875,0.46875 z m 11.0586,-4.9375 c 0.0469,-0.625 -0.40625,-0.734375 -0.57813,-0.734375 -0.25,0 -0.64062,0.15625 -0.59375,0.734375 l 0.17188,2.703125 c 0.0156,0.1875 0.0469,0.46875 0.42187,0.46875 0.32813,0 0.39063,-0.234375 0.40625,-0.46875 z m 2.35937,0 c 0.0312,-0.625 -0.42187,-0.734375 -0.59375,-0.734375 -0.25,0 -0.625,0.15625 -0.59375,0.734375 l 0.17188,2.703125 c 0.0156,0.1875 0.0625,0.46875 0.42187,0.46875 0.34375,0 0.40625,-0.234375 0.42188,-0.46875 z m 5.66016,3.890625 c 0.35937,0.07813 1.46875,0.34375 1.46875,1.5 0,0.6875 -0.57813,1.46875 -1.625,1.46875 -0.375,0 -1.01563,-0.04687 -1.54688,-0.40625 -0.5625,-0.359375 -0.60937,-0.921875 -0.625,-1.15625 -0.0156,-0.21875 -0.0312,-0.46875 -0.45312,-0.46875 -0.46875,0 -0.46875,0.28125 -0.46875,0.546875 v 1.75 c 0,0.21875 0,0.546875 0.40625,0.546875 0.28125,0 0.375,-0.1875 0.48437,-0.609375 0.53125,0.40625 1.34375,0.609375 2.1875,0.609375 1.54688,0 2.5,-1.15625 2.5,-2.34375 0,-0.859375 -0.46875,-1.40625 -0.64062,-1.578125 -0.53125,-0.53125 -0.89063,-0.625 -1.9375,-0.875 L 205.917,72.467964 c -0.54687,-0.15625 -1.0625,-0.625 -1.0625,-1.25 0,-0.671875 0.65625,-1.3125 1.59375,-1.3125 1.57813,0 1.78125,1.25 1.85938,1.65625 0.0312,0.296875 0.1875,0.375 0.45312,0.375 0.45313,0 0.45313,-0.28125 0.45313,-0.546875 v -1.75 c 0,-0.203125 0,-0.546875 -0.39063,-0.546875 -0.32812,0 -0.39062,0.234375 -0.5,0.625 -0.54687,-0.46875 -1.25,-0.625 -1.85937,-0.625 -1.46875,0 -2.46875,1.046875 -2.46875,2.1875 0,0.890625 0.60937,1.765625 1.71875,2.078125 0.0469,0.01563 1.34375,0.328125 1.53125,0.359375 z m 5.23828,0.140625 c 0,-0.796875 0.76562,-1.5 1.60937,-1.5 0.98438,0 1.75,0.96875 1.75,2.125 0,1.28125 -0.92187,2.140625 -1.85937,2.140625 -1.03125,0 -1.5,-1.171875 -1.5,-1.796875 z m 0,2.90625 c 0.54687,0.546875 1.125,0.671875 1.54687,0.671875 1.4375,0 2.73438,-1.265625 2.73438,-2.953125 0,-1.625 -1.1875,-2.921875 -2.59375,-2.921875 -0.64063,0 -1.23438,0.234375 -1.6875,0.640625 0,-0.375 -0.0313,-0.5625 -0.53125,-0.5625 h -0.96875 c -0.21875,0 -0.54688,0 -0.54688,0.40625 0,0.390625 0.34375,0.390625 0.53125,0.390625 h 0.59375 v 7.0625 h -0.57812 c -0.21875,0 -0.54688,0 -0.54688,0.40625 0,0.40625 0.34375,0.40625 0.53125,0.40625 h 2.10938 c 0.1875,0 0.53125,0 0.53125,-0.40625 0,-0.40625 -0.32813,-0.40625 -0.53125,-0.40625 h -0.59375 z m 8.8789,-4.59375 c 0,-0.40625 -0.0781,-0.53125 -0.53125,-0.53125 h -1.89062 c -0.20313,0 -0.54688,0 -0.54688,0.390625 0,0.40625 0.34375,0.40625 0.54688,0.40625 h 1.5 v 4.109375 h -1.60938 c -0.20312,0 -0.54687,0 -0.54687,0.40625 0,0.40625 0.34375,0.40625 0.54687,0.40625 h 3.92188 c 0.20312,0 0.54687,0 0.54687,-0.40625 0,-0.40625 -0.34375,-0.40625 -0.54687,-0.40625 h -1.39063 z m 0,-2.28125 c 0,-0.375 -0.29687,-0.65625 -0.67187,-0.65625 -0.375,0 -0.65625,0.28125 -0.65625,0.65625 0,0.375 0.28125,0.671875 0.65625,0.671875 0.375,0 0.67187,-0.296875 0.67187,-0.671875 z m 5.07032,2.375 c 0,-0.4375 0,-0.625 -0.53125,-0.625 h -0.96875 c -0.21875,0 -0.54688,0 -0.54688,0.40625 0,0.390625 0.34375,0.390625 0.53125,0.390625 h 0.59375 v 4.109375 h -0.57812 c -0.21875,0 -0.54688,0 -0.54688,0.40625 0,0.40625 0.34375,0.40625 0.53125,0.40625 h 2.10938 c 0.1875,0 0.53125,0 0.53125,-0.40625 0,-0.40625 -0.32813,-0.40625 -0.53125,-0.40625 h -0.59375 v -2.34375 c 0,-1.328125 0.98437,-1.84375 1.65625,-1.84375 0.70312,0 0.89062,0.375 0.89062,1.171875 v 3.015625 h -0.51562 c -0.20313,0 -0.54688,0 -0.54688,0.40625 0,0.40625 0.35938,0.40625 0.54688,0.40625 h 2.03125 c 0.1875,0 0.53125,0 0.53125,-0.40625 0,-0.40625 -0.32813,-0.40625 -0.54688,-0.40625 h -0.57812 v -3.078125 c 0,-1.34375 -0.67188,-1.90625 -1.73438,-1.90625 -0.875,0 -1.48437,0.4375 -1.73437,0.703125 z m 6.84765,-2.21875 h 0.95313 c 1.21875,0 1.79687,0.796875 1.79687,1.421875 0,0.65625 -0.59375,1.421875 -1.79687,1.421875 h -0.95313 z m 2.54688,3.28125 c 0.875,-0.5 1.125,-1.3125 1.125,-1.859375 0,-1.140625 -1.01563,-2.21875 -2.57813,-2.21875 h -2.34375 c -0.21875,0 -0.53125,0 -0.53125,0.40625 0,0.390625 0.32813,0.390625 0.53125,0.390625 h 0.32813 v 6.5 h -0.32813 c -0.21875,0 -0.53125,0 -0.53125,0.40625 0,0.40625 0.32813,0.40625 0.53125,0.40625 h 1.57813 c 0.20312,0 0.53125,0 0.53125,-0.40625 0,-0.40625 -0.32813,-0.40625 -0.53125,-0.40625 h -0.32813 v -2.84375 h 1.03125 c 0.25,0 0.65625,0 1.07813,0.375 0.28125,0.28125 0.28125,0.578125 0.28125,1.125 0,0.875 0,1.265625 0.26562,1.6875 0.21875,0.40625 0.59375,0.609375 1.04688,0.609375 0.82812,0 1.15625,-0.875 1.15625,-1.375 0,-0.421875 -0.32813,-0.421875 -0.46875,-0.421875 -0.14063,0 -0.4375,0 -0.45313,0.390625 0,0.109375 -0.0312,0.59375 -0.25,0.59375 -0.375,0 -0.375,-0.609375 -0.375,-1.3125 0,-0.828125 0,-0.9375 -0.125,-1.25 -0.15625,-0.375 -0.45312,-0.65625 -0.64062,-0.796875 z m 7.20703,3.609375 c 0.29687,0.40625 0.9375,0.421875 1.4375,0.421875 0.375,0 0.65625,0 0.65625,-0.40625 0,-0.40625 -0.32813,-0.40625 -0.53125,-0.40625 -0.54688,0 -0.6875,-0.0625 -0.79688,-0.109375 v -2.859375 c 0,-0.953125 -0.70312,-2.0625 -2.625,-2.0625 -0.5625,0 -1.92187,0 -1.92187,0.96875 0,0.40625 0.28125,0.609375 0.59375,0.609375 0.20312,0 0.57812,-0.125 0.59375,-0.609375 0,-0.109374 0,-0.125 0.26562,-0.140625 0.1875,-0.01563 0.35938,-0.01563 0.48438,-0.01563 1.01562,0 1.70312,0.40625 1.70312,1.359375 -2.35937,0.03125 -3.98437,0.703125 -3.98437,1.96875 0,0.921875 0.82812,1.78125 2.1875,1.78125 0.48437,0 1.3125,-0.09375 1.9375,-0.5 z m -0.14063,-2.46875 v 1.109375 c 0,0.3125 0,0.578125 -0.51562,0.828125 -0.48438,0.21875 -1.07813,0.21875 -1.1875,0.21875 -0.82813,0 -1.375,-0.453125 -1.375,-0.96875 0,-0.640625 1.15625,-1.140625 3.07812,-1.1875 z m 4.46094,-2.203125 c 0,-0.4375 0,-0.625 -0.53125,-0.625 h -0.96875 c -0.21875,0 -0.54687,0 -0.54687,0.40625 0,0.390625 0.34375,0.390625 0.53125,0.390625 h 0.59375 v 4.109375 h -0.57813 c -0.21875,0 -0.54687,0 -0.54687,0.40625 0,0.40625 0.34375,0.40625 0.53125,0.40625 h 2.10937 c 0.1875,0 0.53125,0 0.53125,-0.40625 0,-0.40625 -0.32812,-0.40625 -0.53125,-0.40625 h -0.59375 v -2.34375 c 0,-1.328125 0.98438,-1.84375 1.65625,-1.84375 0.70313,0 0.89063,0.375 0.89063,1.171875 v 3.015625 h -0.51563 c -0.20312,0 -0.54687,0 -0.54687,0.40625 0,0.40625 0.35937,0.40625 0.54687,0.40625 h 2.03125 c 0.1875,0 0.53125,0 0.53125,-0.40625 0,-0.40625 -0.32812,-0.40625 -0.54687,-0.40625 h -0.57813 v -3.078125 c 0,-1.34375 -0.67187,-1.90625 -1.73437,-1.90625 -0.875,0 -1.48438,0.4375 -1.73438,0.703125 z m 7.86328,2.75 c -0.71875,0 -1.28125,-0.625 -1.28125,-1.328125 0,-0.75 0.59375,-1.328125 1.28125,-1.328125 0.71875,0 1.28125,0.609375 1.28125,1.328125 0,0.75 -0.59375,1.328125 -1.28125,1.328125 z m -1.1875,0.46875 c 0.0313,0.03125 0.53125,0.328125 1.1875,0.328125 1.21875,0 2.1875,-0.953125 2.1875,-2.125 0,-0.40625 -0.10937,-0.796875 -0.34375,-1.15625 0.28125,-0.171875 0.59375,-0.21875 0.78125,-0.234375 0.0781,0.359375 0.375,0.453125 0.51563,0.453125 0.21875,0 0.53125,-0.15625 0.53125,-0.546875 0,-0.296875 -0.25,-0.71875 -0.96875,-0.71875 -0.15625,0 -0.79688,0.01563 -1.40625,0.46875 -0.21875,-0.140625 -0.6875,-0.390625 -1.29688,-0.390625 -1.25,0 -2.1875,0.984375 -2.1875,2.125 0,0.5625 0.21875,1 0.42188,1.25 -0.14063,0.21875 -0.26563,0.515625 -0.26563,0.90625 0,0.46875 0.1875,0.796875 0.3125,0.953125 -0.98437,0.609375 -0.98437,1.5 -0.98437,1.65625 0,1.140625 1.39062,1.953125 3.09375,1.953125 1.70312,0 3.09375,-0.828125 3.09375,-1.953125 0,-0.5 -0.25,-1.15625 -0.92188,-1.515625 -0.17187,-0.09375 -0.73437,-0.390625 -1.92187,-0.390625 h -0.9375 c -0.0937,0 -0.26563,0 -0.375,-0.03125 -0.20313,0 -0.28125,0 -0.4375,-0.171875 -0.15625,-0.1875 -0.17188,-0.453125 -0.17188,-0.484375 0,-0.04687 0.0312,-0.234375 0.0937,-0.375 z m 1.57813,4.125 c -1.32813,0 -2.32813,-0.578125 -2.32813,-1.15625 0,-0.25 0.125,-0.671875 0.54688,-0.9375 0.32812,-0.203125 0.45312,-0.203125 1.42187,-0.203125 1.17188,0 2.67188,0 2.67188,1.140625 0,0.578125 -0.98438,1.15625 -2.3125,1.15625 z m 9.11328,-4.78125 c 0.28125,0 0.53125,0 0.53125,-0.5 0,-1.515625 -0.84375,-2.8125 -2.5625,-2.8125 -1.59375,0 -2.85938,1.328125 -2.85938,2.96875 0,1.609375 1.34375,2.953125 3.04688,2.953125 1.75,0 2.375,-1.1875 2.375,-1.53125 0,-0.359375 -0.375,-0.359375 -0.45313,-0.359375 -0.25,0 -0.34375,0.03125 -0.4375,0.28125 -0.29687,0.6875 -1.01562,0.796875 -1.39062,0.796875 -1,0 -1.98438,-0.65625 -2.20313,-1.796875 z m -3.9375,-0.796875 c 0.1875,-0.96875 0.96875,-1.703125 1.90625,-1.703125 0.6875,0 1.5,0.328125 1.625,1.703125 z m 8.17968,-4.203125 c 0.0469,-0.625 -0.40624,-0.734375 -0.57812,-0.734375 -0.25,0 -0.64062,0.15625 -0.59375,0.734375 l 0.17187,2.703125 c 0.0156,0.1875 0.0469,0.46875 0.42188,0.46875 0.32812,0 0.39062,-0.234375 0.40625,-0.46875 z m 2.35938,0 c 0.0312,-0.625 -0.42188,-0.734375 -0.59375,-0.734375 -0.25,0 -0.625,0.15625 -0.59375,0.734375 l 0.17188,2.703125 c 0.0156,0.1875 0.0625,0.46875 0.42187,0.46875 0.34375,0 0.40625,-0.234375 0.42187,-0.46875 z m 0,0"
       style="fill:#ffffff;fill-opacity:1;fill-rule:nonzero;stroke:none;stroke-width:1.33333"
       aria-label="=&quot;SpinRange&quot;" />
    <path
       id="path66"
       d="M 67.31792,90.458523 V 82.139857"
       style="fill:none;stroke:#ffffff;stroke-width:0.697333;stroke-linecap:butt;stroke-linejoin:miter;stroke-miterlimit:10;stroke-dasharray:none;stroke-opacity:1" />
    <path
       id="path67"
       d="m 66.96992,90.110523 h 3.836"
       style="fill:none;stroke:#ffffff;stroke-width:0.697333;stroke-linecap:butt;stroke-linejoin:miter;stroke-miterlimit:10;stroke-dasharray:none;stroke-opacity:1" />
    <path
       id="path68"
       d="m 70.80458,90.110523 h 6.973334"
       style="fill:none;stroke:#ffffff;stroke-width:0.697333;stroke-linecap:butt;stroke-linejoin:miter;stroke-miterlimit:10;stroke-dasharray:none;stroke-opacity:1" />
    <path
       id="path69"
       d="m 77.77925,90.110523 h 6.973334"
       style="fill:none;stroke:#ffffff;stroke-width:0.697333;stroke-linecap:butt;stroke-linejoin:miter;stroke-miterlimit:10;stroke-dasharray:none;stroke-opacity:1" />
    <path
       id="path70"
       d="m 94.678691,90.831242 c 0,-1.25 0.78125,-2.53125 2.390625,-2.53125 0.01563,0.328125 0.234375,0.59375 0.5625,0.59375 0.296875,0 0.5625,-0.21875 0.5625,-0.578125 0,-0.265625 -0.15625,-0.8125 -1.265625,-0.8125 -0.671875,0 -1.53125,0.234375 -2.25,1.0625 v -0.453125 c 0,-0.40625 -0.07813,-0.53125 -0.53125,-0.53125 h -1.46875 c -0.203125,0 -0.53125,0 -0.53125,0.390625 0,0.40625 0.328125,0.40625 0.53125,0.40625 h 1.078125 v 4.109375 h -1.078125 c -0.203125,0 -0.53125,0 -0.53125,0.40625 0,0.40625 0.328125,0.40625 0.53125,0.40625 h 3.46875 c 0.203125,0 0.546875,0 0.546875,-0.40625 0,-0.40625 -0.34375,-0.40625 -0.546875,-0.40625 h -1.46875 z m 8.878909,2.046875 c 0.29687,0.40625 0.9375,0.421875 1.4375,0.421875 0.375,0 0.65625,0 0.65625,-0.40625 0,-0.40625 -0.32813,-0.40625 -0.53125,-0.40625 -0.54688,0 -0.6875,-0.0625 -0.79688,-0.109375 v -2.859375 c 0,-0.953125 -0.70312,-2.0625 -2.625,-2.0625 -0.5625,0 -1.921873,0 -1.921873,0.96875 0,0.40625 0.281253,0.609375 0.593753,0.609375 0.20312,0 0.57812,-0.125 0.59375,-0.609375 0,-0.109374 0,-0.125 0.26562,-0.140625 0.1875,-0.01563 0.35938,-0.01563 0.48438,-0.01563 1.01562,0 1.70312,0.40625 1.70312,1.359375 -2.35937,0.03125 -3.984373,0.703125 -3.984373,1.96875 0,0.921875 0.828123,1.78125 2.187503,1.78125 0.48437,0 1.3125,-0.09375 1.9375,-0.5 z m -0.14063,-2.46875 v 1.109375 c 0,0.3125 0,0.578125 -0.51562,0.828125 -0.48438,0.21875 -1.07813,0.21875 -1.1875,0.21875 -0.82813,0 -1.375,-0.453125 -1.375,-0.96875 0,-0.640625 1.15625,-1.140625 3.07812,-1.1875 z m 4.46094,-2.203125 c 0,-0.4375 0,-0.625 -0.53125,-0.625 h -0.96875 c -0.21875,0 -0.54688,0 -0.54688,0.40625 0,0.390625 0.34375,0.390625 0.53125,0.390625 h 0.59375 v 4.109375 h -0.57812 c -0.21875,0 -0.54688,0 -0.54688,0.40625 0,0.40625 0.34375,0.40625 0.53125,0.40625 h 2.10938 c 0.1875,0 0.53125,0 0.53125,-0.40625 0,-0.40625 -0.32813,-0.40625 -0.53125,-0.40625 h -0.59375 v -2.34375 c 0,-1.328125 0.98437,-1.84375 1.65625,-1.84375 0.70312,0 0.89062,0.375 0.89062,1.171875 v 3.015625 h -0.51562 c -0.20313,0 -0.54688,0 -0.54688,0.40625 0,0.40625 0.35938,0.40625 0.54688,0.40625 h 2.03125 c 0.1875,0 0.53125,0 0.53125,-0.40625 0,-0.40625 -0.32813,-0.40625 -0.54688,-0.40625 h -0.57812 v -3.078125 c 0,-1.34375 -0.67188,-1.90625 -1.73438,-1.90625 -0.875,0 -1.48437,0.4375 -1.73437,0.703125 z m 7.86328,2.75 c -0.71875,0 -1.28125,-0.625 -1.28125,-1.328125 0,-0.75 0.59375,-1.328125 1.28125,-1.328125 0.71875,0 1.28125,0.609375 1.28125,1.328125 0,0.75 -0.59375,1.328125 -1.28125,1.328125 z m -1.1875,0.46875 c 0.0312,0.03125 0.53125,0.328125 1.1875,0.328125 1.21875,0 2.1875,-0.953125 2.1875,-2.125 0,-0.40625 -0.10937,-0.796875 -0.34375,-1.15625 0.28125,-0.171875 0.59375,-0.21875 0.78125,-0.234375 0.0781,0.359375 0.375,0.453125 0.51563,0.453125 0.21875,0 0.53125,-0.15625 0.53125,-0.546875 0,-0.296875 -0.25,-0.71875 -0.96875,-0.71875 -0.15625,0 -0.79688,0.01563 -1.40625,0.46875 -0.21875,-0.140625 -0.6875,-0.390625 -1.29688,-0.390625 -1.25,0 -2.1875,0.984375 -2.1875,2.125 0,0.5625 0.21875,1 0.42188,1.25 -0.14063,0.21875 -0.26563,0.515625 -0.26563,0.90625 0,0.46875 0.1875,0.796875 0.3125,0.953125 -0.98437,0.609375 -0.98437,1.5 -0.98437,1.65625 0,1.140625 1.39062,1.953125 3.09375,1.953125 1.70312,0 3.09375,-0.828125 3.09375,-1.953125 0,-0.5 -0.25,-1.15625 -0.92188,-1.515625 -0.17187,-0.09375 -0.73437,-0.390625 -1.92187,-0.390625 h -0.9375 c -0.0937,0 -0.26563,0 -0.375,-0.03125 -0.20313,0 -0.28125,0 -0.4375,-0.171875 -0.15625,-0.1875 -0.17188,-0.453125 -0.17188,-0.484375 0,-0.04687 0.0312,-0.234375 0.0937,-0.375 z m 1.57813,4.125 c -1.32813,0 -2.32813,-0.578125 -2.32813,-1.15625 0,-0.25 0.125,-0.671875 0.54688,-0.9375 0.32812,-0.203125 0.45312,-0.203125 1.42187,-0.203125 1.17188,0 2.67188,0 2.67188,1.140625 0,0.578125 -0.98438,1.15625 -2.3125,1.15625 z m 9.11328,-4.78125 c 0.28125,0 0.53125,0 0.53125,-0.5 0,-1.515625 -0.84375,-2.8125 -2.5625,-2.8125 -1.59375,0 -2.85938,1.328125 -2.85938,2.96875 0,1.609375 1.34375,2.953125 3.04688,2.953125 1.75,0 2.375,-1.1875 2.375,-1.53125 0,-0.359375 -0.375,-0.359375 -0.45313,-0.359375 -0.25,0 -0.34375,0.03125 -0.4375,0.28125 -0.29687,0.6875 -1.01562,0.796875 -1.39062,0.796875 -1,0 -1.98438,-0.65625 -2.20313,-1.796875 z m -3.9375,-0.796875 c 0.1875,-0.96875 0.96875,-1.703125 1.90625,-1.703125 0.6875,0 1.5,0.328125 1.625,1.703125 z m 9.60156,-1.5625 c 0,-0.484375 -0.39063,-0.828125 -0.8125,-0.828125 -0.51563,0 -0.84375,0.40625 -0.84375,0.8125 0,0.5 0.40625,0.84375 0.82812,0.84375 0.5,0 0.82813,-0.40625 0.82813,-0.828125 z m 0,4.0625 c 0,-0.484375 -0.39063,-0.828125 -0.8125,-0.828125 -0.51563,0 -0.84375,0.40625 -0.84375,0.8125 0,0.5 0.40625,0.84375 0.82812,0.84375 0.5,0 0.82813,-0.40625 0.82813,-0.828125 z m 6.97266,-4.0625 c 0,-0.484375 -0.39063,-0.828125 -0.8125,-0.828125 -0.51563,0 -0.84376,0.40625 -0.84376,0.8125 0,0.5 0.40626,0.84375 0.82813,0.84375 0.5,0 0.82813,-0.40625 0.82813,-0.828125 z m 0,4.0625 c 0,-0.484375 -0.39063,-0.828125 -0.8125,-0.828125 -0.51563,0 -0.84376,0.40625 -0.84376,0.8125 0,0.5 0.40626,0.84375 0.82813,0.84375 0.5,0 0.82813,-0.40625 0.82813,-0.828125 z m 6.59765,-2.8125 c 0.35938,0.07813 1.46875,0.34375 1.46875,1.5 0,0.6875 -0.57812,1.46875 -1.625,1.46875 -0.375,0 -1.01562,-0.04687 -1.54687,-0.40625 -0.5625,-0.359375 -0.60938,-0.921875 -0.625,-1.15625 -0.0156,-0.21875 -0.0313,-0.46875 -0.45313,-0.46875 -0.46875,0 -0.46875,0.28125 -0.46875,0.546875 v 1.75 c 0,0.21875 0,0.546875 0.40625,0.546875 0.28125,0 0.375,-0.1875 0.48438,-0.609375 0.53125,0.40625 1.34375,0.609375 2.1875,0.609375 1.54687,0 2.5,-1.15625 2.5,-2.34375 0,-0.859375 -0.46875,-1.40625 -0.64063,-1.578125 -0.53125,-0.53125 -0.89062,-0.625 -1.9375,-0.875 l -1.07812,-0.234375 c -0.54688,-0.15625 -1.0625,-0.625 -1.0625,-1.25 0,-0.671875 0.65625,-1.3125 1.59375,-1.3125 1.57812,0 1.78125,1.25 1.85937,1.65625 0.0312,0.296875 0.1875,0.375 0.45313,0.375 0.45312,0 0.45312,-0.28125 0.45312,-0.546875 v -1.75 c 0,-0.203125 0,-0.546875 -0.39062,-0.546875 -0.32813,0 -0.39063,0.234375 -0.5,0.625 -0.54688,-0.46875 -1.25,-0.625 -1.85938,-0.625 -1.46875,0 -2.46875,1.046875 -2.46875,2.1875 0,0.890625 0.60938,1.765625 1.71875,2.078125 0.0469,0.01563 1.34375,0.328125 1.53125,0.359375 z m 5.98828,-1.28125 h 2.17188 c 0.20312,0 0.53125,0 0.53125,-0.390625 0,-0.40625 -0.3125,-0.40625 -0.53125,-0.40625 h -2.17188 v -1.09375 c 0,-0.25 0,-0.546875 -0.45312,-0.546875 -0.46875,0 -0.46875,0.28125 -0.46875,0.546875 v 1.09375 h -1.15625 c -0.20313,0 -0.54688,0 -0.54688,0.40625 0,0.390625 0.34375,0.390625 0.53125,0.390625 h 1.17188 v 3.25 c 0,1.265625 0.90625,1.75 1.875,1.75 0.98437,0 2.0625,-0.5625 2.0625,-1.75 0,-0.234375 0,-0.515625 -0.46875,-0.515625 -0.4375,0 -0.45313,0.28125 -0.45313,0.5 -0.0156,0.828125 -0.76562,0.953125 -1.07812,0.953125 -1.01563,0 -1.01563,-0.6875 -1.01563,-1.015625 z m 6.97656,2.453125 c 0,-1.25 0.78125,-2.53125 2.39063,-2.53125 0.0156,0.328125 0.23437,0.59375 0.5625,0.59375 0.29687,0 0.5625,-0.21875 0.5625,-0.578125 0,-0.265625 -0.15625,-0.8125 -1.26563,-0.8125 -0.67187,0 -1.53125,0.234375 -2.25,1.0625 v -0.453125 c 0,-0.40625 -0.0781,-0.53125 -0.53125,-0.53125 h -1.46875 c -0.20312,0 -0.53125,0 -0.53125,0.390625 0,0.40625 0.32813,0.40625 0.53125,0.40625 h 1.07813 v 4.109375 h -1.07813 c -0.20312,0 -0.53125,0 -0.53125,0.40625 0,0.40625 0.32813,0.40625 0.53125,0.40625 h 3.46875 c 0.20313,0 0.54688,0 0.54688,-0.40625 0,-0.40625 -0.34375,-0.40625 -0.54688,-0.40625 h -1.46875 z m 8.12891,-2.71875 c 0,-0.40625 -0.0781,-0.53125 -0.53125,-0.53125 h -1.89062 c -0.20313,0 -0.54688,0 -0.54688,0.390625 0,0.40625 0.34375,0.40625 0.54688,0.40625 h 1.5 v 4.109375 h -1.60938 c -0.20312,0 -0.54687,0 -0.54687,0.40625 0,0.40625 0.34375,0.40625 0.54687,0.40625 h 3.92188 c 0.20312,0 0.54687,0 0.54687,-0.40625 0,-0.40625 -0.34375,-0.40625 -0.54687,-0.40625 h -1.39063 z m 0,-2.28125 c 0,-0.375 -0.29687,-0.65625 -0.67187,-0.65625 -0.375,0 -0.65625,0.28125 -0.65625,0.65625 0,0.375 0.28125,0.671875 0.65625,0.671875 0.375,0 0.67187,-0.296875 0.67187,-0.671875 z m 5.06641,2.375 c 0,-0.4375 0,-0.625 -0.53125,-0.625 h -0.96875 c -0.21875,0 -0.54688,0 -0.54688,0.40625 0,0.390625 0.34375,0.390625 0.53125,0.390625 h 0.59375 v 4.109375 h -0.57812 c -0.21875,0 -0.54688,0 -0.54688,0.40625 0,0.40625 0.34375,0.40625 0.53125,0.40625 h 2.10938 c 0.1875,0 0.53125,0 0.53125,-0.40625 0,-0.40625 -0.32813,-0.40625 -0.53125,-0.40625 h -0.59375 v -2.34375 c 0,-1.328125 0.98437,-1.84375 1.65625,-1.84375 0.70312,0 0.89062,0.375 0.89062,1.171875 v 3.015625 h -0.51562 c -0.20313,0 -0.54688,0 -0.54688,0.40625 0,0.40625 0.35938,0.40625 0.54688,0.40625 h 2.03125 c 0.1875,0 0.53125,0 0.53125,-0.40625 0,-0.40625 -0.32813,-0.40625 -0.54688,-0.40625 h -0.57812 v -3.078125 c 0,-1.34375 -0.67188,-1.90625 -1.73438,-1.90625 -0.875,0 -1.48437,0.4375 -1.73437,0.703125 z m 7.86718,2.75 c -0.71875,0 -1.28125,-0.625 -1.28125,-1.328125 0,-0.75 0.59375,-1.328125 1.28125,-1.328125 0.71875,0 1.28125,0.609375 1.28125,1.328125 0,0.75 -0.59375,1.328125 -1.28125,1.328125 z m -1.1875,0.46875 c 0.0313,0.03125 0.53125,0.328125 1.1875,0.328125 1.21875,0 2.1875,-0.953125 2.1875,-2.125 0,-0.40625 -0.10937,-0.796875 -0.34375,-1.15625 0.28125,-0.171875 0.59375,-0.21875 0.78125,-0.234375 0.0781,0.359375 0.375,0.453125 0.51563,0.453125 0.21875,0 0.53125,-0.15625 0.53125,-0.546875 0,-0.296875 -0.25,-0.71875 -0.96875,-0.71875 -0.15625,0 -0.79688,0.01563 -1.40625,0.46875 -0.21875,-0.140625 -0.6875,-0.390625 -1.29688,-0.390625 -1.25,0 -2.1875,0.984375 -2.1875,2.125 0,0.5625 0.21875,1 0.42188,1.25 -0.14063,0.21875 -0.26563,0.515625 -0.26563,0.90625 0,0.46875 0.1875,0.796875 0.3125,0.953125 -0.98437,0.609375 -0.98437,1.5 -0.98437,1.65625 0,1.140625 1.39062,1.953125 3.09375,1.953125 1.70312,0 3.09375,-0.828125 3.09375,-1.953125 0,-0.5 -0.25,-1.15625 -0.92188,-1.515625 -0.17187,-0.09375 -0.73437,-0.390625 -1.92187,-0.390625 h -0.9375 c -0.0937,0 -0.26563,0 -0.375,-0.03125 -0.20313,0 -0.28125,0 -0.4375,-0.171875 -0.15625,-0.1875 -0.17188,-0.453125 -0.17188,-0.484375 0,-0.04687 0.0313,-0.234375 0.0937,-0.375 z m 1.57813,4.125 c -1.32813,0 -2.32813,-0.578125 -2.32813,-1.15625 0,-0.25 0.125,-0.671875 0.54688,-0.9375 0.32812,-0.203125 0.45312,-0.203125 1.42187,-0.203125 1.17188,0 2.67188,0 2.67188,1.140625 0,0.578125 -0.98438,1.15625 -2.3125,1.15625 z m 0,0"
       style="fill:#00a650;fill-opacity:1;fill-rule:nonzero;stroke:none;stroke-width:1.33333"
       aria-label="range::String" />
    <g
       id="g70"
       aria-label="AllSpins&#10;..."
       transform="matrix(1.3333333,0,0,1.3333333,8.0405804,127.82519)"
       style="fill:#ffffff;fill-opacity:1">
      <path
         id="path71"
         d="m 4.7236953,-6.6927266 c -0.1054687,-0.2578125 -0.234375,-0.2578125 -0.3984375,-0.2578125 -0.28125,0 -0.3164062,0.070312 -0.3867187,0.2578125 l -2.4726563,5.98828129 c -0.058594,0.15234375 -0.09375,0.234375 -0.84374999,0.234375 h -0.2109375 v 0.46875 c 0.375,-0.01171875 0.85546879,-0.03515625 1.16015629,-0.03515625 0.3867187,0 0.9492187,0 1.3242187,0.03515625 v -0.46875 c -0.023437,0 -0.890625,0 -0.890625,-0.12890625 0,-0.0117188 0.023437,-0.10546875 0.035156,-0.1171875 L 2.5440078,-1.9231953 h 2.671875 l 0.5976563,1.45312499 H 4.8643203 v 0.46875 c 0.375,-0.03515625 1.3242188,-0.03515625 1.7460938,-0.03515625 0.3984375,0 1.2773437,0 1.6289062,0.03515625 v -0.46875 H 7.2783828 Z m -0.84375,1.5351563 1.1367188,2.765625 H 2.7432266 Z m 7.0078127,-1.7578125 -1.7578127,0.082031 v 0.46875 c 0.6210938,0 0.6914063,0 0.6914063,0.3867188 v 5.50781249 H 9.1299453 v 0.46875 c 0.3164063,-0.01171875 0.796875,-0.03515625 1.2304687,-0.03515625 0.421875,0 0.878906,0.0234375 1.21875,0.03515625 v -0.46875 h -0.691406 z m 3.18164,0 -1.757812,0.082031 v 0.46875 c 0.621094,0 0.691406,0 0.691406,0.3867188 v 5.50781249 h -0.691406 v 0.46875 c 0.316406,-0.01171875 0.796875,-0.03515625 1.230469,-0.03515625 0.421875,0 0.878906,0.0234375 1.21875,0.03515625 v -0.46875 h -0.691407 z m 4.962891,2.7890625 -1.453125,-0.3046875 c -0.398437,-0.09375 -0.949219,-0.4335938 -0.949219,-1.0429688 0,-0.421875 0.28125,-1.0429687 1.277344,-1.0429687 0.796875,0 1.804688,0.3398437 2.027344,1.6992187 0.03516,0.234375 0.03516,0.2578125 0.246094,0.2578125 0.246093,0 0.246093,-0.058594 0.246093,-0.28125 v -1.828125 c 0,-0.1875 0,-0.2695312 -0.1875,-0.2695312 -0.07031,0 -0.08203,0 -0.199218,0.1054687 l -0.445313,0.4335938 c -0.574219,-0.4570313 -1.21875,-0.5390625 -1.699219,-0.5390625 -1.511718,0 -2.238281,0.9492187 -2.238281,1.9921875 0,0.65625 0.328125,1.1132812 0.539063,1.3242187 0.492187,0.4921875 0.832031,0.5625 1.921875,0.796875 0.867187,0.1992188 1.042968,0.2226563 1.253906,0.4335938 0.152344,0.1523437 0.398437,0.4101562 0.398437,0.8671875 0,0.4804687 -0.257812,1.16015624 -1.289062,1.16015624 -0.761719,0 -2.273438,-0.19921875 -2.355469,-1.67578124 0,-0.1875 0,-0.234375 -0.222656,-0.234375 -0.246094,0 -0.246094,0.058594 -0.246094,0.2929687 v 1.81640629 c 0,0.1875 0,0.26953125 0.1875,0.26953125 0.08203,0 0.105469,-0.01171875 0.1875,-0.08203125 l 0.457031,-0.45703125 c 0.65625,0.48046875 1.582032,0.5390625 1.992188,0.5390625 1.640625,0 2.261719,-1.12500004 2.261719,-2.13281254 0,-1.1015625 -0.808594,-1.9101562 -1.710938,-2.0976562 z m 4.549805,0.84375 c 0,-0.1875 0.01172,-0.1992188 0.152344,-0.3398438 0.398437,-0.3984375 0.914062,-0.46875 1.136718,-0.46875 0.667969,0 1.21875,0.609375 1.21875,1.8632813 0,1.40624999 -0.691406,1.92187499 -1.347656,1.92187499 -0.128906,0 -0.597656,0 -1.054687,-0.52734375 -0.105469,-0.12890625 -0.105469,-0.140625 -0.105469,-0.32812504 z m 0,2.89453124 c 0.433594,0.3515625 0.867187,0.4453125 1.277344,0.4453125 1.488281,0 2.507812,-0.890625 2.507812,-2.28515624 0,-1.3242188 -0.902344,-2.2617188 -2.34375,-2.2617188 -0.738281,0 -1.277344,0.3164063 -1.5,0.4921875 v -0.4921875 l -1.769531,0.082031 v 0.46875 c 0.621094,0 0.691406,0 0.691406,0.3867187 v 5.015625 h -0.691406 v 0.46875 c 0.28125,-0.011719 0.878906,-0.035156 1.265625,-0.035156 0.386719,0 0.972656,0.023437 1.253906,0.035156 v -0.46875 h -0.691406 z m 6.401367,-4.10156254 -1.722656,0.082031 v 0.46875 c 0.585937,0 0.65625,0 0.65625,0.3867187 v 3.08203129 h -0.691407 v 0.46875 c 0.304688,-0.01171875 0.796875,-0.03515625 1.21875,-0.03515625 0.292969,0 0.808594,0.0234375 1.160157,0.03515625 v -0.46875 h -0.621094 z m 0.105469,-1.6523437 c 0,-0.4453125 -0.363282,-0.7851563 -0.773438,-0.7851563 -0.433594,0 -0.785156,0.3515625 -0.785156,0.7851563 0,0.421875 0.351562,0.7734375 0.785156,0.7734375 0.410156,0 0.773438,-0.3398438 0.773438,-0.7734375 z m 1.986328,2.5898437 v 3.08203129 h -0.691406 v 0.46875 c 0.28125,-0.01171875 0.878906,-0.03515625 1.253906,-0.03515625 0.398437,0 0.984375,0.0234375 1.253906,0.03515625 v -0.46875 H 33.211977 V -2.5560078 c 0,-1.078125 0.855468,-1.5703125 1.476562,-1.5703125 0.339844,0 0.550781,0.2109375 0.550781,0.9726562 v 2.68359379 h -0.679687 v 0.46875 c 0.269531,-0.01171875 0.867187,-0.03515625 1.253906,-0.03515625 0.386719,0 0.972656,0.0234375 1.253906,0.03515625 v -0.46875 H 36.376039 V -3.0481953 c 0,-1.0429688 -0.539062,-1.4414063 -1.535156,-1.4414063 -0.949219,0 -1.476563,0.5742188 -1.746094,1.078125 v -1.078125 l -1.710937,0.082031 v 0.46875 c 0.621093,0 0.691406,0 0.691406,0.386719 z m 7.324219,0.6210938 c -0.363282,-0.070312 -1.007813,-0.1757813 -1.007813,-0.6445313 0,-0.6210937 0.925781,-0.6210937 1.113281,-0.6210937 0.75,0 1.125,0.2929687 1.171875,0.84375 0.01172,0.140625 0.02344,0.1992187 0.234375,0.1992187 0.234375,0 0.234375,-0.058594 0.234375,-0.28125 v -0.796875 c 0,-0.1875 0,-0.28125 -0.175781,-0.28125 -0.04687,0 -0.05859,0 -0.445312,0.1875 -0.269532,-0.1289062 -0.609375,-0.1875 -1.007813,-0.1875 -0.304687,0 -1.839844,0 -1.839844,1.3007813 0,0.3984375 0.199219,0.6679687 0.398438,0.84375 0.398437,0.3398437 0.785156,0.4101562 1.546875,0.5390625 0.363281,0.070312 1.101562,0.1992187 1.101562,0.7851562 0,0.73828129 -0.914062,0.73828129 -1.125,0.73828129 -1.066406,0 -1.324218,-0.72656249 -1.441406,-1.14843749 -0.04687,-0.140625 -0.09375,-0.140625 -0.234375,-0.140625 -0.246094,0 -0.246094,0.058594 -0.246094,0.2929687 v 1.07812504 c 0,0.1875 0,0.28125 0.1875,0.28125 0.07031,0 0.08203,0 0.292969,-0.15234375 0.01172,0 0.234375,-0.140625 0.257813,-0.1640625 0.457031,0.31640625 0.984375,0.31640625 1.183593,0.31640625 0.304688,0 1.839844,0 1.839844,-1.45312504 0,-0.4335937 -0.199219,-0.7734375 -0.550781,-1.0546875 -0.386719,-0.2929687 -0.703125,-0.3515625 -1.488281,-0.4804687 z m 0,0"
         style="fill:#ffffff;fill-opacity:1;fill-rule:nonzero;stroke:none" />
      <path
         id="path72"
         d="m 24.156313,17.770164 c 0,-0.363281 -0.292969,-0.621094 -0.609375,-0.621094 -0.386719,0 -0.632813,0.304688 -0.632813,0.609375 0,0.375 0.304688,0.632813 0.621094,0.632813 0.375,0 0.621094,-0.304688 0.621094,-0.621094 z m 5.229492,0 c 0,-0.363281 -0.292969,-0.621094 -0.609375,-0.621094 -0.386719,0 -0.632813,0.304688 -0.632813,0.609375 0,0.375 0.304688,0.632813 0.621094,0.632813 0.375,0 0.621094,-0.304688 0.621094,-0.621094 z m 5.232422,0 c 0,-0.363281 -0.292969,-0.621094 -0.609375,-0.621094 -0.386719,0 -0.632813,0.304688 -0.632813,0.609375 0,0.375 0.304688,0.632813 0.621094,0.632813 0.375,0 0.621094,-0.304688 0.621094,-0.621094 z m 0,0"
         style="fill:#ffffff;fill-opacity:1;fill-rule:nonzero;stroke:none" />
    </g>
    <path
       id="path73"
       d="m 39.42325,165.44652 v -8.31866"
       style="fill:none;stroke:#ffffff;stroke-width:0.697333;stroke-linecap:butt;stroke-linejoin:miter;stroke-miterlimit:10;stroke-dasharray:none;stroke-opacity:1" />
    <path
       id="path74"
       d="m 39.07392,165.09719 h 3.836"
       style="fill:none;stroke:#ffffff;stroke-width:0.697333;stroke-linecap:butt;stroke-linejoin:miter;stroke-miterlimit:10;stroke-dasharray:none;stroke-opacity:1" />
    <path
       id="path75"
       d="m 42.90992,165.09719 h 6.973334"
       style="fill:none;stroke:#ffffff;stroke-width:0.697333;stroke-linecap:butt;stroke-linejoin:miter;stroke-miterlimit:10;stroke-dasharray:none;stroke-opacity:1" />
    <path
       id="path76"
       d="m 49.88325,165.09719 h 6.973334"
       style="fill:none;stroke:#ffffff;stroke-width:0.697333;stroke-linecap:butt;stroke-linejoin:miter;stroke-miterlimit:10;stroke-dasharray:none;stroke-opacity:1" />
    <path
       id="path77"
       d="m 67.784157,164.89375 c -0.296876,-0.0469 -0.5625,-0.0937 -0.890625,-0.15625 -0.390625,-0.0469 -1.296875,-0.21875 -1.296875,-0.73438 0,-0.34375 0.421875,-0.75 1.6875,-0.75 1.109374,0 1.28125,0.39063 1.328124,0.73438 0.01563,0.23437 0.04687,0.45312 0.453126,0.45312 0.46875,0 0.46875,-0.28125 0.46875,-0.54687 v -0.90625 c 0,-0.21875 0,-0.54688 -0.40625,-0.54688 -0.3125,0 -0.375,0.1875 -0.390626,0.28125 -0.59375,-0.28125 -1.171874,-0.28125 -1.421874,-0.28125 -2.21875,0 -2.53125,1.09375 -2.53125,1.5625 0,1.21875 1.390625,1.45313 2.625,1.64063 0.640624,0.10937 1.703124,0.28125 1.703124,0.98437 0,0.48438 -0.484374,0.92188 -1.6875,0.92188 -0.624999,0 -1.374999,-0.14063 -1.703124,-1.17188 -0.07813,-0.25 -0.125,-0.39062 -0.46875,-0.39062 -0.46875,0 -0.46875,0.28125 -0.46875,0.54687 v 1.28125 c 0,0.21875 0,0.54688 0.40625,0.54688 0.109374,0 0.328125,-0.0156 0.484375,-0.5 0.65625,0.46875 1.359375,0.5 1.734375,0.5 2.09375,0 2.515624,-1.09375 2.515624,-1.73438 0,-1.39062 -1.703124,-1.67187 -2.140624,-1.73437 z m 5.222656,-0.10938 c 0,-0.79687 0.765625,-1.5 1.609375,-1.5 0.984375,0 1.75,0.96875 1.75,2.125 0,1.28125 -0.921875,2.14063 -1.859375,2.14063 -1.03125,0 -1.5,-1.17188 -1.5,-1.79688 z m 0,2.90625 c 0.546875,0.54688 1.125,0.67188 1.546875,0.67188 1.4375,0 2.734374,-1.26563 2.734374,-2.95313 0,-1.625 -1.187499,-2.92187 -2.593749,-2.92187 -0.640625,0 -1.234375,0.23437 -1.6875,0.64062 0,-0.375 -0.03125,-0.5625 -0.53125,-0.5625 h -0.96875 c -0.21875,0 -0.546875,0 -0.546875,0.40625 0,0.39063 0.34375,0.39063 0.53125,0.39063 h 0.59375 v 7.0625 h -0.578125 c -0.21875,0 -0.546875,0 -0.546875,0.40625 0,0.40625 0.34375,0.40625 0.53125,0.40625 h 2.109375 c 0.1875,0 0.53125,0 0.53125,-0.40625 0,-0.40625 -0.328125,-0.40625 -0.53125,-0.40625 h -0.59375 z m 8.882812,-4.59375 c 0,-0.40625 -0.07812,-0.53125 -0.53125,-0.53125 H 79.46775 c -0.203125,0 -0.546875,0 -0.546875,0.39063 0,0.40625 0.34375,0.40625 0.546875,0.40625 h 1.5 v 4.10937 h -1.609375 c -0.203125,0 -0.546874,0 -0.546874,0.40625 0,0.40625 0.343749,0.40625 0.546874,0.40625 h 3.921875 c 0.203125,0 0.546875,0 0.546875,-0.40625 0,-0.40625 -0.34375,-0.40625 -0.546875,-0.40625 h -1.390625 z m 0,-2.28125 c 0,-0.375 -0.296875,-0.65625 -0.671875,-0.65625 -0.375,0 -0.656249,0.28125 -0.656249,0.65625 0,0.375 0.281249,0.67188 0.656249,0.67188 0.375,0 0.671875,-0.29688 0.671875,-0.67188 z m 5.066406,2.375 c 0,-0.4375 0,-0.625 -0.531251,-0.625 h -0.968749 c -0.21875,0 -0.546874,0 -0.546874,0.40625 0,0.39063 0.343749,0.39063 0.531249,0.39063 h 0.59375 v 4.10937 h -0.578125 c -0.21875,0 -0.546874,0 -0.546874,0.40625 0,0.40625 0.343749,0.40625 0.531249,0.40625 h 2.109374 c 0.1875,0 0.531251,0 0.531251,-0.40625 0,-0.40625 -0.328125,-0.40625 -0.531251,-0.40625 h -0.593749 v -2.34375 c 0,-1.32812 0.984375,-1.84375 1.656249,-1.84375 0.703126,0 0.890626,0.375 0.890626,1.17188 v 3.01562 H 88.98728 c -0.203124,0 -0.546874,0 -0.546874,0.40625 0,0.40625 0.359374,0.40625 0.546874,0.40625 h 2.031251 c 0.1875,0 0.531249,0 0.531249,-0.40625 0,-0.40625 -0.328124,-0.40625 -0.546874,-0.40625 H 90.42478 v -3.07812 c 0,-1.34375 -0.671874,-1.90625 -1.734374,-1.90625 -0.875,0 -1.484375,0.4375 -1.734375,0.70312 z m 8.722656,1.70313 c -0.296875,-0.0469 -0.5625,-0.0937 -0.890625,-0.15625 -0.390624,-0.0469 -1.296875,-0.21875 -1.296875,-0.73438 0,-0.34375 0.421875,-0.75 1.6875,-0.75 1.109375,0 1.281251,0.39063 1.328125,0.73438 0.01563,0.23437 0.04688,0.45312 0.453126,0.45312 0.468749,0 0.468749,-0.28125 0.468749,-0.54687 v -0.90625 c 0,-0.21875 0,-0.54688 -0.406249,-0.54688 -0.3125,0 -0.375,0.1875 -0.390626,0.28125 -0.59375,-0.28125 -1.171874,-0.28125 -1.421874,-0.28125 -2.218751,0 -2.531251,1.09375 -2.531251,1.5625 0,1.21875 1.390625,1.45313 2.625,1.64063 0.640625,0.10937 1.703125,0.28125 1.703125,0.98437 0,0.48438 -0.484374,0.92188 -1.6875,0.92188 -0.625,0 -1.375,-0.14063 -1.703125,-1.17188 -0.07812,-0.25 -0.125,-0.39062 -0.468749,-0.39062 -0.468751,0 -0.468751,0.28125 -0.468751,0.54687 v 1.28125 c 0,0.21875 0,0.54688 0.406251,0.54688 0.109373,0 0.328124,-0.0156 0.484374,-0.5 0.65625,0.46875 1.359375,0.5 1.734375,0.5 2.093751,0 2.515625,-1.09375 2.515625,-1.73438 0,-1.39062 -1.703125,-1.67187 -2.140625,-1.73437 z m 9.101563,-5.04688 c 0.0937,-0.20312 0.10937,-0.20312 0.10937,-0.3125 0,-0.23437 -0.20312,-0.46875 -0.46875,-0.46875 -0.28125,0 -0.375,0.20313 -0.45312,0.375 l -4.390627,9.15625 c -0.09375,0.21875 -0.109374,0.21875 -0.109374,0.32813 0,0.23437 0.203126,0.46875 0.468751,0.46875 0.29687,0 0.39062,-0.20313 0.46875,-0.375 z m 0,0"
       style="fill:#c25ccc;fill-opacity:1;fill-rule:nonzero;stroke:none;stroke-width:1.33333"
       aria-label="spins/" />
    <path
       id="path78"
       d="m 67.31792,181.38652 v -8.31866"
       style="fill:none;stroke:#ffffff;stroke-width:0.697333;stroke-linecap:butt;stroke-linejoin:miter;stroke-miterlimit:10;stroke-dasharray:none;stroke-opacity:1" />
    <path
       id="path79"
       d="m 66.96992,181.03719 h 3.836"
       style="fill:none;stroke:#ffffff;stroke-width:0.697333;stroke-linecap:butt;stroke-linejoin:miter;stroke-miterlimit:10;stroke-dasharray:none;stroke-opacity:1" />
    <path
       id="path80"
       d="m 70.80458,181.03719 h 6.973334"
       style="fill:none;stroke:#ffffff;stroke-width:0.697333;stroke-linecap:butt;stroke-linejoin:miter;stroke-miterlimit:10;stroke-dasharray:none;stroke-opacity:1" />
    <path
       id="path81"
       d="m 77.77925,181.03719 h 6.973334"
       style="fill:none;stroke:#ffffff;stroke-width:0.697333;stroke-linecap:butt;stroke-linejoin:miter;stroke-miterlimit:10;stroke-dasharray:none;stroke-opacity:1" />
    <path
       id="path82"
       d="m 94.678691,179.3039 h 2.171875 c 0.203125,0 0.53125,0 0.53125,-0.39062 0,-0.40625 -0.3125,-0.40625 -0.53125,-0.40625 h -2.171875 v -1.09375 c 0,-0.25 0,-0.54688 -0.453125,-0.54688 -0.46875,0 -0.46875,0.28125 -0.46875,0.54688 v 1.09375 h -1.15625 c -0.203125,0 -0.546875,0 -0.546875,0.40625 0,0.39062 0.34375,0.39062 0.53125,0.39062 h 1.171875 v 3.25 c 0,1.26563 0.90625,1.75 1.875,1.75 0.984375,0 2.0625,-0.5625 2.0625,-1.75 0,-0.23437 0,-0.51562 -0.46875,-0.51562 -0.4375,0 -0.453125,0.28125 -0.453125,0.5 -0.01563,0.82812 -0.765625,0.95312 -1.078125,0.95312 -1.015625,0 -1.015625,-0.6875 -1.015625,-1.01562 z m 9.738279,0 h 0.39063 c 0.20312,0 0.53125,0 0.53125,-0.39062 0,-0.40625 -0.3125,-0.40625 -0.53125,-0.40625 h -1.54688 c -0.20312,0 -0.53125,0 -0.53125,0.39062 0,0.40625 0.3125,0.40625 0.53125,0.40625 h 0.35938 l -0.95313,2.84375 c -0.17187,0.48438 -0.25,0.71875 -0.34375,1.14063 h -0.0156 c -0.0625,-0.26563 -0.1875,-0.53125 -0.28125,-0.79688 l -1.23438,-3.1875 h 0.34375 c 0.1875,0 0.53125,0 0.53125,-0.39062 0,-0.40625 -0.32812,-0.40625 -0.53125,-0.40625 h -1.562498 c -0.203125,0 -0.53125,0 -0.53125,0.40625 0,0.39062 0.328125,0.39062 0.53125,0.39062 h 0.40625 l 1.890628,4.75 c 0.0625,0.125 0.0625,0.15625 0.0625,0.17188 0,0.0312 -0.34375,1.10937 -0.51563,1.45312 -0.375,0.71875 -0.85937,0.75 -1.0625,0.76563 0,-0.0156 0.0781,-0.125 0.0781,-0.29688 0,-0.32812 -0.25,-0.5625 -0.578127,-0.5625 -0.359375,0 -0.578125,0.23438 -0.578125,0.57813 0,0.5625 0.4375,1.09375 1.093752,1.09375 1.32812,0 1.92187,-1.75 1.98437,-1.90625 z m 3.46094,1.42188 c 0,-0.79688 0.76562,-1.5 1.60937,-1.5 0.98438,0 1.75,0.96875 1.75,2.125 0,1.28125 -0.92187,2.14062 -1.85937,2.14062 -1.03125,0 -1.5,-1.17187 -1.5,-1.79687 z m 0,2.90625 c 0.54687,0.54687 1.125,0.67187 1.54687,0.67187 1.4375,0 2.73438,-1.26562 2.73438,-2.95312 0,-1.625 -1.1875,-2.92188 -2.59375,-2.92188 -0.64063,0 -1.23438,0.23438 -1.6875,0.64063 0,-0.375 -0.0312,-0.5625 -0.53125,-0.5625 h -0.96875 c -0.21875,0 -0.54688,0 -0.54688,0.40625 0,0.39062 0.34375,0.39062 0.53125,0.39062 h 0.59375 v 7.0625 h -0.57812 c -0.21875,0 -0.54688,0 -0.54688,0.40625 0,0.40625 0.34375,0.40625 0.53125,0.40625 h 2.10938 c 0.1875,0 0.53125,0 0.53125,-0.40625 0,-0.40625 -0.32813,-0.40625 -0.53125,-0.40625 h -0.59375 z m 10.39453,-1.9375 c 0.28125,0 0.53125,0 0.53125,-0.5 0,-1.51563 -0.84375,-2.8125 -2.5625,-2.8125 -1.59375,0 -2.85937,1.32812 -2.85937,2.96875 0,1.60937 1.34375,2.95312 3.04687,2.95312 1.75,0 2.375,-1.1875 2.375,-1.53125 0,-0.35937 -0.375,-0.35937 -0.45312,-0.35937 -0.25,0 -0.34375,0.0312 -0.4375,0.28125 -0.29688,0.6875 -1.01563,0.79687 -1.39063,0.79687 -1,0 -1.98437,-0.65625 -2.20312,-1.79687 z m -3.9375,-0.79688 c 0.1875,-0.96875 0.96875,-1.70312 1.90625,-1.70312 0.6875,0 1.5,0.32812 1.625,1.70312 z m 9.59766,-1.5625 c 0,-0.48437 -0.39063,-0.82812 -0.8125,-0.82812 -0.51563,0 -0.84375,0.40625 -0.84375,0.8125 0,0.5 0.40625,0.84375 0.82812,0.84375 0.5,0 0.82813,-0.40625 0.82813,-0.82813 z m 0,4.0625 c 0,-0.48437 -0.39063,-0.82812 -0.8125,-0.82812 -0.51563,0 -0.84375,0.40625 -0.84375,0.8125 0,0.5 0.40625,0.84375 0.82812,0.84375 0.5,0 0.82813,-0.40625 0.82813,-0.82813 z m 6.97656,-4.0625 c 0,-0.48437 -0.39063,-0.82812 -0.8125,-0.82812 -0.51563,0 -0.84375,0.40625 -0.84375,0.8125 0,0.5 0.40625,0.84375 0.82812,0.84375 0.5,0 0.82813,-0.40625 0.82813,-0.82813 z m 0,4.0625 c 0,-0.48437 -0.39063,-0.82812 -0.8125,-0.82812 -0.51563,0 -0.84375,0.40625 -0.84375,0.8125 0,0.5 0.40625,0.84375 0.82812,0.84375 0.5,0 0.82813,-0.40625 0.82813,-0.82813 z m 6.59766,-2.8125 c 0.35937,0.0781 1.46874,0.34375 1.46874,1.5 0,0.6875 -0.57812,1.46875 -1.625,1.46875 -0.375,0 -1.01562,-0.0469 -1.54687,-0.40625 -0.5625,-0.35937 -0.60937,-0.92187 -0.625,-1.15625 -0.0156,-0.21875 -0.0312,-0.46875 -0.45313,-0.46875 -0.46874,0 -0.46874,0.28125 -0.46874,0.54688 v 1.75 c 0,0.21875 0,0.54687 0.40624,0.54687 0.28126,0 0.375,-0.1875 0.48438,-0.60937 0.53125,0.40625 1.34375,0.60937 2.1875,0.60937 1.54688,0 2.5,-1.15625 2.5,-2.34375 0,-0.85937 -0.46875,-1.40625 -0.64062,-1.57812 -0.53126,-0.53125 -0.89063,-0.625 -1.9375,-0.875 l -1.07813,-0.23438 c -0.54687,-0.15625 -1.0625,-0.625 -1.0625,-1.25 0,-0.67187 0.65625,-1.3125 1.59375,-1.3125 1.57812,0 1.78125,1.25 1.85938,1.65625 0.0312,0.29688 0.1875,0.375 0.45312,0.375 0.45312,0 0.45312,-0.28125 0.45312,-0.54687 v -1.75 c 0,-0.20313 0,-0.54688 -0.39062,-0.54688 -0.32812,0 -0.39062,0.23438 -0.5,0.625 -0.54688,-0.46875 -1.25,-0.625 -1.85938,-0.625 -1.46874,0 -2.46874,1.04688 -2.46874,2.1875 0,0.89063 0.60937,1.76563 1.71874,2.07813 0.0469,0.0156 1.34376,0.32812 1.53126,0.35937 z m 5.98828,-1.28125 h 2.17187 c 0.20313,0 0.53125,0 0.53125,-0.39062 0,-0.40625 -0.3125,-0.40625 -0.53125,-0.40625 h -2.17187 v -1.09375 c 0,-0.25 0,-0.54688 -0.45313,-0.54688 -0.46875,0 -0.46875,0.28125 -0.46875,0.54688 v 1.09375 h -1.15625 c -0.20312,0 -0.54687,0 -0.54687,0.40625 0,0.39062 0.34375,0.39062 0.53125,0.39062 h 1.17187 v 3.25 c 0,1.26563 0.90625,1.75 1.875,1.75 0.98438,0 2.0625,-0.5625 2.0625,-1.75 0,-0.23437 0,-0.51562 -0.46875,-0.51562 -0.4375,0 -0.45312,0.28125 -0.45312,0.5 -0.0156,0.82812 -0.76563,0.95312 -1.07813,0.95312 -1.01562,0 -1.01562,-0.6875 -1.01562,-1.01562 z m 6.97265,2.45313 c 0,-1.25 0.78125,-2.53125 2.39063,-2.53125 0.0156,0.32812 0.23437,0.59375 0.5625,0.59375 0.29687,0 0.5625,-0.21875 0.5625,-0.57813 0,-0.26562 -0.15625,-0.8125 -1.26563,-0.8125 -0.67187,0 -1.53125,0.23438 -2.25,1.0625 v -0.45312 c 0,-0.40625 -0.0781,-0.53125 -0.53125,-0.53125 h -1.46875 c -0.20312,0 -0.53125,0 -0.53125,0.39062 0,0.40625 0.32813,0.40625 0.53125,0.40625 h 1.07813 v 4.10938 h -1.07813 c -0.20312,0 -0.53125,0 -0.53125,0.40625 0,0.40625 0.32813,0.40625 0.53125,0.40625 h 3.46875 c 0.20313,0 0.54688,0 0.54688,-0.40625 0,-0.40625 -0.34375,-0.40625 -0.54688,-0.40625 h -1.46875 z m 8.13281,-2.71875 c 0,-0.40625 -0.0781,-0.53125 -0.53125,-0.53125 h -1.89062 c -0.20313,0 -0.54688,0 -0.54688,0.39062 0,0.40625 0.34375,0.40625 0.54688,0.40625 h 1.5 v 4.10938 h -1.60938 c -0.20312,0 -0.54687,0 -0.54687,0.40625 0,0.40625 0.34375,0.40625 0.54687,0.40625 h 3.92188 c 0.20312,0 0.54687,0 0.54687,-0.40625 0,-0.40625 -0.34375,-0.40625 -0.54687,-0.40625 h -1.39063 z m 0,-2.28125 c 0,-0.375 -0.29687,-0.65625 -0.67187,-0.65625 -0.375,0 -0.65625,0.28125 -0.65625,0.65625 0,0.375 0.28125,0.67187 0.65625,0.67187 0.375,0 0.67187,-0.29687 0.67187,-0.67187 z m 5.06641,2.375 c 0,-0.4375 0,-0.625 -0.53125,-0.625 h -0.96875 c -0.21875,0 -0.54687,0 -0.54687,0.40625 0,0.39062 0.34375,0.39062 0.53125,0.39062 h 0.59375 v 4.10938 h -0.57813 c -0.21875,0 -0.54687,0 -0.54687,0.40625 0,0.40625 0.34375,0.40625 0.53125,0.40625 h 2.10937 c 0.1875,0 0.53125,0 0.53125,-0.40625 0,-0.40625 -0.32812,-0.40625 -0.53125,-0.40625 h -0.59375 v -2.34375 c 0,-1.32813 0.98438,-1.84375 1.65625,-1.84375 0.70313,0 0.89063,0.375 0.89063,1.17187 v 3.01563 h -0.51563 c -0.20312,0 -0.54687,0 -0.54687,0.40625 0,0.40625 0.35937,0.40625 0.54687,0.40625 h 2.03125 c 0.1875,0 0.53125,0 0.53125,-0.40625 0,-0.40625 -0.32812,-0.40625 -0.54687,-0.40625 h -0.57813 v -3.07813 c 0,-1.34375 -0.67187,-1.90625 -1.73437,-1.90625 -0.875,0 -1.48438,0.4375 -1.73438,0.70313 z m 7.86328,2.75 c -0.71875,0 -1.28125,-0.625 -1.28125,-1.32813 0,-0.75 0.59375,-1.32812 1.28125,-1.32812 0.71875,0 1.28125,0.60937 1.28125,1.32812 0,0.75 -0.59375,1.32813 -1.28125,1.32813 z m -1.1875,0.46875 c 0.0313,0.0312 0.53125,0.32812 1.1875,0.32812 1.21875,0 2.1875,-0.95312 2.1875,-2.125 0,-0.40625 -0.10937,-0.79687 -0.34375,-1.15625 0.28125,-0.17187 0.59375,-0.21875 0.78125,-0.23437 0.0781,0.35937 0.375,0.45312 0.51563,0.45312 0.21875,0 0.53125,-0.15625 0.53125,-0.54687 0,-0.29688 -0.25,-0.71875 -0.96875,-0.71875 -0.15625,0 -0.79688,0.0156 -1.40625,0.46875 -0.21875,-0.14063 -0.6875,-0.39063 -1.29688,-0.39063 -1.25,0 -2.1875,0.98438 -2.1875,2.125 0,0.5625 0.21875,1 0.42188,1.25 -0.14063,0.21875 -0.26563,0.51563 -0.26563,0.90625 0,0.46875 0.1875,0.79688 0.3125,0.95313 -0.98437,0.60937 -0.98437,1.5 -0.98437,1.65625 0,1.14062 1.39062,1.95312 3.09375,1.95312 1.70312,0 3.09375,-0.82812 3.09375,-1.95312 0,-0.5 -0.25,-1.15625 -0.92188,-1.51563 -0.17187,-0.0937 -0.73437,-0.39062 -1.92187,-0.39062 h -0.9375 c -0.0937,0 -0.26563,0 -0.375,-0.0312 -0.20313,0 -0.28125,0 -0.4375,-0.17188 -0.15625,-0.1875 -0.17188,-0.45312 -0.17188,-0.48437 0,-0.0469 0.0313,-0.23438 0.0937,-0.375 z m 1.57813,4.125 c -1.32813,0 -2.32813,-0.57813 -2.32813,-1.15625 0,-0.25 0.125,-0.67188 0.54688,-0.9375 0.32812,-0.20313 0.45312,-0.20313 1.42187,-0.20313 1.17188,0 2.67188,0 2.67188,1.14063 0,0.57812 -0.98438,1.15625 -2.3125,1.15625 z m 0,0"
       style="fill:#00a650;fill-opacity:1;fill-rule:nonzero;stroke:none;stroke-width:1.33333"
       aria-label="type::String" />
    <path
       id="path83"
       d="m 188.2451,179.6164 c 0.15625,0 0.59375,0 0.59375,-0.46875 0,-0.45312 -0.48438,-0.45312 -0.67188,-0.45312 h -4.59375 c -0.1875,0 -0.6875,0 -0.6875,0.45312 0,0.46875 0.4375,0.46875 0.60938,0.46875 z m -0.0781,2.01563 c 0.1875,0 0.67188,0 0.67188,-0.46875 0,-0.45313 -0.4375,-0.45313 -0.59375,-0.45313 h -4.75 c -0.17188,0 -0.60938,0 -0.60938,0.45313 0,0.46875 0.5,0.46875 0.6875,0.46875 z m 11.0586,-4.9375 c 0.0469,-0.625 -0.40625,-0.73438 -0.57813,-0.73438 -0.25,0 -0.64062,0.15625 -0.59375,0.73438 l 0.17188,2.70312 c 0.0156,0.1875 0.0469,0.46875 0.42187,0.46875 0.32813,0 0.39063,-0.23437 0.40625,-0.46875 z m 2.35937,0 c 0.0312,-0.625 -0.42187,-0.73438 -0.59375,-0.73438 -0.25,0 -0.625,0.15625 -0.59375,0.73438 l 0.17188,2.70312 c 0.0156,0.1875 0.0625,0.46875 0.42187,0.46875 0.34375,0 0.40625,-0.23437 0.42188,-0.46875 z m 5.92578,-0.21875 c -0.125,-0.51563 -0.3125,-0.53125 -0.71875,-0.53125 -0.39062,0 -0.60937,0 -0.71875,0.51562 l -1.60937,6.95313 c -0.1875,0 -0.48438,0 -0.57813,0.0312 -0.14062,0.0781 -0.21875,0.20312 -0.21875,0.375 0,0.40625 0.34375,0.40625 0.57813,0.40625 h 1.34375 c 0.25,0 0.5625,0 0.5625,-0.40625 0,-0.40625 -0.26563,-0.40625 -0.75,-0.40625 l 0.3125,-1.375 h 2.15625 l 0.29687,1.375 c -0.46875,0 -0.73437,0 -0.73437,0.40625 0,0.40625 0.3125,0.40625 0.54687,0.40625 h 1.35938 c 0.21875,0 0.5625,0 0.5625,-0.40625 0,-0.17188 -0.0625,-0.29688 -0.21875,-0.35938 -0.0781,-0.0469 -0.375,-0.0469 -0.57813,-0.0469 z m -0.71875,0.54687 h 0.0156 l 0.85937,4.20313 h -1.75 z m 7.42578,-0.375 c 0,-0.40625 -0.0781,-0.53125 -0.53125,-0.53125 h -2.09375 c -0.20312,0 -0.54687,0 -0.54687,0.40625 0,0.39063 0.34375,0.39063 0.53125,0.39063 h 1.73437 v 6.5 h -1.71875 c -0.20312,0 -0.54687,0 -0.54687,0.40625 0,0.40625 0.34375,0.40625 0.53125,0.40625 h 4.375 c 0.20312,0 0.53125,0 0.53125,-0.40625 0,-0.40625 -0.3125,-0.40625 -0.53125,-0.40625 h -1.73438 z m 6.97266,0 c 0,-0.40625 -0.0781,-0.53125 -0.53125,-0.53125 h -2.09375 c -0.20313,0 -0.54688,0 -0.54688,0.40625 0,0.39063 0.34375,0.39063 0.53125,0.39063 h 1.73438 v 6.5 h -1.71875 c -0.20313,0 -0.54688,0 -0.54688,0.40625 0,0.40625 0.34375,0.40625 0.53125,0.40625 h 4.375 c 0.20313,0 0.53125,0 0.53125,-0.40625 0,-0.40625 -0.3125,-0.40625 -0.53125,-0.40625 h -1.73437 z m 6.97656,3.9375 c 0.35938,0.0781 1.46875,0.34375 1.46875,1.5 0,0.6875 -0.57812,1.46875 -1.625,1.46875 -0.375,0 -1.01562,-0.0469 -1.54687,-0.40625 -0.5625,-0.35937 -0.60938,-0.92187 -0.625,-1.15625 -0.0156,-0.21875 -0.0313,-0.46875 -0.45313,-0.46875 -0.46875,0 -0.46875,0.28125 -0.46875,0.54688 v 1.75 c 0,0.21875 0,0.54687 0.40625,0.54687 0.28125,0 0.375,-0.1875 0.48438,-0.60937 0.53125,0.40625 1.34375,0.60937 2.1875,0.60937 1.54687,0 2.5,-1.15625 2.5,-2.34375 0,-0.85937 -0.46875,-1.40625 -0.64063,-1.57812 -0.53125,-0.53125 -0.89062,-0.625 -1.9375,-0.875 l -1.07812,-0.23438 c -0.54688,-0.15625 -1.0625,-0.625 -1.0625,-1.25 0,-0.67187 0.65625,-1.3125 1.59375,-1.3125 1.57812,0 1.78125,1.25 1.85937,1.65625 0.0312,0.29688 0.1875,0.375 0.45313,0.375 0.45312,0 0.45312,-0.28125 0.45312,-0.54687 v -1.75 c 0,-0.20313 0,-0.54688 -0.39062,-0.54688 -0.32813,0 -0.39063,0.23438 -0.5,0.625 -0.54688,-0.46875 -1.25,-0.625 -1.85938,-0.625 -1.46875,0 -2.46875,1.04688 -2.46875,2.1875 0,0.89063 0.60938,1.76563 1.71875,2.07813 0.0469,0.0156 1.34375,0.32812 1.53125,0.35937 z m 5.23828,0.14063 c 0,-0.79688 0.76563,-1.5 1.60938,-1.5 0.98437,0 1.75,0.96875 1.75,2.125 0,1.28125 -0.92188,2.14062 -1.85938,2.14062 -1.03125,0 -1.5,-1.17187 -1.5,-1.79687 z m 0,2.90625 c 0.54688,0.54687 1.125,0.67187 1.54688,0.67187 1.4375,0 2.73437,-1.26562 2.73437,-2.95312 0,-1.625 -1.1875,-2.92188 -2.59375,-2.92188 -0.64062,0 -1.23437,0.23438 -1.6875,0.64063 0,-0.375 -0.0312,-0.5625 -0.53125,-0.5625 h -0.96875 c -0.21875,0 -0.54687,0 -0.54687,0.40625 0,0.39062 0.34375,0.39062 0.53125,0.39062 h 0.59375 v 7.0625 h -0.57813 c -0.21875,0 -0.54687,0 -0.54687,0.40625 0,0.40625 0.34375,0.40625 0.53125,0.40625 h 2.10937 c 0.1875,0 0.53125,0 0.53125,-0.40625 0,-0.40625 -0.32812,-0.40625 -0.53125,-0.40625 h -0.59375 z m 8.87891,-4.59375 c 0,-0.40625 -0.0781,-0.53125 -0.53125,-0.53125 h -1.89063 c -0.20312,0 -0.54687,0 -0.54687,0.39062 0,0.40625 0.34375,0.40625 0.54687,0.40625 h 1.5 v 4.10938 h -1.60937 c -0.20313,0 -0.54688,0 -0.54688,0.40625 0,0.40625 0.34375,0.40625 0.54688,0.40625 h 3.92187 c 0.20313,0 0.54688,0 0.54688,-0.40625 0,-0.40625 -0.34375,-0.40625 -0.54688,-0.40625 h -1.39062 z m 0,-2.28125 c 0,-0.375 -0.29688,-0.65625 -0.67188,-0.65625 -0.375,0 -0.65625,0.28125 -0.65625,0.65625 0,0.375 0.28125,0.67187 0.65625,0.67187 0.375,0 0.67188,-0.29687 0.67188,-0.67187 z m 5.07031,2.375 c 0,-0.4375 0,-0.625 -0.53125,-0.625 h -0.96875 c -0.21875,0 -0.54687,0 -0.54687,0.40625 0,0.39062 0.34375,0.39062 0.53125,0.39062 h 0.59375 v 4.10938 h -0.57813 c -0.21875,0 -0.54687,0 -0.54687,0.40625 0,0.40625 0.34375,0.40625 0.53125,0.40625 h 2.10937 c 0.1875,0 0.53125,0 0.53125,-0.40625 0,-0.40625 -0.32812,-0.40625 -0.53125,-0.40625 h -0.59375 v -2.34375 c 0,-1.32813 0.98438,-1.84375 1.65625,-1.84375 0.70313,0 0.89063,0.375 0.89063,1.17187 v 3.01563 h -0.51563 c -0.20312,0 -0.54687,0 -0.54687,0.40625 0,0.40625 0.35937,0.40625 0.54687,0.40625 h 2.03125 c 0.1875,0 0.53125,0 0.53125,-0.40625 0,-0.40625 -0.32812,-0.40625 -0.54687,-0.40625 h -0.57813 v -3.07813 c 0,-1.34375 -0.67187,-1.90625 -1.73437,-1.90625 -0.875,0 -1.48438,0.4375 -1.73438,0.70313 z m 8.72266,1.70312 c -0.29688,-0.0469 -0.5625,-0.0937 -0.89063,-0.15625 -0.39062,-0.0469 -1.29687,-0.21875 -1.29687,-0.73437 0,-0.34375 0.42187,-0.75 1.6875,-0.75 1.10937,0 1.28125,0.39062 1.32812,0.73437 0.0156,0.23438 0.0469,0.45313 0.45313,0.45313 0.46875,0 0.46875,-0.28125 0.46875,-0.54688 v -0.90625 c 0,-0.21875 0,-0.54687 -0.40625,-0.54687 -0.3125,0 -0.375,0.1875 -0.39063,0.28125 -0.59375,-0.28125 -1.17187,-0.28125 -1.42187,-0.28125 -2.21875,0 -2.53125,1.09375 -2.53125,1.5625 0,1.21875 1.39062,1.45312 2.625,1.64062 0.64062,0.10938 1.70312,0.28125 1.70312,0.98438 0,0.48437 -0.48437,0.92187 -1.6875,0.92187 -0.625,0 -1.375,-0.14062 -1.70312,-1.17187 -0.0781,-0.25 -0.125,-0.39063 -0.46875,-0.39063 -0.46875,0 -0.46875,0.28125 -0.46875,0.54688 v 1.28125 c 0,0.21875 0,0.54687 0.40625,0.54687 0.10937,0 0.32812,-0.0156 0.48437,-0.5 0.65625,0.46875 1.35938,0.5 1.73438,0.5 2.09375,0 2.51562,-1.09375 2.51562,-1.73437 0,-1.39063 -1.70312,-1.67188 -2.14062,-1.73438 z m 5.91015,-4.14062 c 0.0469,-0.625 -0.40625,-0.73438 -0.57812,-0.73438 -0.25,0 -0.64063,0.15625 -0.59375,0.73438 l 0.17187,2.70312 c 0.0156,0.1875 0.0469,0.46875 0.42188,0.46875 0.32812,0 0.39062,-0.23437 0.40625,-0.46875 z m 2.35938,0 c 0.0312,-0.625 -0.42188,-0.73438 -0.59375,-0.73438 -0.25,0 -0.625,0.15625 -0.59375,0.73438 l 0.17187,2.70312 c 0.0156,0.1875 0.0625,0.46875 0.42188,0.46875 0.34375,0 0.40625,-0.23437 0.42187,-0.46875 z m 0,0"
       style="fill:#ffffff;fill-opacity:1;fill-rule:nonzero;stroke:none;stroke-width:1.33333"
       aria-label="=&quot;AllSpins&quot;" />
    <path
       id="path84"
       d="m 1.3132656,-3.2682422 v -0.234375 c 0,-2.5195312 1.2421875,-2.8828125 1.7460938,-2.8828125 0.234375,0 0.65625,0.058594 0.8789062,0.3984375 -0.1523437,0 -0.5507812,0 -0.5507812,0.4453125 0,0.3164063 0.234375,0.4570313 0.4570312,0.4570313 0.1640625,0 0.4570313,-0.082031 0.4570313,-0.46875 0,-0.5976563 -0.4335938,-1.078125 -1.265625,-1.078125 -1.2773438,0 -2.61328128,1.2890625 -2.61328128,3.4804687 0,2.66015626 1.14843748,3.37500001 2.07421878,3.37500001 1.1132812,0 2.0507812,-0.9375 2.0507812,-2.25000001 0,-1.265625 -0.8789062,-2.2265625 -1.9921875,-2.2265625 -0.6679687,0 -1.0429687,0.5039063 -1.2421875,0.984375 z m 1.1835938,3.21093751 c -0.6210938,0 -0.9257813,-0.59765625 -0.984375,-0.75 C 1.3367031,-1.2760547 1.3367031,-2.0729297 1.3367031,-2.2487109 c 0,-0.7734375 0.3164063,-1.7695313 1.21875,-1.7695313 0.1523438,0 0.609375,0 0.9257813,0.609375 0.1757812,0.375 0.1757812,0.8789063 0.1757812,1.3710938 0,0.4804687 0,0.9726562 -0.1640625,1.33593746 -0.3046875,0.59765625 -0.7617187,0.64453125 -0.9960937,0.64453125 z m 0,0"
       style="fill:#000000;fill-opacity:1;fill-rule:nonzero;stroke:none"
       aria-label="6"
       transform="matrix(1.3333333,0,0,1.3333333,404.67867,1020.26)" />
  </g>
</svg>
