<svg class="main-svg" xmlns="http://www.w3.org/2000/svg" xmlns:xlink="http://www.w3.org/1999/xlink" width="888.8" height="427.2" style="" viewBox="0 0 888.8 427.2"><rect x="0" y="0" width="888.8" height="427.2" style="fill: rgb(0, 0, 0); fill-opacity: 0;"/><defs id="defs-fe905a"><g class="clips"><clipPath id="clipfe905axyplot" class="plotclip"><rect width="863" height="273"/></clipPath><clipPath class="axesclip" id="clipfe905ax"><rect x="26" y="0" width="863" height="427.2"/></clipPath><clipPath class="axesclip" id="clipfe905ay"><rect x="0" y="29" width="888.8" height="273"/></clipPath><clipPath class="axesclip" id="clipfe905axy"><rect x="26" y="29" width="863" height="273"/></clipPath></g><g class="gradients"/><g class="patterns"/></defs><g class="bglayer"><rect class="bg" x="26" y="29" width="863" height="273" style="fill: rgb(229, 236, 246); fill-opacity: 1; stroke-width: 0;"/></g><g class="layer-below"><g class="imagelayer"/><g class="shapelayer"/></g><g class="cartesianlayer"><g class="subplot xy"><g class="layer-subplot"><g class="shapelayer"/><g class="imagelayer"/></g><g class="gridlayer"><g class="x"><path class="xgrid crisp" transform="translate(126.61,0)" d="M0,29v273" style="stroke: rgb(255, 255, 255); stroke-opacity: 1; stroke-width: 1px;"/><path class="xgrid crisp" transform="translate(227.21,0)" d="M0,29v273" style="stroke: rgb(255, 255, 255); stroke-opacity: 1; stroke-width: 1px;"/><path class="xgrid crisp" transform="translate(327.82,0)" d="M0,29v273" style="stroke: rgb(255, 255, 255); stroke-opacity: 1; stroke-width: 1px;"/><path class="xgrid crisp" transform="translate(428.42,0)" d="M0,29v273" style="stroke: rgb(255, 255, 255); stroke-opacity: 1; stroke-width: 1px;"/><path class="xgrid crisp" transform="translate(529.03,0)" d="M0,29v273" style="stroke: rgb(255, 255, 255); stroke-opacity: 1; stroke-width: 1px;"/><path class="xgrid crisp" transform="translate(629.64,0)" d="M0,29v273" style="stroke: rgb(255, 255, 255); stroke-opacity: 1; stroke-width: 1px;"/><path class="xgrid crisp" transform="translate(730.24,0)" d="M0,29v273" style="stroke: rgb(255, 255, 255); stroke-opacity: 1; stroke-width: 1px;"/><path class="xgrid crisp" transform="translate(830.85,0)" d="M0,29v273" style="stroke: rgb(255, 255, 255); stroke-opacity: 1; stroke-width: 1px;"/></g><g class="y"><path class="ygrid crisp" transform="translate(0,288.9)" d="M26,0h863" style="stroke: rgb(255, 255, 255); stroke-opacity: 1; stroke-width: 1px;"/><path class="ygrid crisp" transform="translate(0,247.86)" d="M26,0h863" style="stroke: rgb(255, 255, 255); stroke-opacity: 1; stroke-width: 1px;"/><path class="ygrid crisp" transform="translate(0,206.81)" d="M26,0h863" style="stroke: rgb(255, 255, 255); stroke-opacity: 1; stroke-width: 1px;"/><path class="ygrid crisp" transform="translate(0,124.72)" d="M26,0h863" style="stroke: rgb(255, 255, 255); stroke-opacity: 1; stroke-width: 1px;"/><path class="ygrid crisp" transform="translate(0,83.68)" d="M26,0h863" style="stroke: rgb(255, 255, 255); stroke-opacity: 1; stroke-width: 1px;"/><path class="ygrid crisp" transform="translate(0,42.63)" d="M26,0h863" style="stroke: rgb(255, 255, 255); stroke-opacity: 1; stroke-width: 1px;"/></g></g><g class="zerolinelayer"><path class="xzl zl crisp" transform="translate(26,0)" d="M0,29v273" style="stroke: rgb(255, 255, 255); stroke-opacity: 1; stroke-width: 2px;"/><path class="yzl zl crisp" transform="translate(0,165.77)" d="M26,0h863" style="stroke: rgb(255, 255, 255); stroke-opacity: 1; stroke-width: 2px;"/></g><path class="xlines-below"/><path class="ylines-below"/><g class="overlines-below"/><g class="xaxislayer-below"/><g class="yaxislayer-below"/><g class="overaxes-below"/><g class="plot" transform="translate(26,29)" clip-path="url(#clipfe905axyplot)"><g class="scatterlayer mlayer"><g class="trace scatter traceaf4d84" style="stroke-miterlimit: 2; opacity: 1;"><g class="fills"/><g class="errorbars"/><g class="lines"><path class="js-line" d="M406.25,136.77L406.55,141.4L406.95,136.73L407.15,132.38L407.56,127.37L407.96,130.46L408.16,134.31L409.17,149.96L409.37,149.23L409.57,147.05L411.18,120.63L411.38,121.18L411.58,122.97L413.59,155.41L413.79,154.78L413.99,153.06L415.2,129.2L415.4,125.09L416.21,116L416.41,116.11L416.61,117.23L417.62,134.39L417.82,139L419.23,159.58L419.43,159.35L419.63,158.2L420.63,141.58L420.84,137.01L422.45,112.17L422.65,112.24L422.85,113.17L423.85,128.51L424.06,132.97L426.07,163.12L426.27,162.53L427.07,152.86L427.27,148.99L429.69,108.81L429.89,109L430.09,109.96L431.1,124.42L431.3,128.7L433.71,166.25L433.91,165.72L434.72,156.93L434.92,153.34L437.74,105.86L437.94,105.99L438.54,110.42L438.74,113.12L442.16,169.07L442.37,168.6L443.17,160.53L443.37,157.17L446.59,103.14L446.79,103.34L447.4,107.63L447.6,110.21L449.61,151.85L449.81,155.88L451.22,171.61L451.42,171.59L452.02,167.93L452.22,165.58L453.83,133.73L454.04,129.16L456.05,100.73L456.25,100.68L456.85,104L457.05,106.21L458.46,132.69L458.66,137.3L460.88,173.41L461.08,174.01L461.48,173.48L461.68,172.37L462.69,159.27L462.89,155.42L466.11,98.74L466.31,98.31L466.71,99.12L466.91,100.34L467.92,113.7L468.12,117.56L471.54,176.19L471.74,176.34L472.35,173.58L472.55,171.64L473.96,146.99L474.16,142.46L476.77,97.17L476.97,96.37L477.18,96.09L477.38,96.34L477.58,97.11L478.58,108.2L478.78,111.66L482.61,178.24L482.81,178.5L483.21,177.48L483.41,176.22L484.62,159.45L484.82,155.44L488.24,94.72L488.44,94.12L488.85,94.43L489.05,95.33L490.05,106.67L490.25,110.12L494.28,180.26L494.48,180.54L494.88,179.63L495.08,178.45L496.29,162.47L496.49,158.58L500.31,92.31L500.52,92.01L500.92,92.85L501.12,93.98L502.13,106.05L502.33,109.56L506.55,182.33L506.75,182.48L507.36,180.16L507.56,178.47L508.97,156.29L509.17,152.04L512.59,91.2L512.79,90.43L512.99,90.11L513.39,90.85L513.59,91.9L514.6,103.39L514.8,106.78L519.23,184.04L519.43,184.35L519.83,183.61L520.03,182.58L521.04,171.27L521.24,167.94L525.87,88.41L526.07,88.28L526.67,90.52L526.87,92.12L528.08,109.47L528.28,113.41L532.31,185.27L532.51,185.93L532.71,186.15L532.91,185.95L533.11,185.31L534.12,175.97L534.32,172.99L536.94,117.78L537.14,113.58L539.15,87.23L539.35,86.66L539.55,86.51L539.75,86.79L539.95,87.5L540.96,97.02L541.16,100.02L543.78,155.26L543.98,159.51L545.99,186.83L546.19,187.56L546.59,187.77L546.79,187.25L547,186.31L548,175.82L548.2,172.69L553.23,85.12L553.43,84.81L553.84,85.44L554.04,86.36L555.04,96.71L555.25,99.82L558.06,159.65L558.26,163.74L560.28,188.91L560.48,189.44L560.88,189.27L561.08,188.59L562.09,179.4L562.29,176.5L564.7,126.3L564.9,121.83L567.32,84.83L567.52,83.88L567.92,83.15L568.12,83.39L568.32,84.02L569.13,90.37L569.33,92.86L571.34,131.58L571.54,136.19L574.56,188.68L574.76,189.89L575.37,191.16L575.57,190.8L575.77,190.05L576.78,180.73L576.98,177.84L579.39,127.85L579.59,123.31L582.01,84.32L582.21,83.05L582.81,81.56L583.01,81.83L583.21,82.49L584.02,88.84L584.22,91.31L586.23,129.64L586.43,134.23L589.45,188.87L589.65,190.39L590.46,192.73L590.66,192.36L590.86,191.62L591.87,182.48L592.07,179.65L594.28,134.75L594.48,130.1L597.3,82.72L597.5,81.48L598.1,80L598.31,80.25L598.51,80.89L599.51,89.44L599.71,92.15L601.93,136.32L602.13,140.95L604.95,190.39L605.15,191.89L605.95,194.28L606.15,193.95L606.35,193.25L607.36,184.45L607.56,181.71L609.77,137.48L609.98,132.85L612.79,82.87L612.99,81.28L613.8,78.48L614,78.69L614.2,79.27L615.21,87.44L615.41,90.05L617.42,128.84L617.62,133.45L620.84,191.77L621.04,193.28L621.85,195.79L622.05,195.51L622.25,194.88L623.26,186.5L623.46,183.86L625.47,145L625.67,140.4L628.89,81.53L629.09,79.93L629.9,77L630.1,77.16L630.3,77.67L631.1,83.21L631.3,85.43L632.91,112.7L633.11,117L637.34,194.62L637.54,195.81L638.15,197.26L638.35,197.03L638.55,196.46L639.55,188.49L639.75,185.94L641.57,152.36L641.77,147.85L645.39,80.19L645.59,78.58L646.39,75.56L646.6,75.68L646.8,76.14L647.6,81.4L647.8,83.53L649.61,114.38L649.82,118.74L653.84,194.48L654.04,195.99L654.85,198.68L655.05,198.5L655.25,197.96L656.25,190.29L656.46,187.83L658.47,150.45L658.67,145.9L662.29,78.75L662.49,77.17L663.3,74.16L663.5,74.25L663.7,74.69L664.5,79.78L664.71,81.84L666.52,112.11L666.72,116.41L670.94,195.97L671.14,197.45L671.95,200.08L672.15,199.89L672.35,199.37L673.36,191.87L673.56,189.43L675.57,152.56L675.77,148.04L679.59,77.18L679.8,75.64L680.6,72.78L680.8,72.89L681,73.34L681.81,78.4L682.01,80.47L683.62,106.25L683.82,110.36L688.45,197.63L688.65,199.04L689.45,201.43L689.66,201.21L689.86,200.65L690.86,193.08L691.06,190.66L692.87,158.42L693.08,154.05L697.1,77.13L697.3,75.37L698.31,71.43L698.51,71.61L698.71,72.12L699.72,79.42L699.92,81.8L701.93,117.98L702.13,122.42L706.15,197.9L706.36,199.5L707.36,202.73L707.56,202.41L707.76,201.77L708.77,193.87L708.97,191.43L710.98,154.67L711.19,150.2L715.21,74.96L715.41,73.38L716.42,70.14L716.62,70.45L716.82,71.08L717.83,78.85L718.03,81.31L720.04,117.77L720.24,122.23L724.26,198.45L724.47,200.14L725.47,204.08L725.67,203.92L725.87,203.44L726.68,198.43L726.88,196.42L728.49,171.34L728.69,167.31L733.72,72.55L733.92,71.2L734.73,68.81L734.93,69L735.13,69.5L736.14,76.6L736.34,78.87L738.35,114.22L738.55,118.6L742.78,199.37L742.98,201.12L743.98,205.35L744.18,205.27L744.39,204.88L745.19,200.24L745.39,198.36L747,174.06L747.2,170.11L752.43,71.38L752.63,70.01L753.44,67.54L753.64,67.69L753.84,68.15L754.85,74.96L755.05,77.18L756.86,107.6L757.06,111.85L761.89,202.51L762.09,203.92L762.9,206.62L763.1,206.53L763.3,206.13L764.1,201.53L764.31,199.66L765.92,175.67L766.12,171.75L771.55,69.8L771.75,68.5L772.56,66.3L772.76,66.5L772.96,67.01L773.96,73.96L774.16,76.19L775.98,106.54L776.18,110.77L781.01,202.74L781.21,204.32L782.21,207.86L782.41,207.66L782.62,207.17L783.62,200.32L783.82,198.12L785.63,168.06L785.84,163.84L790.66,70.96L790.87,69.26L791.87,65.08L792.07,65.13L792.27,65.49L793.08,69.82L793.28,71.63L794.89,94.91L795.09,98.75L800.72,205.12L800.93,206.49L801.73,209.07L801.93,208.98L802.13,208.59L802.94,204.13L803.14,202.31L804.75,178.95L804.95,175.11L810.79,66.77L810.99,65.62L811.79,63.9L811.99,64.2L812.19,64.8L813.2,72.04L813.4,74.3L815.41,108.73L815.61,113.06L820.64,206.44L820.85,207.77L821.65,210.27L821.85,210.17L822.05,209.77L822.86,205.34L823.06,203.54L824.67,180.42L824.87,176.62L830.71,66.6L830.91,65.25L831.71,62.68L831.91,62.76L832.11,63.12L832.92,67.43L833.12,69.19L834.73,92L834.93,95.77L840.97,208.27L841.17,209.47L841.97,211.37L841.97,136.77" style="vector-effect: non-scaling-stroke; fill: none; stroke: rgb(99, 110, 250); stroke-opacity: 1; stroke-width: 2px; opacity: 1;"/><path class="js-line" d="M842.07,136.77L842.07,211.37L863,136.77" style="vector-effect: non-scaling-stroke; fill: none; stroke: rgb(99, 110, 250); stroke-opacity: 1; stroke-width: 2px; opacity: 1;"/></g><g class="points"/><g class="text"/></g><g class="trace scatter tracecdcede" style="stroke-miterlimit: 2; opacity: 1;"><g class="fills"/><g class="errorbars"/><g class="lines"><path class="js-line" d="M406.25,136.77L406.35,133.75L406.75,141.38L406.95,143.71L407.15,143.31L407.35,140.55L408.36,125.35L408.56,126.55L408.76,129.3L410.17,151.48L410.37,150.51L410.57,148.23L412.38,119.36L412.59,120.2L412.79,122.18L414.8,156.42L415.2,155.32L415.4,153.24L417.82,114.96L418.02,115.78L418.22,117.52L419.63,145.27L419.83,149.42L420.84,160.53L421.04,160.24L421.24,159.07L422.24,142.65L422.45,138.11L424.26,111.23L424.46,111.69L425.26,121.13L425.46,125.01L427.88,163.95L428.08,163.46L428.88,154.29L429.09,150.54L431.7,108.02L431.9,108.48L432.71,117.2L432.91,120.81L435.73,166.99L435.93,166.58L436.73,158.32L436.93,154.86L439.95,105.13L440.15,105.52L440.96,113.41L441.16,116.76L444.38,169.75L444.58,169.34L445.38,161.62L445.58,158.36L449.01,102.51L449.21,102.99L450.01,110.8L450.21,114.03L453.63,172.24L453.83,172.2L454.44,168.53L454.64,166.2L456.25,134.51L456.45,129.92L458.46,100.3L458.66,100.03L459.07,101.23L459.27,102.68L460.47,121.29L460.68,125.59L463.49,174.19L463.69,174.64L464.1,173.87L464.3,172.65L465.3,159.2L465.5,155.31L468.93,97.78L469.13,97.82L469.73,101.16L469.93,103.31L471.54,133.53L471.74,138.14L473.96,175.49L474.16,176.45L474.36,176.88L474.76,176.14L474.96,174.99L475.97,162.17L476.17,158.43L479.79,95.78L479.99,95.56L480.39,96.67L480.6,97.99L481.8,115.12L482,119.17L485.42,178.62L485.63,179L486.03,178.26L486.23,177.13L487.24,164.75L487.44,161.13L491.26,93.91L491.46,93.52L491.86,94.21L492.06,95.3L493.07,107.36L493.27,110.91L497.3,180.79L497.5,181.03L497.9,180.08L498.1,178.89L499.31,162.92L499.51,159.04L503.33,91.99L503.53,91.56L503.94,92.14L504.14,93.12L505.14,104.53L505.34,107.93L509.77,182.92L509.97,182.89L510.58,180.04L510.78,178.21L512.19,155.31L512.39,150.99L515.81,90.64L516.01,89.92L516.21,89.64L516.41,89.82L516.61,90.45L517.42,97.3L517.62,100.01L519.83,145.43L520.03,149.93L522.25,183.52L522.45,184.37L522.85,184.73L523.05,184.25L523.25,183.33L524.26,172.55L524.46,169.31L529.09,88.21L529.29,87.85L529.69,88.43L529.89,89.37L530.9,100.12L531.1,103.34L535.93,186.44L536.13,186.59L536.73,184.48L536.94,182.95L538.34,162.23L538.54,158.16L542.57,86.89L542.77,86.27L542.97,86.07L543.17,86.3L543.37,86.94L544.18,93.55L544.38,96.14L546.39,135.88L546.59,140.5L549.21,185.53L549.41,186.83L550.01,188.29L550.22,187.95L550.42,187.19L551.42,177.57L551.62,174.59L553.84,128.38L554.04,123.84L556.45,86.14L556.65,85.16L557.06,84.38L557.26,84.61L557.46,85.24L558.47,94.21L558.67,97.08L561.08,147.15L561.28,151.67L563.7,188.42L563.9,189.34L564.3,189.97L564.5,189.68L564.7,188.99L565.71,179.85L565.91,176.98L568.32,126.91L568.53,122.39L570.94,84.74L571.14,83.68L571.54,82.75L571.95,83.4L572.15,84.32L573.15,94.4L573.35,97.44L575.57,143.58L575.77,148.13L578.18,188.3L578.39,189.7L578.99,191.59L579.39,190.9L579.59,189.98L580.6,179.91L580.8,176.92L583.42,121.86L583.62,117.46L585.83,83.64L586.03,82.45L586.63,81.18L586.84,81.53L587.04,82.26L588.04,91.37L588.24,94.18L590.26,134.51L590.46,139.12L593.27,189.16L593.48,190.69L594.28,193.13L594.48,192.79L594.68,192.08L595.69,183.12L595.89,180.34L598.1,135.67L598.31,131.05L601.12,82.8L601.32,81.46L601.93,79.61L602.13,79.74L602.33,80.25L603.13,85.9L603.34,88.18L605.15,120.52L605.35,124.99L608.97,191.45L609.17,192.79L609.77,194.68L610.18,194.09L610.38,193.24L611.38,183.81L611.59,180.97L614,131.55L614.2,126.96L616.82,82.21L617.02,80.68L617.82,78.11L618.02,78.38L618.23,79.01L619.23,87.39L619.43,90.04L621.65,133.58L621.85,138.21L624.87,192L625.07,193.53L625.87,196.16L626.07,195.92L626.27,195.33L627.28,187.16L627.48,184.56L629.49,146.02L629.69,141.43L633.11,80.06L633.32,78.68L633.92,76.66L634.32,77.09L634.52,77.83L635.53,86.62L635.73,89.32L637.94,132.98L638.15,137.6L641.16,192.44L641.36,194.15L642.37,197.57L642.57,197.2L642.77,196.49L643.78,187.89L643.98,185.24L646.19,141.96L646.39,137.34L649.61,79.51L649.82,77.97L650.62,75.2L650.82,75.38L651.02,75.89L652.03,83.52L652.23,85.98L654.24,123.41L654.44,127.98L658.07,194.74L658.27,196.26L659.07,199.03L659.27,198.87L659.47,198.37L660.48,190.85L660.68,188.42L662.69,151.29L662.89,146.76L666.72,77.26L666.92,75.91L667.72,73.84L667.92,74.17L668.13,74.84L669.13,83.07L669.33,85.62L671.35,123.42L671.55,127.98L675.17,195.4L675.37,197.05L676.38,200.38L676.58,200.04L676.78,199.37L677.78,191.18L677.99,188.65L680,151.02L680.2,146.5L683.82,78.2L684.02,76.43L685.03,72.43L685.23,72.63L685.43,73.14L686.44,80.57L686.64,82.99L688.65,119.55L688.85,124.01L692.67,196.26L692.87,197.99L693.88,201.77L694.08,201.55L694.28,200.99L695.29,193.48L695.49,191.05L697.5,154.57L697.7,150.03L701.73,75.41L701.93,73.9L702.73,71.1L702.94,71.2L703.14,71.64L703.94,76.57L704.14,78.55L705.95,107.89L706.15,112.09L710.98,200.58L711.19,201.68L711.79,203.1L711.99,202.93L712.19,202.43L713.2,195.27L713.4,192.96L715.41,157.19L715.61,152.75L719.64,75.86L719.84,74.07L720.84,69.78L721.04,69.88L721.25,70.29L722.05,75.06L722.25,77.02L723.86,101.81L724.06,105.8L729.09,200.64L729.29,202.02L730.1,204.4L730.3,204.21L730.5,203.7L731.51,196.55L731.71,194.27L733.72,158.8L733.92,154.41L738.15,74.09L738.35,72.39L739.35,68.49L739.56,68.64L739.76,69.1L740.76,76.01L740.96,78.24L742.78,108.93L742.98,113.21L747.6,200.92L747.81,202.46L748.81,205.65L749.01,205.36L749.21,204.76L750.22,197.28L750.42,194.92L752.43,159.3L752.63,154.89L757.06,71.92L757.26,70.4L758.27,67.25L758.47,67.55L758.67,68.14L759.68,75.58L759.88,77.92L761.89,113.35L762.09,117.74L766.52,201.56L766.72,203.21L767.73,206.93L767.93,206.77L768.13,206.3L768.93,201.44L769.13,199.52L770.74,175.17L770.95,171.23L776.38,69.43L776.58,68.15L777.38,65.99L777.59,66.2L777.79,66.72L778.79,73.7L778.99,75.93L780.8,106.21L781.01,110.48L785.84,202.75L786.04,204.39L787.04,208.17L787.24,208.03L787.44,207.59L788.25,202.91L788.45,201.03L790.06,177.17L790.26,173.26L795.9,68.03L796.1,66.8L796.9,64.77L797.1,65.01L797.3,65.54L798.31,72.53L798.51,74.76L800.32,104.85L800.52,109.06L805.55,204.5L805.76,206.03L806.76,209.37L806.96,209.16L807.16,208.65L808.17,201.82L808.37,199.63L810.18,169.86L810.38,165.68L815.41,69.22L815.61,67.57L816.62,63.57L816.82,63.64L817.02,64L817.83,68.33L818.03,70.11L819.64,93.11L819.84,96.91L825.68,206.76L825.88,208.09L826.68,210.56L826.88,210.46L827.08,210.07L827.89,205.64L828.09,203.85L829.7,180.79L829.9,177L835.74,66.58L835.94,65.19L836.94,62.43L837.14,62.73L837.35,63.33L838.35,70.48L838.55,72.71L840.56,106.74L840.77,111.03L841.97,136.77" style="vector-effect: non-scaling-stroke; fill: none; stroke: rgb(239, 85, 59); stroke-opacity: 1; stroke-width: 2px; opacity: 1;"/><path class="js-line" d="M842.07,136.77L842.07,133.62L863,136.77" style="vector-effect: non-scaling-stroke; fill: none; stroke: rgb(239, 85, 59); stroke-opacity: 1; stroke-width: 2px; opacity: 1;"/></g><g class="points"/><g class="text"/></g><g class="trace scatter trace64c4b2" style="stroke-miterlimit: 2; opacity: 1;"><g class="fills"/><g class="errorbars"/><g class="lines"><path class="js-line" d="M163.59,136.77L168.62,13.65L321.13,13.65L326.17,136.77" style="vector-effect: non-scaling-stroke; fill: none; stroke: rgb(0, 204, 150); stroke-opacity: 1; stroke-width: 2px; opacity: 1;"/><path class="js-line" d="M326.37,136.77L328.18,93.92L388.54,93.92L390.35,136.77" style="vector-effect: non-scaling-stroke; fill: none; stroke: rgb(0, 204, 150); stroke-opacity: 1; stroke-width: 2px; opacity: 1;"/><path class="js-line" d="M390.35,136.77L395.38,259.35L401.22,259.35L406.25,136.77" style="vector-effect: non-scaling-stroke; fill: none; stroke: rgb(0, 204, 150); stroke-opacity: 1; stroke-width: 2px; opacity: 1;"/><path class="js-line" d="M842.07,136.77L847.1,14.74L857.97,14.74L863,136.77" style="vector-effect: non-scaling-stroke; fill: none; stroke: rgb(0, 204, 150); stroke-opacity: 1; stroke-width: 2px; opacity: 1;"/></g><g class="points"/><g class="text"/></g><g class="trace scatter trace57730c" style="stroke-miterlimit: 2; opacity: 1;"><g class="fills"/><g class="errorbars"/><g class="lines"><path class="js-line" d="M2.02,136.77L39.05,135.88L40.65,135.69L50.31,133.83L51.92,133.39L64.8,128.7L66.41,128.07L76.07,124.97L77.68,124.67L84.12,124.31L85.73,124.44L93.78,126.29L95.38,126.85L117.92,134.6L119.53,134.93L130.8,136.29L132.41,136.38L154.94,136.76L156.55,136.76L162.97,136.77" style="vector-effect: non-scaling-stroke; fill: none; stroke: rgb(171, 99, 250); stroke-opacity: 1; stroke-width: 2px; opacity: 1;"/><path class="js-line" d="M328.19,136.77L334.83,136.04L335.43,135.87L340.26,135.06L340.86,135.19L343.28,136.76L343.88,136.08L346.3,131.93L346.9,130.57L351.73,116.84L352.33,115.07L355.95,106.85L356.56,106.07L358.37,105.04L358.97,105.15L360.78,106.82L361.39,107.79L364.41,115.02L365.01,116.78L371.05,133.13L371.65,134.24L373.46,136.76L374.06,136.21L376.48,135.06L377.08,135.01L380.7,135.69L381.31,135.87L387.34,136.76L387.95,136.77L388.53,136.77" style="vector-effect: non-scaling-stroke; fill: none; stroke: rgb(171, 99, 250); stroke-opacity: 1; stroke-width: 2px; opacity: 1;"/></g><g class="points"/><g class="text"/></g><g class="trace scatter trace607b2f" style="stroke-miterlimit: 2; opacity: 1;"><g class="fills"/><g class="errorbars"/><g class="lines"><path class="js-line" d="M406.26,136.77L406.26,132.66L816.7,132.66L816.7,136.77" style="vector-effect: non-scaling-stroke; fill: none; stroke: rgb(25, 211, 243); stroke-opacity: 1; stroke-width: 2px; opacity: 1;"/></g><g class="points"/><g class="text"/></g></g></g><g class="overplot"/><path class="xlines-above crisp" d="M0,0" style="fill: none;"/><path class="ylines-above crisp" d="M0,0" style="fill: none;"/><g class="overlines-above"/><g class="xaxislayer-above"><g class="xtick"><text text-anchor="middle" x="0" y="315" transform="translate(26,0)" style="font-family: 'Open Sans', verdana, arial, sans-serif; font-size: 12px; fill: rgb(128, 128, 128); fill-opacity: 1; white-space: pre; opacity: 1;">0 ms</text></g><g class="xtick"><text text-anchor="middle" x="0" y="315" style="font-family: 'Open Sans', verdana, arial, sans-serif; font-size: 12px; fill: rgb(128, 128, 128); fill-opacity: 1; white-space: pre; opacity: 1;" transform="translate(126.61,0)">5 ms</text></g><g class="xtick"><text text-anchor="middle" x="0" y="315" style="font-family: 'Open Sans', verdana, arial, sans-serif; font-size: 12px; fill: rgb(128, 128, 128); fill-opacity: 1; white-space: pre; opacity: 1;" transform="translate(227.21,0)">10 ms</text></g><g class="xtick"><text text-anchor="middle" x="0" y="315" style="font-family: 'Open Sans', verdana, arial, sans-serif; font-size: 12px; fill: rgb(128, 128, 128); fill-opacity: 1; white-space: pre; opacity: 1;" transform="translate(327.82,0)">15 ms</text></g><g class="xtick"><text text-anchor="middle" x="0" y="315" style="font-family: 'Open Sans', verdana, arial, sans-serif; font-size: 12px; fill: rgb(128, 128, 128); fill-opacity: 1; white-space: pre; opacity: 1;" transform="translate(428.42,0)">20 ms</text></g><g class="xtick"><text text-anchor="middle" x="0" y="315" style="font-family: 'Open Sans', verdana, arial, sans-serif; font-size: 12px; fill: rgb(128, 128, 128); fill-opacity: 1; white-space: pre; opacity: 1;" transform="translate(529.03,0)">25 ms</text></g><g class="xtick"><text text-anchor="middle" x="0" y="315" style="font-family: 'Open Sans', verdana, arial, sans-serif; font-size: 12px; fill: rgb(128, 128, 128); fill-opacity: 1; white-space: pre; opacity: 1;" transform="translate(629.64,0)">30 ms</text></g><g class="xtick"><text text-anchor="middle" x="0" y="315" style="font-family: 'Open Sans', verdana, arial, sans-serif; font-size: 12px; fill: rgb(128, 128, 128); fill-opacity: 1; white-space: pre; opacity: 1;" transform="translate(730.24,0)">35 ms</text></g><g class="xtick"><text text-anchor="middle" x="0" y="315" style="font-family: 'Open Sans', verdana, arial, sans-serif; font-size: 12px; fill: rgb(128, 128, 128); fill-opacity: 1; white-space: pre; opacity: 1;" transform="translate(830.85,0)">40 ms</text></g></g><g class="yaxislayer-above"><g class="ytick"><text text-anchor="end" x="25" y="4.199999999999999" transform="translate(0,288.9)" style="font-family: 'Open Sans', verdana, arial, sans-serif; font-size: 12px; fill: rgb(128, 128, 128); fill-opacity: 1; white-space: pre; opacity: 1;">−30</text></g><g class="ytick"><text text-anchor="end" x="25" y="4.199999999999999" style="font-family: 'Open Sans', verdana, arial, sans-serif; font-size: 12px; fill: rgb(128, 128, 128); fill-opacity: 1; white-space: pre; opacity: 1;" transform="translate(0,247.86)">−20</text></g><g class="ytick"><text text-anchor="end" x="25" y="4.199999999999999" style="font-family: 'Open Sans', verdana, arial, sans-serif; font-size: 12px; fill: rgb(128, 128, 128); fill-opacity: 1; white-space: pre; opacity: 1;" transform="translate(0,206.81)">−10</text></g><g class="ytick"><text text-anchor="end" x="25" y="4.199999999999999" style="font-family: 'Open Sans', verdana, arial, sans-serif; font-size: 12px; fill: rgb(128, 128, 128); fill-opacity: 1; white-space: pre; opacity: 1;" transform="translate(0,165.77)">0</text></g><g class="ytick"><text text-anchor="end" x="25" y="4.199999999999999" style="font-family: 'Open Sans', verdana, arial, sans-serif; font-size: 12px; fill: rgb(128, 128, 128); fill-opacity: 1; white-space: pre; opacity: 1;" transform="translate(0,124.72)">10</text></g><g class="ytick"><text text-anchor="end" x="25" y="4.199999999999999" style="font-family: 'Open Sans', verdana, arial, sans-serif; font-size: 12px; fill: rgb(128, 128, 128); fill-opacity: 1; white-space: pre; opacity: 1;" transform="translate(0,83.68)">20</text></g><g class="ytick"><text text-anchor="end" x="25" y="4.199999999999999" style="font-family: 'Open Sans', verdana, arial, sans-serif; font-size: 12px; fill: rgb(128, 128, 128); fill-opacity: 1; white-space: pre; opacity: 1;" transform="translate(0,42.63)">30</text></g></g><g class="overaxes-above"/></g></g><g class="polarlayer"/><g class="ternarylayer"/><g class="geolayer"/><g class="funnelarealayer"/><g class="pielayer"/><g class="iciclelayer"/><g class="treemaplayer"/><g class="sunburstlayer"/><g class="glimages"/><defs id="topdefs-fe905a"><g class="clips"/><clipPath id="legendfe905a"><rect width="428" height="29" x="0" y="0"/></clipPath><clipPath id="rangesliderx-fe905a"><rect x="0" y="0" width="863" height="64.08"/></clipPath></defs><g class="layer-above"><g class="imagelayer"/><g class="shapelayer"/></g><g class="infolayer"><g class="legend" pointer-events="all" transform="translate(26,0)"><rect class="bg" shape-rendering="crispEdges" width="428" height="29" x="0" y="0" style="stroke: rgb(68, 68, 68); stroke-opacity: 1; fill: rgb(0, 0, 0); fill-opacity: 0; stroke-width: 0px;"/><g class="scrollbox" transform="" clip-path="url(#legendfe905a)"><g class="groups"><g class="traces" transform="translate(0,14.5)" style="opacity: 1;"><text class="legendtext" text-anchor="start" x="40" y="4.680000000000001" style="font-family: 'Open Sans', verdana, arial, sans-serif; font-size: 12px; fill: rgb(128, 128, 128); fill-opacity: 1; white-space: pre;">Gx</text><g class="layers" style="opacity: 1;"><g class="legendfill"/><g class="legendlines"><path class="js-line" d="M5,0h30" style="fill: none; stroke: rgb(99, 110, 250); stroke-opacity: 1; stroke-width: 2px;"/></g><g class="legendsymbols"><g class="legendpoints"/></g></g><rect class="legendtoggle" x="0" y="-9.5" width="59.00468826293945" height="19" style="fill: rgb(0, 0, 0); fill-opacity: 0;"/></g><g class="traces" transform="translate(61.50468826293945,14.5)" style="opacity: 1;"><text class="legendtext" text-anchor="start" x="40" y="4.680000000000001" style="font-family: 'Open Sans', verdana, arial, sans-serif; font-size: 12px; fill: rgb(128, 128, 128); fill-opacity: 1; white-space: pre;">Gy</text><g class="layers" style="opacity: 1;"><g class="legendfill"/><g class="legendlines"><path class="js-line" d="M5,0h30" style="fill: none; stroke: rgb(239, 85, 59); stroke-opacity: 1; stroke-width: 2px;"/></g><g class="legendsymbols"><g class="legendpoints"/></g></g><rect class="legendtoggle" x="0" y="-9.5" width="59.00468826293945" height="19" style="fill: rgb(0, 0, 0); fill-opacity: 0;"/></g><g class="traces" transform="translate(123.0093765258789,14.5)" style="opacity: 1;"><text class="legendtext" text-anchor="start" x="40" y="4.680000000000001" style="font-family: 'Open Sans', verdana, arial, sans-serif; font-size: 12px; fill: rgb(128, 128, 128); fill-opacity: 1; white-space: pre;">Gz</text><g class="layers" style="opacity: 1;"><g class="legendfill"/><g class="legendlines"><path class="js-line" d="M5,0h30" style="fill: none; stroke: rgb(0, 204, 150); stroke-opacity: 1; stroke-width: 2px;"/></g><g class="legendsymbols"><g class="legendpoints"/></g></g><rect class="legendtoggle" x="0" y="-9.5" width="58.20468807220459" height="19" style="fill: rgb(0, 0, 0); fill-opacity: 0;"/></g><g class="traces" transform="translate(183.7140645980835,14.5)" style="opacity: 1;"><text class="legendtext" text-anchor="start" x="40" y="4.680000000000001" style="font-family: 'Open Sans', verdana, arial, sans-serif; font-size: 12px; fill: rgb(128, 128, 128); fill-opacity: 1; white-space: pre;">|RF_1|</text><g class="layers" style="opacity: 1;"><g class="legendfill"/><g class="legendlines"><path class="js-line" d="M5,0h30" style="fill: none; stroke: rgb(171, 99, 250); stroke-opacity: 1; stroke-width: 2px;"/></g><g class="legendsymbols"><g class="legendpoints"/></g></g><rect class="legendtoggle" x="0" y="-9.5" width="83.9000015258789" height="19" style="fill: rgb(0, 0, 0); fill-opacity: 0;"/></g><g class="traces" transform="translate(270.1140661239624,14.5)" style="opacity: 0.5;"><text class="legendtext" text-anchor="start" x="40" y="4.680000000000001" style="font-family: 'Open Sans', verdana, arial, sans-serif; font-size: 12px; fill: rgb(128, 128, 128); fill-opacity: 1; white-space: pre;">&#60;RF_1</text><g class="layers" style="opacity: 1;"><g class="legendfill"/><g class="legendlines"><path class="js-line" d="M5,0h30" style="fill: none; stroke: rgb(255, 161, 90); stroke-opacity: 1; stroke-width: 2px;"/></g><g class="legendsymbols"><g class="legendpoints"/></g></g><rect class="legendtoggle" x="0" y="-9.5" width="82.82500076293945" height="19" style="fill: rgb(0, 0, 0); fill-opacity: 0;"/></g><g class="traces" transform="translate(355.43906688690186,14.5)" style="opacity: 1;"><text class="legendtext" text-anchor="start" x="40" y="4.680000000000001" style="font-family: 'Open Sans', verdana, arial, sans-serif; font-size: 12px; fill: rgb(128, 128, 128); fill-opacity: 1; white-space: pre;">ADC</text><g class="layers" style="opacity: 1;"><g class="legendfill"/><g class="legendlines"><path class="js-line" d="M5,0h30" style="fill: none; stroke: rgb(25, 211, 243); stroke-opacity: 1; stroke-width: 2px;"/></g><g class="legendsymbols"><g class="legendpoints"/></g></g><rect class="legendtoggle" x="0" y="-9.5" width="69.54921913146973" height="19" style="fill: rgb(0, 0, 0); fill-opacity: 0;"/></g></g></g><rect class="scrollbar" rx="20" ry="3" width="0" height="0" x="0" y="0" style="fill: rgb(128, 139, 164); fill-opacity: 1;"/></g><g class="g-gtitle"/><g class="rangeslider-container" pointer-events="all" transform="translate(26,332)"><rect class="rangeslider-bg" x="0" y="0" shape-rendering="crispEdges" width="863" height="64.08" transform="" fill="rgb(229,236,246)" stroke="#444" stroke-width="0"/><g class="rangeslider-rangeplot xy" clip-path="url(#rangesliderx-fe905a)"><g class="layer-subplot"><g class="shapelayer"/><g class="imagelayer"/></g><g class="gridlayer"><g class="x"/><g class="y"/></g><g class="zerolinelayer"/><path class="xlines-below"/><path class="ylines-below"/><g class="overlines-below"/><g class="xaxislayer-below"/><g class="yaxislayer-below"/><g class="overaxes-below"/><g class="plot"><g class="scatterlayer mlayer rangeplot"><g class="trace scatter traceaf4d84" style="stroke-miterlimit: 2; opacity: 1;"><g class="fills"/><g class="errorbars"/><g class="lines"><path class="js-line" d="M406.25,32.06L406.55,33.15L406.95,32.05L407.15,31.03L407.56,29.86L407.96,30.58L408.16,31.49L409.17,35.15L409.37,34.98L409.57,34.47L411.18,28.28L411.38,28.41L411.58,28.83L413.59,36.43L413.79,36.28L413.99,35.88L415.4,29.33L415.6,28.5L416.41,27.22L416.61,27.48L416.81,27.96L419.43,37.36L419.63,37.09L419.83,36.62L422.65,26.31L422.85,26.53L423.05,26.94L424.46,33.33L424.66,34.36L426.07,38.24L426.27,38.1L427.07,35.84L427.27,34.93L429.89,25.55L430.09,25.78L431.1,29.17L431.3,30.17L433.71,38.97L433.91,38.85L434.72,36.79L434.92,35.95L437.74,24.82L437.94,24.85L438.74,26.52L438.94,27.28L442.16,39.64L442.37,39.53L443.17,37.63L443.37,36.85L446.59,24.18L446.79,24.23L447.6,25.84L447.8,26.56L451.42,40.23L451.62,40.08L452.63,37.38L452.83,36.51L456.05,23.62L456.25,23.6L457.05,24.9L457.26,25.54L459.67,37.25L459.87,38.09L461.28,40.8L461.48,40.67L462.49,38.16L462.69,37.34L466.31,23.05L466.51,23.08L467.32,24.46L467.52,25.1L469.73,35.9L469.93,36.87L471.54,41.31L471.74,41.34L472.55,40.24L472.75,39.67L474.56,31.24L474.76,30.16L476.77,22.78L476.97,22.59L477.78,23.07L477.98,23.48L479.39,29.02L479.59,30.07L482.41,41.61L482.61,41.79L483.41,41.31L483.61,40.9L484.82,36.44L485.02,35.45L488.24,22.2L488.44,22.06L489.25,22.67L489.45,23.11L490.86,28.64L491.06,29.68L494.08,42.08L494.28,42.26L495.08,41.83L495.28,41.45L496.49,37.18L496.69,36.21L500.11,21.82L500.31,21.64L501.12,22.03L501.32,22.4L502.73,27.53L502.93,28.53L506.35,42.6L506.55,42.74L507.36,42.24L507.56,41.84L508.97,36.64L509.17,35.64L512.59,21.38L512.79,21.2L513.59,21.55L513.8,21.89L515.2,26.82L515.41,27.79L519.03,42.97L519.23,43.15L520.03,42.8L520.23,42.46L521.44,38.51L521.64,37.6L525.67,20.86L525.87,20.73L526.67,21.22L526.87,21.6L528.28,26.59L528.48,27.56L532.31,43.43L532.51,43.59L533.31,43.19L533.51,42.84L534.72,38.94L534.92,38.04L539.15,20.45L539.35,20.31L540.15,20.77L540.36,21.13L541.76,25.96L541.97,26.92L545.99,43.8L546.19,43.97L547,43.68L547.2,43.36L548.4,39.68L548.61,38.82L553.03,20.12L553.23,19.95L554.04,20.25L554.24,20.56L555.65,25.05L555.85,25.97L560.07,44.07L560.28,44.29L561.08,44.21L561.28,43.96L562.49,40.63L562.69,39.82L567.52,19.66L567.72,19.53L568.53,19.94L568.73,20.27L570.14,24.82L570.34,25.73L574.76,44.52L574.96,44.71L575.77,44.55L575.97,44.29L577.18,40.95L577.38,40.14L582.41,19.26L582.61,19.15L583.42,19.58L583.62,19.91L585.03,24.42L585.23,25.31L589.85,44.9L590.06,45.09L590.86,44.92L591.06,44.66L592.27,41.38L592.47,40.59L597.7,18.9L597.9,18.78L598.71,19.2L598.91,19.52L600.32,23.91L600.52,24.79L605.35,45.25L605.55,45.44L606.35,45.3L606.55,45.05L607.76,41.89L607.96,41.12L613.4,18.56L613.6,18.43L614.4,18.8L614.6,19.11L616.01,23.35L616.21,24.21L621.24,45.58L621.44,45.77L622.25,45.69L622.45,45.45L623.66,42.41L623.86,41.66L627.08,25.57L627.28,24.63L629.29,18.44L629.49,18.23L630.5,18.41L630.7,18.7L632.11,22.78L632.31,23.62L637.54,45.9L637.74,46.1L638.75,45.84L638.95,45.54L640.36,41.41L640.56,40.57L645.79,18.12L645.99,17.91L647,18.04L647.2,18.31L648.61,22.26L648.81,23.07L654.24,46.22L654.44,46.42L655.45,46.2L655.65,45.92L657.06,41.91L657.26,41.08L662.89,17.58L663.1,17.44L663.9,17.69L664.1,17.95L665.51,21.8L665.71,22.61L671.35,46.56L671.55,46.75L672.55,46.54L672.75,46.26L674.16,42.32L674.36,41.51L680,17.45L680.2,17.24L681.2,17.38L681.41,17.64L682.61,20.71L682.81,21.44L685.43,34.35L685.63,35.43L688.45,46.33L688.65,46.66L689.86,47.04L690.06,46.83L691.27,44.07L691.47,43.37L693.88,31.82L694.08,30.73L697.1,18.08L697.3,17.67L698.51,16.79L698.71,16.91L699.72,18.62L699.92,19.18L701.93,27.66L702.13,28.7L706.15,46.39L706.36,46.77L707.56,47.45L707.76,47.3L708.97,44.88L709.17,44.23L711.39,34.14L711.59,33.07L715.01,18.02L715.21,17.57L716.62,16.52L716.82,16.66L718.03,19.06L718.23,19.69L720.44,29.73L720.64,30.8L724.26,46.52L724.47,46.92L725.67,47.81L725.87,47.69L726.88,46.05L727.08,45.52L729.09,37.23L729.29,36.19L733.72,17.01L733.92,16.69L735.13,16.29L735.33,16.49L736.54,19.1L736.74,19.75L739.15,31.01L739.35,32.09L742.98,47.15L743.18,47.49L744.39,48.03L744.59,47.87L745.79,45.41L745.99,44.78L748.01,35.86L748.21,34.79L752.23,17.13L752.43,16.73L753.64,15.87L753.84,15.98L754.85,17.57L755.05,18.09L757.06,26.22L757.26,27.24L761.69,47.07L761.89,47.47L763.1,48.42L763.3,48.32L764.31,46.81L764.51,46.3L766.32,39.31L766.52,38.33L771.35,16.74L771.55,16.36L772.76,15.59L772.96,15.71L774.16,17.86L774.37,18.45L776.38,26.99L776.58,28.04L781.01,47.53L781.21,47.9L782.41,48.68L782.62,48.57L783.82,46.45L784.02,45.87L786.04,37.39L786.24,36.35L790.66,16.63L790.87,16.24L792.07,15.27L792.27,15.35L793.28,16.79L793.48,17.28L795.29,24.09L795.49,25.06L800.72,48.09L800.93,48.41L802.13,48.9L802.33,48.74L803.54,46.39L803.74,45.78L805.96,36.08L806.16,35.02L810.18,16.86L810.38,16.39L811.79,14.98L811.99,15.05L813,16.42L813.2,16.89L815.01,23.55L815.21,24.5L820.64,48.4L820.85,48.71L822.05,49.18L822.25,49.02L823.46,46.69L823.66,46.09L825.88,36.46L826.08,35.41L830.3,16.44L830.5,15.99L831.91,14.71L832.11,14.8L833.12,16.22L833.32,16.7L835.13,23.37L835.33,24.33L840.77,48.48L840.97,48.83L841.97,49.55L841.97,32.06" style="vector-effect: non-scaling-stroke; fill: none; stroke: rgb(99, 110, 250); stroke-opacity: 1; stroke-width: 2px; opacity: 1;"/><path class="js-line" d="M842.07,32.06L842.07,49.55L863,32.06" style="vector-effect: non-scaling-stroke; fill: none; stroke: rgb(99, 110, 250); stroke-opacity: 1; stroke-width: 2px; opacity: 1;"/></g><g class="points"/><g class="text"/></g><g class="trace scatter tracecdcede" style="stroke-miterlimit: 2; opacity: 1;"><g class="fills"/><g class="errorbars"/><g class="lines"><path class="js-line" d="M406.25,32.06L406.35,31.36L406.75,33.14L406.95,33.69L407.35,32.95L407.56,31.98L408.36,29.38L408.56,29.67L408.76,30.31L410.17,35.51L410.37,35.28L410.57,34.75L412.38,27.98L412.59,28.18L412.79,28.64L415,36.66L415.2,36.41L415.4,35.92L417.82,26.95L418.02,27.14L418.22,27.55L419.63,34.06L419.83,35.03L420.84,37.63L421.04,37.57L421.24,37.29L422.24,33.44L422.45,32.38L424.26,26.08L424.46,26.18L425.26,28.4L425.46,29.31L427.88,38.44L428.08,38.32L428.88,36.17L429.09,35.29L431.7,25.32L431.9,25.43L432.71,27.47L432.91,28.32L435.73,39.15L435.93,39.05L436.73,37.12L436.93,36.3L439.95,24.65L440.15,24.74L440.96,26.59L441.16,27.37L444.38,39.79L444.58,39.7L445.38,37.89L445.58,37.12L449.01,24.03L449.21,24.15L450.01,25.98L450.21,26.73L453.63,40.38L453.83,40.37L454.64,38.96L454.84,38.3L458.66,23.45L458.86,23.52L459.67,25.12L459.87,25.81L463.69,40.94L463.9,40.92L464.7,39.53L464.9,38.89L467.32,27.12L467.52,26.24L469.13,22.93L469.33,23.07L470.33,25.54L470.54,26.35L474.36,41.47L474.56,41.44L475.36,40.13L475.57,39.52L477.58,29.86L477.78,28.82L479.79,22.45L479.99,22.4L480.8,23.39L481,23.92L482.81,32.14L483.01,33.22L485.22,41.67L485.42,41.87L486.23,41.53L486.43,41.15L487.84,35.88L488.04,34.86L491.06,22.22L491.26,22.02L492.06,22.34L492.27,22.7L493.67,27.86L493.88,28.87L497.1,42.21L497.3,42.38L498.1,41.94L498.3,41.55L499.71,36.32L499.91,35.32L503.13,21.77L503.33,21.56L504.14,21.83L504.34,22.17L505.55,26.17L505.75,27.1L509.57,42.78L509.77,42.88L510.58,42.21L510.78,41.78L512.39,35.4L512.59,34.35L515.61,21.52L515.81,21.25L516.61,21.2L516.81,21.46L517.82,24.17L518.02,24.96L522.45,43.22L522.65,43.32L523.45,42.66L523.66,42.25L525.26,36.03L525.47,34.99L528.69,21.15L528.89,20.87L529.69,20.73L529.89,20.95L530.09,21.27L531.3,25.05L531.5,25.94L535.73,43.57L535.93,43.71L536.73,43.25L536.94,42.89L538.34,38.03L538.54,37.08L542.57,20.37L542.77,20.23L543.58,20.63L543.78,20.97L545.19,25.7L545.39,26.64L549.41,43.8L549.61,44.01L550.42,43.88L550.62,43.61L551.83,40.16L552.03,39.32L556.65,19.96L556.86,19.83L557.66,20.23L557.86,20.56L559.27,25.18L559.47,26.1L563.7,44.17L563.9,44.39L564.7,44.31L564.9,44.05L566.11,40.74L566.31,39.94L571.14,19.62L571.34,19.46L572.15,19.77L572.35,20.07L573.76,24.46L573.96,25.35L578.59,44.71L578.79,44.86L579.59,44.54L579.79,44.23L581.2,39.87L581.4,38.98L586.03,19.33L586.23,19.14L587.04,19.28L587.24,19.54L588.45,22.81L588.65,23.61L593.88,45.17L594.08,45.27L594.88,44.78L595.09,44.44L596.49,39.92L596.7,39.03L601.32,19.1L601.52,18.87L602.53,19.02L602.73,19.31L603.94,22.7L604.14,23.5L609.37,45.43L609.57,45.58L610.38,45.3L610.58,45.02L611.99,40.9L612.19,40.05L617.22,18.64L617.42,18.44L618.43,18.75L618.63,19.07L620.04,23.36L620.24,24.23L625.27,45.65L625.47,45.85L626.47,45.57L626.68,45.26L628.08,41.05L628.29,40.19L633.52,18.21L633.72,18.05L634.52,18.25L634.72,18.5L635.93,21.64L636.13,22.4L641.77,46.08L641.97,46.24L642.77,46.06L642.97,45.81L644.18,42.74L644.38,41.99L647.6,25.89L647.8,24.93L650.02,18L650.22,17.79L651.22,17.99L651.43,18.28L652.83,22.28L653.03,23.11L658.67,46.49L658.87,46.62L659.67,46.3L659.88,46.03L661.28,42.07L661.49,41.26L667.12,17.55L667.32,17.39L668.33,17.78L668.53,18.09L669.94,22.24L670.14,23.08L675.57,46.5L675.77,46.74L676.78,46.74L676.98,46.5L678.19,43.56L678.39,42.84L681,30.01L681.2,28.95L684.02,17.92L684.22,17.58L685.43,17.15L685.63,17.35L686.84,20.08L687.04,20.77L689.66,33.4L689.86,34.47L692.67,46.01L692.87,46.41L694.08,47.25L694.28,47.12L695.49,44.79L695.69,44.16L697.91,34.11L698.11,33.03L701.53,18.1L701.73,17.68L702.94,16.69L703.14,16.79L704.14,18.42L704.34,18.95L706.15,26.28L706.36,27.3L710.78,46.69L710.98,47.02L712.19,47.46L712.39,47.27L713.6,44.62L713.8,43.96L716.22,32.58L716.42,31.51L719.64,17.78L719.84,17.36L721.04,16.38L721.25,16.48L722.25,18.06L722.45,18.58L724.26,25.79L724.47,26.79L728.89,46.65L729.09,47.04L730.3,47.87L730.5,47.75L731.51,46.08L731.71,45.54L733.72,37.23L733.92,36.2L738.15,17.37L738.35,16.97L739.56,16.09L739.76,16.2L740.76,17.82L740.96,18.34L742.78,25.54L742.98,26.54L747.6,47.1L747.81,47.46L749.01,48.14L749.21,48L750.22,46.25L750.42,45.7L752.43,37.35L752.63,36.31L757.06,16.86L757.26,16.5L758.47,15.84L758.67,15.98L759.88,18.27L760.08,18.88L762.29,28.65L762.49,29.73L766.52,47.25L766.72,47.64L767.93,48.47L768.13,48.36L769.13,46.77L769.34,46.26L771.35,38.18L771.55,37.16L776.18,16.65L776.38,16.28L777.59,15.52L777.79,15.64L778.99,17.8L779.2,18.38L781.41,27.96L781.61,29.02L785.63,47.08L785.84,47.53L787.24,48.77L787.44,48.67L788.45,47.13L788.65,46.62L790.46,39.67L790.66,38.69L795.9,15.95L796.1,15.66L797.3,15.37L797.51,15.56L798.71,18.11L798.91,18.75L800.93,27.62L801.13,28.67L805.35,47.52L805.55,47.94L806.96,49.03L807.16,48.91L808.17,47.31L808.37,46.8L810.38,38.84L810.58,37.83L815.61,15.84L815.82,15.52L817.02,15L817.22,15.16L818.43,17.46L818.63,18.05L820.85,27.65L821.05,28.71L825.27,47.66L825.47,48.09L826.88,49.34L827.08,49.25L828.09,47.79L828.29,47.31L830.3,39.61L830.5,38.62L835.74,15.61L835.94,15.28L837.14,14.71L837.35,14.85L838.55,17.04L838.75,17.63L840.77,26.03L840.97,27.06L841.97,32.06" style="vector-effect: non-scaling-stroke; fill: none; stroke: rgb(239, 85, 59); stroke-opacity: 1; stroke-width: 2px; opacity: 1;"/><path class="js-line" d="M842.07,32.06L842.07,31.33L863,32.06" style="vector-effect: non-scaling-stroke; fill: none; stroke: rgb(239, 85, 59); stroke-opacity: 1; stroke-width: 2px; opacity: 1;"/></g><g class="points"/><g class="text"/></g><g class="trace scatter trace64c4b2" style="stroke-miterlimit: 2; opacity: 1;"><g class="fills"/><g class="errorbars"/><g class="lines"><path class="js-line" d="M163.59,32.06L168.62,3.2L321.13,3.2L326.17,32.06" style="vector-effect: non-scaling-stroke; fill: none; stroke: rgb(0, 204, 150); stroke-opacity: 1; stroke-width: 2px; opacity: 1;"/><path class="js-line" d="M326.37,32.06L328.18,22.02L388.54,22.02L390.35,32.06" style="vector-effect: non-scaling-stroke; fill: none; stroke: rgb(0, 204, 150); stroke-opacity: 1; stroke-width: 2px; opacity: 1;"/><path class="js-line" d="M390.35,32.06L395.38,60.8L401.22,60.8L406.25,32.06" style="vector-effect: non-scaling-stroke; fill: none; stroke: rgb(0, 204, 150); stroke-opacity: 1; stroke-width: 2px; opacity: 1;"/><path class="js-line" d="M842.07,32.06L847.1,3.46L857.97,3.46L863,32.06" style="vector-effect: non-scaling-stroke; fill: none; stroke: rgb(0, 204, 150); stroke-opacity: 1; stroke-width: 2px; opacity: 1;"/></g><g class="points"/><g class="text"/></g><g class="trace scatter trace57730c" style="stroke-miterlimit: 2; opacity: 1;"><g class="fills"/><g class="errorbars"/><g class="lines"><path class="js-line" d="M2.02,32.06L50.31,31.38L51.92,31.27L87.34,29.22L88.95,29.3L111.48,31.16L113.09,31.27L137.24,32.02L138.85,32.03L162.97,32.06" style="vector-effect: non-scaling-stroke; fill: none; stroke: rgb(171, 99, 250); stroke-opacity: 1; stroke-width: 2px; opacity: 1;"/><path class="js-line" d="M328.19,32.06L345.09,31.48L345.69,31.22L351.13,27.81L351.73,27.39L356.56,24.87L357.16,24.73L360.18,24.86L360.78,25.04L365.01,27.38L365.61,27.8L372.25,31.7L372.86,31.9L374.67,31.83L375.27,31.75L381.31,31.85L381.91,31.89L388.53,32.06" style="vector-effect: non-scaling-stroke; fill: none; stroke: rgb(171, 99, 250); stroke-opacity: 1; stroke-width: 2px; opacity: 1;"/></g><g class="points"/><g class="text"/></g><g class="trace scatter trace607b2f" style="stroke-miterlimit: 2; opacity: 1;"><g class="fills"/><g class="errorbars"/><g class="lines"><path class="js-line" d="M406.26,32.06L406.26,31.1L816.7,31.1L816.7,32.06" style="vector-effect: non-scaling-stroke; fill: none; stroke: rgb(25, 211, 243); stroke-opacity: 1; stroke-width: 2px; opacity: 1;"/></g><g class="points"/><g class="text"/></g></g></g><g class="overplot"/><path class="xlines-above crisp" style="fill: none;"/><path class="ylines-above crisp" style="fill: none;"/><g class="overlines-above"/><g class="xaxislayer-above"/><g class="yaxislayer-above"/><g class="overaxes-above"/></g><rect class="rangeslider-mask-min" x="0" y="0" shape-rendering="crispEdges" height="64.08" width="0" style="fill: rgb(0, 0, 0); fill-opacity: 0.4;"/><rect class="rangeslider-mask-max" y="0" shape-rendering="crispEdges" height="64.08" x="863" width="0" style="fill: rgb(0, 0, 0); fill-opacity: 0.4;"/><g class="rangeslider-grabber-min" transform="translate(-2.5,0.5)"><rect class="rangeslider-handle-min" x="0" width="4" rx="1" fill="#fff" stroke="#444" stroke-width="1" shape-rendering="crispEdges" y="16" height="32"/><rect class="rangeslider-grabarea-min" width="10" x="0" y="0" fill="transparent" height="64.08"/></g><g class="rangeslider-grabber-max" transform="translate(861.5,0.5)"><rect class="rangeslider-handle-max" x="0" width="4" rx="1" fill="#fff" stroke="#444" stroke-width="1" shape-rendering="crispEdges" y="16" height="32"/><rect class="rangeslider-grabarea-max" width="10" x="0" y="0" fill="transparent" height="64.08"/></g></g><g class="g-ytitle"/><g class="g-xtitle"/></g></svg>